<?xml version="1.0" encoding="UTF-8" standalone="no"?>
<!DOCTYPE svg PUBLIC "-//W3C//DTD SVG 1.1//EN"
 "http://www.w3.org/Graphics/SVG/1.1/DTD/svg11.dtd">
<!-- Generated by graphviz version 2.40.1 (20161225.0304)
 -->
<!-- Title: dependencies Pages: 1 -->
<svg width="6012pt" height="284pt"
 viewBox="0.00 0.00 6012.00 284.00" xmlns="http://www.w3.org/2000/svg" xmlns:xlink="http://www.w3.org/1999/xlink">
<g id="graph0" class="graph" transform="scale(1 1) rotate(0) translate(4 280)">
<title>dependencies</title>
<polygon fill="#ffffff" stroke="transparent" points="-4,4 -4,-280 6008,-280 6008,4 -4,4"/>
<text text-anchor="start" x="2981.0091" y="-42.4" font-family="sans-serif" font-weight="bold" font-size="14.00" fill="#000000">Legend</text>
<polygon fill="#ffffb3" stroke="transparent" points="2768,-10 2768,-30 2788,-30 2788,-10 2768,-10"/>
<text text-anchor="start" x="2791.629" y="-15.4" font-family="sans-serif" font-size="14.00" fill="#000000"> &#160;Declarations</text>
<polygon fill="#8dd3c7" stroke="transparent" points="2881,-10 2881,-30 2901,-30 2901,-10 2881,-10"/>
<text text-anchor="start" x="2904.7251" y="-15.4" font-family="sans-serif" font-size="14.00" fill="#000000"> &#160;Module</text>
<polygon fill="#80b1d3" stroke="transparent" points="2967,-10 2967,-30 2987,-30 2987,-10 2967,-10"/>
<text text-anchor="start" x="2990.7812" y="-15.4" font-family="sans-serif" font-size="14.00" fill="#000000"> &#160;Bootstrap</text>
<polygon fill="#fdb462" stroke="transparent" points="3064,-10 3064,-30 3084,-30 3084,-10 3064,-10"/>
<text text-anchor="start" x="3087.6732" y="-15.4" font-family="sans-serif" font-size="14.00" fill="#000000"> &#160;Providers</text>
<polygon fill="#fb8072" stroke="transparent" points="3160,-10 3160,-30 3180,-30 3180,-10 3160,-10"/>
<text text-anchor="start" x="3183.7258" y="-15.4" font-family="sans-serif" font-size="14.00" fill="#000000"> &#160;Exports</text>
<g id="clust1" class="cluster">
<title>cluster_AppModule</title>
<polygon fill="none" stroke="#000000" stroke-dasharray="1,5" points="8,-70 8,-268 5996,-268 5996,-70 8,-70"/>
</g>
<g id="clust2" class="cluster">
<title>cluster_AppModule_declarations</title>
<polygon fill="none" stroke="#000000" points="864,-78 864,-130 5988,-130 5988,-78 864,-78"/>
</g>
<g id="clust29" class="cluster">
<title>cluster_AppModule_imports</title>
<polygon fill="none" stroke="#000000" points="16,-78 16,-130 856,-130 856,-78 16,-78"/>
</g>
<g id="clust31" class="cluster">
<title>cluster_AppModule_bootstrap</title>
<polygon fill="none" stroke="#000000" points="2784,-208 2784,-260 2908,-260 2908,-208 2784,-208"/>
</g>
<!-- AdminDashboardComponent -->
<g id="node1" class="node">
<title>AdminDashboardComponent</title>
<polygon fill="#ffffb3" stroke="#000000" points="5980.3613,-122 5799.6387,-122 5799.6387,-86 5980.3613,-86 5980.3613,-122"/>
<text text-anchor="middle" x="5890" y="-99.8" font-family="Times,serif" font-size="14.00" fill="#000000">AdminDashboardComponent</text>
</g>
<!-- AppModule -->
<g id="node27" class="node">
<title>AppModule</title>
<polygon fill="#8dd3c7" stroke="#000000" points="2887.6571,-187 2884.6571,-191 2863.6571,-191 2860.6571,-187 2804.3429,-187 2804.3429,-151 2887.6571,-151 2887.6571,-187"/>
<text text-anchor="middle" x="2846" y="-164.8" font-family="Times,serif" font-size="14.00" fill="#000000">AppModule</text>
</g>
<!-- AdminDashboardComponent&#45;&gt;AppModule -->
<g id="edge1" class="edge">
<title>AdminDashboardComponent&#45;&gt;AppModule</title>
<path fill="none" stroke="#000000" d="M5890,-122.3802C5890,-146.2785 5890,-185 5890,-185 5890,-185 2897.8725,-185 2897.8725,-185"/>
<polygon fill="#000000" stroke="#000000" points="2897.8726,-181.5001 2887.8725,-185 2897.8725,-188.5001 2897.8726,-181.5001"/>
</g>
<!-- AppComponent -->
<g id="node2" class="node">
<title>AppComponent</title>
<polygon fill="#ffffb3" stroke="#000000" points="5781.9399,-122 5676.0601,-122 5676.0601,-86 5781.9399,-86 5781.9399,-122"/>
<text text-anchor="middle" x="5729" y="-99.8" font-family="Times,serif" font-size="14.00" fill="#000000">AppComponent</text>
</g>
<!-- AppComponent&#45;&gt;AppModule -->
<g id="edge2" class="edge">
<title>AppComponent&#45;&gt;AppModule</title>
<path fill="none" stroke="#000000" d="M5729,-122.3228C5729,-145.6602 5729,-183 5729,-183 5729,-183 2897.8663,-183 2897.8663,-183"/>
<polygon fill="#000000" stroke="#000000" points="2897.8664,-179.5001 2887.8663,-183 2897.8663,-186.5001 2897.8664,-179.5001"/>
</g>
<!-- ClinicHandlerComponent -->
<g id="node3" class="node">
<title>ClinicHandlerComponent</title>
<polygon fill="#ffffb3" stroke="#000000" points="5658.1428,-122 5497.8572,-122 5497.8572,-86 5658.1428,-86 5658.1428,-122"/>
<text text-anchor="middle" x="5578" y="-99.8" font-family="Times,serif" font-size="14.00" fill="#000000">ClinicHandlerComponent</text>
</g>
<!-- ClinicHandlerComponent&#45;&gt;AppModule -->
<g id="edge3" class="edge">
<title>ClinicHandlerComponent&#45;&gt;AppModule</title>
<path fill="none" stroke="#000000" d="M5578,-122.2479C5578,-145.0179 5578,-181 5578,-181 5578,-181 2897.82,-181 2897.82,-181"/>
<polygon fill="#000000" stroke="#000000" points="2897.82,-177.5001 2887.82,-181 2897.8199,-184.5001 2897.82,-177.5001"/>
</g>
<!-- DatabaseHandlerComponent -->
<g id="node4" class="node">
<title>DatabaseHandlerComponent</title>
<polygon fill="#ffffb3" stroke="#000000" points="5479.7198,-122 5302.2802,-122 5302.2802,-86 5479.7198,-86 5479.7198,-122"/>
<text text-anchor="middle" x="5391" y="-99.8" font-family="Times,serif" font-size="14.00" fill="#000000">DatabaseHandlerComponent</text>
</g>
<!-- DatabaseHandlerComponent&#45;&gt;AppModule -->
<g id="edge4" class="edge">
<title>DatabaseHandlerComponent&#45;&gt;AppModule</title>
<path fill="none" stroke="#000000" d="M5391,-122.2921C5391,-144.2057 5391,-178 5391,-178 5391,-178 2897.7879,-178 2897.7879,-178"/>
<polygon fill="#000000" stroke="#000000" points="2897.7879,-174.5001 2887.7879,-178 2897.7879,-181.5001 2897.7879,-174.5001"/>
</g>
<!-- ErrorComponent -->
<g id="node5" class="node">
<title>ErrorComponent</title>
<polygon fill="#ffffb3" stroke="#000000" points="5284.3669,-122 5173.6331,-122 5173.6331,-86 5284.3669,-86 5284.3669,-122"/>
<text text-anchor="middle" x="5229" y="-99.8" font-family="Times,serif" font-size="14.00" fill="#000000">ErrorComponent</text>
</g>
<!-- ErrorComponent&#45;&gt;AppModule -->
<g id="edge5" class="edge">
<title>ErrorComponent&#45;&gt;AppModule</title>
<path fill="none" stroke="#000000" d="M5229,-122.1686C5229,-143.498 5229,-176 5229,-176 5229,-176 2897.8657,-176 2897.8657,-176"/>
<polygon fill="#000000" stroke="#000000" points="2897.8657,-172.5001 2887.8657,-176 2897.8656,-179.5001 2897.8657,-172.5001"/>
</g>
<!-- LoginComponent -->
<g id="node6" class="node">
<title>LoginComponent</title>
<polygon fill="#ffffb3" stroke="#000000" points="5155.2758,-122 5040.7242,-122 5040.7242,-86 5155.2758,-86 5155.2758,-122"/>
<text text-anchor="middle" x="5098" y="-99.8" font-family="Times,serif" font-size="14.00" fill="#000000">LoginComponent</text>
</g>
<!-- LoginComponent&#45;&gt;AppModule -->
<g id="edge6" class="edge">
<title>LoginComponent&#45;&gt;AppModule</title>
<path fill="none" stroke="#000000" d="M5098,-122.0267C5098,-142.7672 5098,-174 5098,-174 5098,-174 2897.9875,-174 2897.9875,-174"/>
<polygon fill="#000000" stroke="#000000" points="2897.9876,-170.5001 2887.9875,-174 2897.9875,-177.5001 2897.9876,-170.5001"/>
</g>
<!-- MemberDashboardComponent -->
<g id="node7" class="node">
<title>MemberDashboardComponent</title>
<polygon fill="#ffffb3" stroke="#000000" points="5022.8988,-122 4833.1012,-122 4833.1012,-86 5022.8988,-86 5022.8988,-122"/>
<text text-anchor="middle" x="4928" y="-99.8" font-family="Times,serif" font-size="14.00" fill="#000000">MemberDashboardComponent</text>
</g>
<!-- MemberDashboardComponent&#45;&gt;AppModule -->
<g id="edge7" class="edge">
<title>MemberDashboardComponent&#45;&gt;AppModule</title>
<path fill="none" stroke="#000000" d="M4928,-122.2228C4928,-142.3652 4928,-172 4928,-172 4928,-172 2898.0592,-172 2898.0592,-172"/>
<polygon fill="#000000" stroke="#000000" points="2898.0593,-168.5001 2888.0592,-172 2898.0592,-175.5001 2898.0593,-168.5001"/>
</g>
<!-- MemberHandlerComponent -->
<g id="node8" class="node">
<title>MemberHandlerComponent</title>
<polygon fill="#ffffb3" stroke="#000000" points="4814.8445,-122 4641.1555,-122 4641.1555,-86 4814.8445,-86 4814.8445,-122"/>
<text text-anchor="middle" x="4728" y="-99.8" font-family="Times,serif" font-size="14.00" fill="#000000">MemberHandlerComponent</text>
</g>
<!-- MemberHandlerComponent&#45;&gt;AppModule -->
<g id="edge8" class="edge">
<title>MemberHandlerComponent&#45;&gt;AppModule</title>
<path fill="none" stroke="#000000" d="M4728,-122.1061C4728,-141.3391 4728,-169 4728,-169 4728,-169 2897.9469,-169 2897.9469,-169"/>
<polygon fill="#000000" stroke="#000000" points="2897.947,-165.5001 2887.9469,-169 2897.9469,-172.5001 2897.947,-165.5001"/>
</g>
<!-- MemberProfileComponent -->
<g id="node9" class="node">
<title>MemberProfileComponent</title>
<polygon fill="#ffffb3" stroke="#000000" points="4623.3571,-122 4456.6429,-122 4456.6429,-86 4623.3571,-86 4623.3571,-122"/>
<text text-anchor="middle" x="4540" y="-99.8" font-family="Times,serif" font-size="14.00" fill="#000000">MemberProfileComponent</text>
</g>
<!-- MemberProfileComponent&#45;&gt;AppModule -->
<g id="edge9" class="edge">
<title>MemberProfileComponent&#45;&gt;AppModule</title>
<path fill="none" stroke="#000000" d="M4540,-122.2222C4540,-140.8285 4540,-167 4540,-167 4540,-167 2897.8744,-167 2897.8744,-167"/>
<polygon fill="#000000" stroke="#000000" points="2897.8744,-163.5001 2887.8744,-167 2897.8744,-170.5001 2897.8744,-163.5001"/>
</g>
<!-- MemberSubmitSampleComponent -->
<g id="node10" class="node">
<title>MemberSubmitSampleComponent</title>
<polygon fill="#ffffb3" stroke="#000000" points="4438.7049,-122 4227.2951,-122 4227.2951,-86 4438.7049,-86 4438.7049,-122"/>
<text text-anchor="middle" x="4333" y="-99.8" font-family="Times,serif" font-size="14.00" fill="#000000">MemberSubmitSampleComponent</text>
</g>
<!-- MemberSubmitSampleComponent&#45;&gt;AppModule -->
<g id="edge10" class="edge">
<title>MemberSubmitSampleComponent&#45;&gt;AppModule</title>
<path fill="none" stroke="#000000" d="M4333,-122.302C4333,-140.2699 4333,-165 4333,-165 4333,-165 2897.7145,-165 2897.7145,-165"/>
<polygon fill="#000000" stroke="#000000" points="2897.7145,-161.5001 2887.7145,-165 2897.7144,-168.5001 2897.7145,-161.5001"/>
</g>
<!-- MemberViewSamplesComponent -->
<g id="node11" class="node">
<title>MemberViewSamplesComponent</title>
<polygon fill="#ffffb3" stroke="#000000" points="4209.014,-122 4002.986,-122 4002.986,-86 4209.014,-86 4209.014,-122"/>
<text text-anchor="middle" x="4106" y="-99.8" font-family="Times,serif" font-size="14.00" fill="#000000">MemberViewSamplesComponent</text>
</g>
<!-- MemberViewSamplesComponent&#45;&gt;AppModule -->
<g id="edge11" class="edge">
<title>MemberViewSamplesComponent&#45;&gt;AppModule</title>
<path fill="none" stroke="#000000" d="M4106,-122.0225C4106,-139.3734 4106,-163 4106,-163 4106,-163 2897.9225,-163 2897.9225,-163"/>
<polygon fill="#000000" stroke="#000000" points="2897.9225,-159.5001 2887.9225,-163 2897.9224,-166.5001 2897.9225,-159.5001"/>
</g>
<!-- OrganizationDashboardComponent -->
<g id="node12" class="node">
<title>OrganizationDashboardComponent</title>
<polygon fill="#ffffb3" stroke="#000000" points="3984.5562,-122 3769.4438,-122 3769.4438,-86 3984.5562,-86 3984.5562,-122"/>
<text text-anchor="middle" x="3877" y="-99.8" font-family="Times,serif" font-size="14.00" fill="#000000">OrganizationDashboardComponent</text>
</g>
<!-- OrganizationDashboardComponent&#45;&gt;AppModule -->
<g id="edge12" class="edge">
<title>OrganizationDashboardComponent&#45;&gt;AppModule</title>
<path fill="none" stroke="#000000" d="M3877,-122.027C3877,-138.3976 3877,-160 3877,-160 3877,-160 2897.6934,-160 2897.6934,-160"/>
<polygon fill="#000000" stroke="#000000" points="2897.6934,-156.5001 2887.6934,-160 2897.6933,-163.5001 2897.6934,-156.5001"/>
</g>
<!-- OrganizationHandlerComponent -->
<g id="node13" class="node">
<title>OrganizationHandlerComponent</title>
<polygon fill="#ffffb3" stroke="#000000" points="3751.5028,-122 3552.4972,-122 3552.4972,-86 3751.5028,-86 3751.5028,-122"/>
<text text-anchor="middle" x="3652" y="-99.8" font-family="Times,serif" font-size="14.00" fill="#000000">OrganizationHandlerComponent</text>
</g>
<!-- OrganizationHandlerComponent&#45;&gt;AppModule -->
<g id="edge13" class="edge">
<title>OrganizationHandlerComponent&#45;&gt;AppModule</title>
<path fill="none" stroke="#000000" d="M3652,-122.2819C3652,-137.9478 3652,-158 3652,-158 3652,-158 2897.9176,-158 2897.9176,-158"/>
<polygon fill="#000000" stroke="#000000" points="2897.9177,-154.5001 2887.9176,-158 2897.9176,-161.5001 2897.9177,-154.5001"/>
</g>
<!-- OrganizationProfileComponent -->
<g id="node14" class="node">
<title>OrganizationProfileComponent</title>
<polygon fill="#ffffb3" stroke="#000000" points="3534.0154,-122 3341.9846,-122 3341.9846,-86 3534.0154,-86 3534.0154,-122"/>
<text text-anchor="middle" x="3438" y="-99.8" font-family="Times,serif" font-size="14.00" fill="#000000">OrganizationProfileComponent</text>
</g>
<!-- OrganizationProfileComponent&#45;&gt;AppModule -->
<g id="edge14" class="edge">
<title>OrganizationProfileComponent&#45;&gt;AppModule</title>
<path fill="none" stroke="#000000" d="M3438,-122.1871C3438,-137.1824 3438,-156 3438,-156 3438,-156 2898.1006,-156 2898.1006,-156"/>
<polygon fill="#000000" stroke="#000000" points="2898.1006,-152.5001 2888.1006,-156 2898.1006,-159.5001 2898.1006,-152.5001"/>
</g>
<!-- OrganizationSubmitSampleComponent -->
<g id="node15" class="node">
<title>OrganizationSubmitSampleComponent</title>
<polygon fill="#ffffb3" stroke="#000000" points="3323.3626,-122 3086.6374,-122 3086.6374,-86 3323.3626,-86 3323.3626,-122"/>
<text text-anchor="middle" x="3205" y="-99.8" font-family="Times,serif" font-size="14.00" fill="#000000">OrganizationSubmitSampleComponent</text>
</g>
<!-- OrganizationSubmitSampleComponent&#45;&gt;AppModule -->
<g id="edge15" class="edge">
<title>OrganizationSubmitSampleComponent&#45;&gt;AppModule</title>
<path fill="none" stroke="#000000" d="M3205,-122.0511C3205,-136.373 3205,-154 3205,-154 3205,-154 2897.8845,-154 2897.8845,-154"/>
<polygon fill="#000000" stroke="#000000" points="2897.8845,-150.5001 2887.8845,-154 2897.8844,-157.5001 2897.8845,-150.5001"/>
</g>
<!-- OrganizationViewSamplesComponent -->
<g id="node16" class="node">
<title>OrganizationViewSamplesComponent</title>
<polygon fill="#ffffb3" stroke="#000000" points="3068.1713,-122 2835.8287,-122 2835.8287,-86 3068.1713,-86 3068.1713,-122"/>
<text text-anchor="middle" x="2952" y="-99.8" font-family="Times,serif" font-size="14.00" fill="#000000">OrganizationViewSamplesComponent</text>
</g>
<!-- OrganizationViewSamplesComponent&#45;&gt;AppModule -->
<g id="edge16" class="edge">
<title>OrganizationViewSamplesComponent&#45;&gt;AppModule</title>
<path fill="none" stroke="#000000" d="M2861.8713,-122.1061C2861.8713,-122.1061 2861.8713,-140.991 2861.8713,-140.991"/>
<polygon fill="#000000" stroke="#000000" points="2858.3714,-140.9909 2861.8713,-150.991 2865.3714,-140.991 2858.3714,-140.9909"/>
</g>
<!-- SampleFormComponent -->
<g id="node17" class="node">
<title>SampleFormComponent</title>
<polygon fill="#ffffb3" stroke="#000000" points="2817.6596,-122 2664.3404,-122 2664.3404,-86 2817.6596,-86 2817.6596,-122"/>
<text text-anchor="middle" x="2741" y="-99.8" font-family="Times,serif" font-size="14.00" fill="#000000">SampleFormComponent</text>
</g>
<!-- SampleFormComponent&#45;&gt;AppModule -->
<g id="edge17" class="edge">
<title>SampleFormComponent&#45;&gt;AppModule</title>
<path fill="none" stroke="#000000" d="M2811.0007,-122.1061C2811.0007,-122.1061 2811.0007,-140.991 2811.0007,-140.991"/>
<polygon fill="#000000" stroke="#000000" points="2807.5008,-140.9909 2811.0007,-150.991 2814.5008,-140.991 2807.5008,-140.9909"/>
</g>
<!-- SplashComponent -->
<g id="node18" class="node">
<title>SplashComponent</title>
<polygon fill="#ffffb3" stroke="#000000" points="2646.1653,-122 2527.8347,-122 2527.8347,-86 2646.1653,-86 2646.1653,-122"/>
<text text-anchor="middle" x="2587" y="-99.8" font-family="Times,serif" font-size="14.00" fill="#000000">SplashComponent</text>
</g>
<!-- SplashComponent&#45;&gt;AppModule -->
<g id="edge18" class="edge">
<title>SplashComponent&#45;&gt;AppModule</title>
<path fill="none" stroke="#000000" d="M2587,-122.0511C2587,-136.373 2587,-154 2587,-154 2587,-154 2794.0993,-154 2794.0993,-154"/>
<polygon fill="#000000" stroke="#000000" points="2794.0994,-157.5001 2804.0993,-154 2794.0993,-150.5001 2794.0994,-157.5001"/>
</g>
<!-- StaffDashboardComponent -->
<g id="node19" class="node">
<title>StaffDashboardComponent</title>
<polygon fill="#ffffb3" stroke="#000000" points="2509.6825,-122 2340.3175,-122 2340.3175,-86 2509.6825,-86 2509.6825,-122"/>
<text text-anchor="middle" x="2425" y="-99.8" font-family="Times,serif" font-size="14.00" fill="#000000">StaffDashboardComponent</text>
</g>
<!-- StaffDashboardComponent&#45;&gt;AppModule -->
<g id="edge19" class="edge">
<title>StaffDashboardComponent&#45;&gt;AppModule</title>
<path fill="none" stroke="#000000" d="M2425,-122.1871C2425,-137.1824 2425,-156 2425,-156 2425,-156 2794.0938,-156 2794.0938,-156"/>
<polygon fill="#000000" stroke="#000000" points="2794.0938,-159.5001 2804.0938,-156 2794.0937,-152.5001 2794.0938,-159.5001"/>
</g>
<!-- StaffHandlerComponent -->
<g id="node20" class="node">
<title>StaffHandlerComponent</title>
<polygon fill="#ffffb3" stroke="#000000" points="2322.6288,-122 2169.3712,-122 2169.3712,-86 2322.6288,-86 2322.6288,-122"/>
<text text-anchor="middle" x="2246" y="-99.8" font-family="Times,serif" font-size="14.00" fill="#000000">StaffHandlerComponent</text>
</g>
<!-- StaffHandlerComponent&#45;&gt;AppModule -->
<g id="edge20" class="edge">
<title>StaffHandlerComponent&#45;&gt;AppModule</title>
<path fill="none" stroke="#000000" d="M2246,-122.2819C2246,-137.9478 2246,-158 2246,-158 2246,-158 2794.2855,-158 2794.2855,-158"/>
<polygon fill="#000000" stroke="#000000" points="2794.2856,-161.5001 2804.2855,-158 2794.2855,-154.5001 2794.2856,-161.5001"/>
</g>
<!-- StaffSubmitSampleComponent -->
<g id="node21" class="node">
<title>StaffSubmitSampleComponent</title>
<polygon fill="#ffffb3" stroke="#000000" points="2151.4888,-122 1960.5112,-122 1960.5112,-86 2151.4888,-86 2151.4888,-122"/>
<text text-anchor="middle" x="2056" y="-99.8" font-family="Times,serif" font-size="14.00" fill="#000000">StaffSubmitSampleComponent</text>
</g>
<!-- StaffSubmitSampleComponent&#45;&gt;AppModule -->
<g id="edge21" class="edge">
<title>StaffSubmitSampleComponent&#45;&gt;AppModule</title>
<path fill="none" stroke="#000000" d="M2056,-122.027C2056,-138.3976 2056,-160 2056,-160 2056,-160 2794.0839,-160 2794.0839,-160"/>
<polygon fill="#000000" stroke="#000000" points="2794.084,-163.5001 2804.0839,-160 2794.0839,-156.5001 2794.084,-163.5001"/>
</g>
<!-- SubmitCbsDepositComponent -->
<g id="node22" class="node">
<title>SubmitCbsDepositComponent</title>
<polygon fill="#ffffb3" stroke="#000000" points="1942.615,-122 1755.385,-122 1755.385,-86 1942.615,-86 1942.615,-122"/>
<text text-anchor="middle" x="1849" y="-99.8" font-family="Times,serif" font-size="14.00" fill="#000000">SubmitCbsDepositComponent</text>
</g>
<!-- SubmitCbsDepositComponent&#45;&gt;AppModule -->
<g id="edge22" class="edge">
<title>SubmitCbsDepositComponent&#45;&gt;AppModule</title>
<path fill="none" stroke="#000000" d="M1849,-122.0225C1849,-139.3734 1849,-163 1849,-163 1849,-163 2794.1138,-163 2794.1138,-163"/>
<polygon fill="#000000" stroke="#000000" points="2794.1138,-166.5001 2804.1138,-163 2794.1137,-159.5001 2794.1138,-166.5001"/>
</g>
<!-- SubmitCbsRequestComponent -->
<g id="node23" class="node">
<title>SubmitCbsRequestComponent</title>
<polygon fill="#ffffb3" stroke="#000000" points="1737.1693,-122 1548.8307,-122 1548.8307,-86 1737.1693,-86 1737.1693,-122"/>
<text text-anchor="middle" x="1643" y="-99.8" font-family="Times,serif" font-size="14.00" fill="#000000">SubmitCbsRequestComponent</text>
</g>
<!-- SubmitCbsRequestComponent&#45;&gt;AppModule -->
<g id="edge23" class="edge">
<title>SubmitCbsRequestComponent&#45;&gt;AppModule</title>
<path fill="none" stroke="#000000" d="M1643,-122.302C1643,-140.2699 1643,-165 1643,-165 1643,-165 2794.2407,-165 2794.2407,-165"/>
<polygon fill="#000000" stroke="#000000" points="2794.2407,-168.5001 2804.2407,-165 2794.2406,-161.5001 2794.2407,-168.5001"/>
</g>
<!-- SubmitCmwDepositComponent -->
<g id="node24" class="node">
<title>SubmitCmwDepositComponent</title>
<polygon fill="#ffffb3" stroke="#000000" points="1530.6679,-122 1335.3321,-122 1335.3321,-86 1530.6679,-86 1530.6679,-122"/>
<text text-anchor="middle" x="1433" y="-99.8" font-family="Times,serif" font-size="14.00" fill="#000000">SubmitCmwDepositComponent</text>
</g>
<!-- SubmitCmwDepositComponent&#45;&gt;AppModule -->
<g id="edge24" class="edge">
<title>SubmitCmwDepositComponent&#45;&gt;AppModule</title>
<path fill="none" stroke="#000000" d="M1433,-122.2222C1433,-140.8285 1433,-167 1433,-167 1433,-167 2794.0951,-167 2794.0951,-167"/>
<polygon fill="#000000" stroke="#000000" points="2794.0951,-170.5001 2804.0951,-167 2794.095,-163.5001 2794.0951,-170.5001"/>
</g>
<!-- SubmitCmwRequestComponent -->
<g id="node25" class="node">
<title>SubmitCmwRequestComponent</title>
<polygon fill="#ffffb3" stroke="#000000" points="1317.7217,-122 1120.2783,-122 1120.2783,-86 1317.7217,-86 1317.7217,-122"/>
<text text-anchor="middle" x="1219" y="-99.8" font-family="Times,serif" font-size="14.00" fill="#000000">SubmitCmwRequestComponent</text>
</g>
<!-- SubmitCmwRequestComponent&#45;&gt;AppModule -->
<g id="edge25" class="edge">
<title>SubmitCmwRequestComponent&#45;&gt;AppModule</title>
<path fill="none" stroke="#000000" d="M1219,-122.1061C1219,-141.3391 1219,-169 1219,-169 1219,-169 2794.1468,-169 2794.1468,-169"/>
<polygon fill="#000000" stroke="#000000" points="2794.1468,-172.5001 2804.1468,-169 2794.1468,-165.5001 2794.1468,-172.5001"/>
</g>
<!-- SubmitCmwRevitalizationComponent -->
<g id="node26" class="node">
<title>SubmitCmwRevitalizationComponent</title>
<polygon fill="#ffffb3" stroke="#000000" points="1102.1595,-122 871.8405,-122 871.8405,-86 1102.1595,-86 1102.1595,-122"/>
<text text-anchor="middle" x="987" y="-99.8" font-family="Times,serif" font-size="14.00" fill="#000000">SubmitCmwRevitalizationComponent</text>
</g>
<!-- SubmitCmwRevitalizationComponent&#45;&gt;AppModule -->
<g id="edge26" class="edge">
<title>SubmitCmwRevitalizationComponent&#45;&gt;AppModule</title>
<path fill="none" stroke="#000000" d="M987,-122.2228C987,-142.3652 987,-172 987,-172 987,-172 2794.1236,-172 2794.1236,-172"/>
<polygon fill="#000000" stroke="#000000" points="2794.1236,-175.5001 2804.1236,-172 2794.1236,-168.5001 2794.1236,-175.5001"/>
</g>
<!-- AppComponent  -->
<g id="node34" class="node">
<title>AppComponent </title>
<polygon fill="#80b1d3" stroke="#000000" points="2900.439,-252 2791.561,-252 2791.561,-216 2900.439,-216 2900.439,-252"/>
<text text-anchor="middle" x="2846" y="-229.8" font-family="Times,serif" font-size="14.00" fill="#000000">AppComponent </text>
</g>
<!-- AppModule&#45;&gt;AppComponent  -->
<g id="edge33" class="edge">
<title>AppModule&#45;&gt;AppComponent </title>
<path fill="none" stroke="#000000" stroke-dasharray="1,5" d="M2846,-187.1061C2846,-187.1061 2846,-205.991 2846,-205.991"/>
<polygon fill="#000000" stroke="#000000" points="2842.5001,-205.9909 2846,-215.991 2849.5001,-205.991 2842.5001,-205.9909"/>
</g>
<!-- AdminModule -->
<g id="node28" class="node">
<title>AdminModule</title>
<polygon fill="#8dd3c7" stroke="#000000" points="848.4386,-122 845.4386,-126 824.4386,-126 821.4386,-122 749.5614,-122 749.5614,-86 848.4386,-86 848.4386,-122"/>
<text text-anchor="middle" x="799" y="-99.8" font-family="Times,serif" font-size="14.00" fill="#000000">AdminModule</text>
</g>
<!-- AdminModule&#45;&gt;AppModule -->
<g id="edge27" class="edge">
<title>AdminModule&#45;&gt;AppModule</title>
<path fill="none" stroke="#000000" d="M799,-122.0267C799,-142.7672 799,-174 799,-174 799,-174 2794.1828,-174 2794.1828,-174"/>
<polygon fill="#000000" stroke="#000000" points="2794.1828,-177.5001 2804.1828,-174 2794.1828,-170.5001 2794.1828,-177.5001"/>
</g>
<!-- AppRoutingModule -->
<g id="node29" class="node">
<title>AppRoutingModule</title>
<polygon fill="#8dd3c7" stroke="#000000" points="731.2744,-122 728.2744,-126 707.2744,-126 704.2744,-122 602.7256,-122 602.7256,-86 731.2744,-86 731.2744,-122"/>
<text text-anchor="middle" x="667" y="-99.8" font-family="Times,serif" font-size="14.00" fill="#000000">AppRoutingModule</text>
</g>
<!-- AppRoutingModule&#45;&gt;AppModule -->
<g id="edge28" class="edge">
<title>AppRoutingModule&#45;&gt;AppModule</title>
<path fill="none" stroke="#000000" d="M667,-122.1686C667,-143.498 667,-176 667,-176 667,-176 2793.9353,-176 2793.9353,-176"/>
<polygon fill="#000000" stroke="#000000" points="2793.9353,-179.5001 2803.9353,-176 2793.9353,-172.5001 2793.9353,-179.5001"/>
</g>
<!-- MaterialModule -->
<g id="node30" class="node">
<title>MaterialModule</title>
<polygon fill="#8dd3c7" stroke="#000000" points="584.4706,-122 581.4706,-126 560.4706,-126 557.4706,-122 477.5294,-122 477.5294,-86 584.4706,-86 584.4706,-122"/>
<text text-anchor="middle" x="531" y="-99.8" font-family="Times,serif" font-size="14.00" fill="#000000">MaterialModule</text>
</g>
<!-- MaterialModule&#45;&gt;AppModule -->
<g id="edge29" class="edge">
<title>MaterialModule&#45;&gt;AppModule</title>
<path fill="none" stroke="#000000" d="M531,-122.2921C531,-144.2057 531,-178 531,-178 531,-178 2794.3409,-178 2794.3409,-178"/>
<polygon fill="#000000" stroke="#000000" points="2794.3409,-181.5001 2804.3409,-178 2794.3408,-174.5001 2794.3409,-181.5001"/>
</g>
<!-- OrganizationMemberModule -->
<g id="node31" class="node">
<title>OrganizationMemberModule</title>
<polygon fill="#8dd3c7" stroke="#000000" points="459.0576,-122 456.0576,-126 435.0576,-126 432.0576,-122 278.9424,-122 278.9424,-86 459.0576,-86 459.0576,-122"/>
<text text-anchor="middle" x="369" y="-99.8" font-family="Times,serif" font-size="14.00" fill="#000000">OrganizationMemberModule</text>
</g>
<!-- OrganizationMemberModule&#45;&gt;AppModule -->
<g id="edge30" class="edge">
<title>OrganizationMemberModule&#45;&gt;AppModule</title>
<path fill="none" stroke="#000000" d="M369,-122.2479C369,-145.0179 369,-181 369,-181 369,-181 2794.3043,-181 2794.3043,-181"/>
<polygon fill="#000000" stroke="#000000" points="2794.3043,-184.5001 2804.3043,-181 2794.3043,-177.5001 2794.3043,-184.5001"/>
</g>
<!-- OrganizationModule -->
<g id="node32" class="node">
<title>OrganizationModule</title>
<polygon fill="#8dd3c7" stroke="#000000" points="261.1331,-122 258.1331,-126 237.1331,-126 234.1331,-122 128.8669,-122 128.8669,-86 261.1331,-86 261.1331,-122"/>
<text text-anchor="middle" x="195" y="-99.8" font-family="Times,serif" font-size="14.00" fill="#000000">OrganizationModule</text>
</g>
<!-- OrganizationModule&#45;&gt;AppModule -->
<g id="edge31" class="edge">
<title>OrganizationModule&#45;&gt;AppModule</title>
<path fill="none" stroke="#000000" d="M195,-122.3228C195,-145.6602 195,-183 195,-183 195,-183 2794.0919,-183 2794.0919,-183"/>
<polygon fill="#000000" stroke="#000000" points="2794.0919,-186.5001 2804.0919,-183 2794.0919,-179.5001 2794.0919,-186.5001"/>
</g>
<!-- StaffModule -->
<g id="node33" class="node">
<title>StaffModule</title>
<polygon fill="#8dd3c7" stroke="#000000" points="110.2591,-122 107.2591,-126 86.2591,-126 83.2591,-122 23.7409,-122 23.7409,-86 110.2591,-86 110.2591,-122"/>
<text text-anchor="middle" x="67" y="-99.8" font-family="Times,serif" font-size="14.00" fill="#000000">StaffModule</text>
</g>
<!-- StaffModule&#45;&gt;AppModule -->
<g id="edge32" class="edge">
<title>StaffModule&#45;&gt;AppModule</title>
<path fill="none" stroke="#000000" d="M67,-122.3802C67,-146.2785 67,-185 67,-185 67,-185 2794.2857,-185 2794.2857,-185"/>
<polygon fill="#000000" stroke="#000000" points="2794.2858,-188.5001 2804.2857,-185 2794.2857,-181.5001 2794.2858,-188.5001"/>
</g>
</g>
</svg>
