<?xml version="1.0" encoding="UTF-8" standalone="no"?>
<!DOCTYPE svg PUBLIC "-//W3C//DTD SVG 1.1//EN"
 "http://www.w3.org/Graphics/SVG/1.1/DTD/svg11.dtd">
<!-- Generated by graphviz version 2.40.1 (20161225.0304)
 -->
<!-- Title: dependencies Pages: 1 -->
<svg width="4681pt" height="284pt"
 viewBox="0.00 0.00 4681.00 284.00" xmlns="http://www.w3.org/2000/svg" xmlns:xlink="http://www.w3.org/1999/xlink">
<g id="graph0" class="graph" transform="scale(1 1) rotate(0) translate(4 280)">
<title>dependencies</title>
<polygon fill="#ffffff" stroke="transparent" points="-4,4 -4,-280 4677,-280 4677,4 -4,4"/>
<text text-anchor="start" x="2315.5091" y="-42.4" font-family="sans-serif" font-weight="bold" font-size="14.00" fill="#000000">Legend</text>
<polygon fill="#ffffb3" stroke="transparent" points="2102.5,-10 2102.5,-30 2122.5,-30 2122.5,-10 2102.5,-10"/>
<text text-anchor="start" x="2126.129" y="-15.4" font-family="sans-serif" font-size="14.00" fill="#000000"> &#160;Declarations</text>
<polygon fill="#8dd3c7" stroke="transparent" points="2215.5,-10 2215.5,-30 2235.5,-30 2235.5,-10 2215.5,-10"/>
<text text-anchor="start" x="2239.2251" y="-15.4" font-family="sans-serif" font-size="14.00" fill="#000000"> &#160;Module</text>
<polygon fill="#80b1d3" stroke="transparent" points="2301.5,-10 2301.5,-30 2321.5,-30 2321.5,-10 2301.5,-10"/>
<text text-anchor="start" x="2325.2812" y="-15.4" font-family="sans-serif" font-size="14.00" fill="#000000"> &#160;Bootstrap</text>
<polygon fill="#fdb462" stroke="transparent" points="2398.5,-10 2398.5,-30 2418.5,-30 2418.5,-10 2398.5,-10"/>
<text text-anchor="start" x="2422.1732" y="-15.4" font-family="sans-serif" font-size="14.00" fill="#000000"> &#160;Providers</text>
<polygon fill="#fb8072" stroke="transparent" points="2494.5,-10 2494.5,-30 2514.5,-30 2514.5,-10 2494.5,-10"/>
<text text-anchor="start" x="2518.2258" y="-15.4" font-family="sans-serif" font-size="14.00" fill="#000000"> &#160;Exports</text>
<g id="clust1" class="cluster">
<title>cluster_AppModule</title>
<polygon fill="none" stroke="#000000" stroke-dasharray="1,5" points="8,-70 8,-268 4665,-268 4665,-70 8,-70"/>
</g>
<g id="clust2" class="cluster">
<title>cluster_AppModule_declarations</title>
<polygon fill="none" stroke="#000000" points="1247,-78 1247,-130 4657,-130 4657,-78 1247,-78"/>
</g>
<g id="clust22" class="cluster">
<title>cluster_AppModule_imports</title>
<polygon fill="none" stroke="#000000" points="214,-78 214,-130 1239,-130 1239,-78 214,-78"/>
</g>
<g id="clust24" class="cluster">
<title>cluster_AppModule_bootstrap</title>
<polygon fill="none" stroke="#000000" points="2153,-208 2153,-260 2277,-260 2277,-208 2153,-208"/>
</g>
<g id="clust25" class="cluster">
<title>cluster_AppModule_providers</title>
<polygon fill="none" stroke="#000000" points="16,-78 16,-130 206,-130 206,-78 16,-78"/>
</g>
<!-- AdminDivComponent -->
<g id="node1" class="node">
<title>AdminDivComponent</title>
<polygon fill="#ffffb3" stroke="#000000" points="4648.7176,-122 4507.2824,-122 4507.2824,-86 4648.7176,-86 4648.7176,-122"/>
<text text-anchor="middle" x="4578" y="-99.8" font-family="Times,serif" font-size="14.00" fill="#000000">AdminDivComponent</text>
</g>
<!-- AppModule -->
<g id="node20" class="node">
<title>AppModule</title>
<polygon fill="#8dd3c7" stroke="#000000" points="2256.6571,-187 2253.6571,-191 2232.6571,-191 2229.6571,-187 2173.3429,-187 2173.3429,-151 2256.6571,-151 2256.6571,-187"/>
<text text-anchor="middle" x="2215" y="-164.8" font-family="Times,serif" font-size="14.00" fill="#000000">AppModule</text>
</g>
<!-- AdminDivComponent&#45;&gt;AppModule -->
<g id="edge1" class="edge">
<title>AdminDivComponent&#45;&gt;AppModule</title>
<path fill="none" stroke="#000000" d="M4578,-122.3802C4578,-146.2785 4578,-185 4578,-185 4578,-185 2266.7654,-185 2266.7654,-185"/>
<polygon fill="#000000" stroke="#000000" points="2266.7654,-181.5001 2256.7654,-185 2266.7654,-188.5001 2266.7654,-181.5001"/>
</g>
<!-- AdminHelpComponent -->
<g id="node2" class="node">
<title>AdminHelpComponent</title>
<polygon fill="#ffffb3" stroke="#000000" points="4489.9326,-122 4342.0674,-122 4342.0674,-86 4489.9326,-86 4489.9326,-122"/>
<text text-anchor="middle" x="4416" y="-99.8" font-family="Times,serif" font-size="14.00" fill="#000000">AdminHelpComponent</text>
</g>
<!-- AdminHelpComponent&#45;&gt;AppModule -->
<g id="edge2" class="edge">
<title>AdminHelpComponent&#45;&gt;AppModule</title>
<path fill="none" stroke="#000000" d="M4416,-122.3228C4416,-145.6602 4416,-183 4416,-183 4416,-183 2267.0025,-183 2267.0025,-183"/>
<polygon fill="#000000" stroke="#000000" points="2267.0026,-179.5001 2257.0025,-183 2267.0025,-186.5001 2267.0026,-179.5001"/>
</g>
<!-- AppComponent -->
<g id="node3" class="node">
<title>AppComponent</title>
<polygon fill="#ffffb3" stroke="#000000" points="4324.9399,-122 4219.0601,-122 4219.0601,-86 4324.9399,-86 4324.9399,-122"/>
<text text-anchor="middle" x="4272" y="-99.8" font-family="Times,serif" font-size="14.00" fill="#000000">AppComponent</text>
</g>
<!-- AppComponent&#45;&gt;AppModule -->
<g id="edge3" class="edge">
<title>AppComponent&#45;&gt;AppModule</title>
<path fill="none" stroke="#000000" d="M4272,-122.0109C4272,-144.4852 4272,-180 4272,-180 4272,-180 2267.0215,-180 2267.0215,-180"/>
<polygon fill="#000000" stroke="#000000" points="2267.0215,-176.5001 2257.0215,-180 2267.0214,-183.5001 2267.0215,-176.5001"/>
</g>
<!-- DatabaseHandlerComponent -->
<g id="node4" class="node">
<title>DatabaseHandlerComponent</title>
<polygon fill="#ffffb3" stroke="#000000" points="4200.7198,-122 4023.2802,-122 4023.2802,-86 4200.7198,-86 4200.7198,-122"/>
<text text-anchor="middle" x="4112" y="-99.8" font-family="Times,serif" font-size="14.00" fill="#000000">DatabaseHandlerComponent</text>
</g>
<!-- DatabaseHandlerComponent&#45;&gt;AppModule -->
<g id="edge4" class="edge">
<title>DatabaseHandlerComponent&#45;&gt;AppModule</title>
<path fill="none" stroke="#000000" d="M4112,-122.2921C4112,-144.2057 4112,-178 4112,-178 4112,-178 2266.8324,-178 2266.8324,-178"/>
<polygon fill="#000000" stroke="#000000" points="2266.8324,-174.5001 2256.8324,-178 2266.8324,-181.5001 2266.8324,-174.5001"/>
</g>
<!-- FilterPipe -->
<g id="node5" class="node">
<title>FilterPipe</title>
<ellipse fill="#ffffb3" stroke="#000000" cx="3956" cy="-104" rx="49.2492" ry="18"/>
<text text-anchor="middle" x="3956" y="-99.8" font-family="Times,serif" font-size="14.00" fill="#000000">FilterPipe</text>
</g>
<!-- FilterPipe&#45;&gt;AppModule -->
<g id="edge5" class="edge">
<title>FilterPipe&#45;&gt;AppModule</title>
<path fill="none" stroke="#000000" d="M3972.3748,-121.1871C3972.3748,-142.1998 3972.3748,-175 3972.3748,-175 3972.3748,-175 2266.7076,-175 2266.7076,-175"/>
<polygon fill="#000000" stroke="#000000" points="2266.7077,-171.5001 2256.7076,-175 2266.7076,-178.5001 2266.7077,-171.5001"/>
</g>
<!-- FilterPipe&#45;&gt;AppModule -->
<g id="edge29" class="edge">
<title>FilterPipe&#45;&gt;AppModule</title>
<path fill="none" stroke="#000000" d="M3939.6252,-121.0562C3939.6252,-141.4891 3939.6252,-173 3939.6252,-173 3939.6252,-173 2266.7769,-173 2266.7769,-173"/>
<polygon fill="#000000" stroke="#000000" points="2266.7769,-169.5001 2256.7769,-173 2266.7768,-176.5001 2266.7769,-169.5001"/>
</g>
<!-- MemberHelpComponent -->
<g id="node6" class="node">
<title>MemberHelpComponent</title>
<polygon fill="#ffffb3" stroke="#000000" points="3888.9692,-122 3733.0308,-122 3733.0308,-86 3888.9692,-86 3888.9692,-122"/>
<text text-anchor="middle" x="3811" y="-99.8" font-family="Times,serif" font-size="14.00" fill="#000000">MemberHelpComponent</text>
</g>
<!-- MemberHelpComponent&#45;&gt;AppModule -->
<g id="edge6" class="edge">
<title>MemberHelpComponent&#45;&gt;AppModule</title>
<path fill="none" stroke="#000000" d="M3811,-122.308C3811,-142.1455 3811,-171 3811,-171 3811,-171 2266.8688,-171 2266.8688,-171"/>
<polygon fill="#000000" stroke="#000000" points="2266.8688,-167.5001 2256.8688,-171 2266.8687,-174.5001 2266.8688,-167.5001"/>
</g>
<!-- MemberSubmitSampleComponent -->
<g id="node7" class="node">
<title>MemberSubmitSampleComponent</title>
<polygon fill="#ffffb3" stroke="#000000" points="3714.7049,-122 3503.2951,-122 3503.2951,-86 3714.7049,-86 3714.7049,-122"/>
<text text-anchor="middle" x="3609" y="-99.8" font-family="Times,serif" font-size="14.00" fill="#000000">MemberSubmitSampleComponent</text>
</g>
<!-- MemberSubmitSampleComponent&#45;&gt;AppModule -->
<g id="edge7" class="edge">
<title>MemberSubmitSampleComponent&#45;&gt;AppModule</title>
<path fill="none" stroke="#000000" d="M3609,-122.1686C3609,-141.0898 3609,-168 3609,-168 3609,-168 2266.7197,-168 2266.7197,-168"/>
<polygon fill="#000000" stroke="#000000" points="2266.7197,-164.5001 2256.7197,-168 2266.7196,-171.5001 2266.7197,-164.5001"/>
</g>
<!-- NotificationDivComponent -->
<g id="node8" class="node">
<title>NotificationDivComponent</title>
<polygon fill="#ffffb3" stroke="#000000" points="3484.979,-122 3315.021,-122 3315.021,-86 3484.979,-86 3484.979,-122"/>
<text text-anchor="middle" x="3400" y="-99.8" font-family="Times,serif" font-size="14.00" fill="#000000">NotificationDivComponent</text>
</g>
<!-- NotificationDivComponent&#45;&gt;AppModule -->
<g id="edge8" class="edge">
<title>NotificationDivComponent&#45;&gt;AppModule</title>
<path fill="none" stroke="#000000" d="M3400,-122.2667C3400,-140.5552 3400,-166 3400,-166 3400,-166 2266.8267,-166 2266.8267,-166"/>
<polygon fill="#000000" stroke="#000000" points="2266.8267,-162.5001 2256.8267,-166 2266.8267,-169.5001 2266.8267,-162.5001"/>
</g>
<!-- OrganizationHelpComponent -->
<g id="node9" class="node">
<title>OrganizationHelpComponent</title>
<polygon fill="#ffffb3" stroke="#000000" points="3296.6274,-122 3115.3726,-122 3115.3726,-86 3296.6274,-86 3296.6274,-122"/>
<text text-anchor="middle" x="3206" y="-99.8" font-family="Times,serif" font-size="14.00" fill="#000000">OrganizationHelpComponent</text>
</g>
<!-- OrganizationHelpComponent&#45;&gt;AppModule -->
<g id="edge9" class="edge">
<title>OrganizationHelpComponent&#45;&gt;AppModule</title>
<path fill="none" stroke="#000000" d="M3206,-122.0225C3206,-139.3734 3206,-163 3206,-163 3206,-163 2266.9491,-163 2266.9491,-163"/>
<polygon fill="#000000" stroke="#000000" points="2266.9491,-159.5001 2256.9491,-163 2266.949,-166.5001 2266.9491,-159.5001"/>
</g>
<!-- OrganizationMenuComponent -->
<g id="node10" class="node">
<title>OrganizationMenuComponent</title>
<polygon fill="#ffffb3" stroke="#000000" points="3097.5744,-122 2910.4256,-122 2910.4256,-86 3097.5744,-86 3097.5744,-122"/>
<text text-anchor="middle" x="3004" y="-99.8" font-family="Times,serif" font-size="14.00" fill="#000000">OrganizationMenuComponent</text>
</g>
<!-- OrganizationMenuComponent&#45;&gt;AppModule -->
<g id="edge10" class="edge">
<title>OrganizationMenuComponent&#45;&gt;AppModule</title>
<path fill="none" stroke="#000000" d="M3004,-122.0352C3004,-138.7344 3004,-161 3004,-161 3004,-161 2266.863,-161 2266.863,-161"/>
<polygon fill="#000000" stroke="#000000" points="2266.863,-157.5001 2256.863,-161 2266.863,-164.5001 2266.863,-157.5001"/>
</g>
<!-- OrganizationSubmitSampleComponent -->
<g id="node11" class="node">
<title>OrganizationSubmitSampleComponent</title>
<polygon fill="#ffffb3" stroke="#000000" points="2892.3626,-122 2655.6374,-122 2655.6374,-86 2892.3626,-86 2892.3626,-122"/>
<text text-anchor="middle" x="2774" y="-99.8" font-family="Times,serif" font-size="14.00" fill="#000000">OrganizationSubmitSampleComponent</text>
</g>
<!-- OrganizationSubmitSampleComponent&#45;&gt;AppModule -->
<g id="edge11" class="edge">
<title>OrganizationSubmitSampleComponent&#45;&gt;AppModule</title>
<path fill="none" stroke="#000000" d="M2774,-122.0091C2774,-138.0494 2774,-159 2774,-159 2774,-159 2267.0159,-159 2267.0159,-159"/>
<polygon fill="#000000" stroke="#000000" points="2267.0159,-155.5001 2257.0159,-159 2267.0158,-162.5001 2267.0159,-155.5001"/>
</g>
<!-- PageNotFoundComponent -->
<g id="node12" class="node">
<title>PageNotFoundComponent</title>
<polygon fill="#ffffb3" stroke="#000000" points="2637.8243,-122 2472.1757,-122 2472.1757,-86 2637.8243,-86 2637.8243,-122"/>
<text text-anchor="middle" x="2555" y="-99.8" font-family="Times,serif" font-size="14.00" fill="#000000">PageNotFoundComponent</text>
</g>
<!-- PageNotFoundComponent&#45;&gt;AppModule -->
<g id="edge12" class="edge">
<title>PageNotFoundComponent&#45;&gt;AppModule</title>
<path fill="none" stroke="#000000" d="M2555,-122.1871C2555,-137.1824 2555,-156 2555,-156 2555,-156 2266.6907,-156 2266.6907,-156"/>
<polygon fill="#000000" stroke="#000000" points="2266.6907,-152.5001 2256.6907,-156 2266.6906,-159.5001 2266.6907,-152.5001"/>
</g>
<!-- SampleDivComponent -->
<g id="node13" class="node">
<title>SampleDivComponent</title>
<polygon fill="#ffffb3" stroke="#000000" points="2454.323,-122 2309.677,-122 2309.677,-86 2454.323,-86 2454.323,-122"/>
<text text-anchor="middle" x="2382" y="-99.8" font-family="Times,serif" font-size="14.00" fill="#000000">SampleDivComponent</text>
</g>
<!-- SampleDivComponent&#45;&gt;AppModule -->
<g id="edge13" class="edge">
<title>SampleDivComponent&#45;&gt;AppModule</title>
<path fill="none" stroke="#000000" d="M2382,-122.0511C2382,-136.373 2382,-154 2382,-154 2382,-154 2266.7104,-154 2266.7104,-154"/>
<polygon fill="#000000" stroke="#000000" points="2266.7104,-150.5001 2256.7104,-154 2266.7103,-157.5001 2266.7104,-150.5001"/>
</g>
<!-- SampleFormComponent -->
<g id="node14" class="node">
<title>SampleFormComponent</title>
<polygon fill="#ffffb3" stroke="#000000" points="2291.6596,-122 2138.3404,-122 2138.3404,-86 2291.6596,-86 2291.6596,-122"/>
<text text-anchor="middle" x="2215" y="-99.8" font-family="Times,serif" font-size="14.00" fill="#000000">SampleFormComponent</text>
</g>
<!-- SampleFormComponent&#45;&gt;AppModule -->
<g id="edge14" class="edge">
<title>SampleFormComponent&#45;&gt;AppModule</title>
<path fill="none" stroke="#000000" d="M2215,-122.1061C2215,-122.1061 2215,-140.991 2215,-140.991"/>
<polygon fill="#000000" stroke="#000000" points="2211.5001,-140.9909 2215,-150.991 2218.5001,-140.991 2211.5001,-140.9909"/>
</g>
<!-- StaffDivComponent -->
<g id="node15" class="node">
<title>StaffDivComponent</title>
<polygon fill="#ffffb3" stroke="#000000" points="2119.5394,-122 1990.4606,-122 1990.4606,-86 2119.5394,-86 2119.5394,-122"/>
<text text-anchor="middle" x="2055" y="-99.8" font-family="Times,serif" font-size="14.00" fill="#000000">StaffDivComponent</text>
</g>
<!-- StaffDivComponent&#45;&gt;AppModule -->
<g id="edge15" class="edge">
<title>StaffDivComponent&#45;&gt;AppModule</title>
<path fill="none" stroke="#000000" d="M2055,-122.0511C2055,-136.373 2055,-154 2055,-154 2055,-154 2162.9619,-154 2162.9619,-154"/>
<polygon fill="#000000" stroke="#000000" points="2162.9619,-157.5001 2172.9619,-154 2162.9618,-150.5001 2162.9619,-157.5001"/>
</g>
<!-- StaffHelpComponent -->
<g id="node16" class="node">
<title>StaffHelpComponent</title>
<polygon fill="#ffffb3" stroke="#000000" points="1971.7534,-122 1836.2466,-122 1836.2466,-86 1971.7534,-86 1971.7534,-122"/>
<text text-anchor="middle" x="1904" y="-99.8" font-family="Times,serif" font-size="14.00" fill="#000000">StaffHelpComponent</text>
</g>
<!-- StaffHelpComponent&#45;&gt;AppModule -->
<g id="edge16" class="edge">
<title>StaffHelpComponent&#45;&gt;AppModule</title>
<path fill="none" stroke="#000000" d="M1904,-122.1871C1904,-137.1824 1904,-156 1904,-156 1904,-156 2163.0572,-156 2163.0572,-156"/>
<polygon fill="#000000" stroke="#000000" points="2163.0572,-159.5001 2173.0572,-156 2163.0571,-152.5001 2163.0572,-159.5001"/>
</g>
<!-- StaffMenuComponent -->
<g id="node17" class="node">
<title>StaffMenuComponent</title>
<polygon fill="#ffffb3" stroke="#000000" points="1818.7007,-122 1677.2993,-122 1677.2993,-86 1818.7007,-86 1818.7007,-122"/>
<text text-anchor="middle" x="1748" y="-99.8" font-family="Times,serif" font-size="14.00" fill="#000000">StaffMenuComponent</text>
</g>
<!-- StaffMenuComponent&#45;&gt;AppModule -->
<g id="edge17" class="edge">
<title>StaffMenuComponent&#45;&gt;AppModule</title>
<path fill="none" stroke="#000000" d="M1748,-122.0091C1748,-138.0494 1748,-159 1748,-159 1748,-159 2163.1459,-159 2163.1459,-159"/>
<polygon fill="#000000" stroke="#000000" points="2163.1459,-162.5001 2173.1459,-159 2163.1458,-155.5001 2163.1459,-162.5001"/>
</g>
<!-- StaffSubmitSampleComponent -->
<g id="node18" class="node">
<title>StaffSubmitSampleComponent</title>
<polygon fill="#ffffb3" stroke="#000000" points="1659.4888,-122 1468.5112,-122 1468.5112,-86 1659.4888,-86 1659.4888,-122"/>
<text text-anchor="middle" x="1564" y="-99.8" font-family="Times,serif" font-size="14.00" fill="#000000">StaffSubmitSampleComponent</text>
</g>
<!-- StaffSubmitSampleComponent&#45;&gt;AppModule -->
<g id="edge18" class="edge">
<title>StaffSubmitSampleComponent&#45;&gt;AppModule</title>
<path fill="none" stroke="#000000" d="M1564,-122.0352C1564,-138.7344 1564,-161 1564,-161 1564,-161 2163.2867,-161 2163.2867,-161"/>
<polygon fill="#000000" stroke="#000000" points="2163.2867,-164.5001 2173.2867,-161 2163.2867,-157.5001 2163.2867,-164.5001"/>
</g>
<!-- StaffViewDatabasesComponent -->
<g id="node19" class="node">
<title>StaffViewDatabasesComponent</title>
<polygon fill="#ffffb3" stroke="#000000" points="1450.605,-122 1255.395,-122 1255.395,-86 1450.605,-86 1450.605,-122"/>
<text text-anchor="middle" x="1353" y="-99.8" font-family="Times,serif" font-size="14.00" fill="#000000">StaffViewDatabasesComponent</text>
</g>
<!-- StaffViewDatabasesComponent&#45;&gt;AppModule -->
<g id="edge19" class="edge">
<title>StaffViewDatabasesComponent&#45;&gt;AppModule</title>
<path fill="none" stroke="#000000" d="M1353,-122.0225C1353,-139.3734 1353,-163 1353,-163 1353,-163 2163.1326,-163 2163.1326,-163"/>
<polygon fill="#000000" stroke="#000000" points="2163.1327,-166.5001 2173.1326,-163 2163.1326,-159.5001 2163.1327,-166.5001"/>
</g>
<!-- AppComponent  -->
<g id="node29" class="node">
<title>AppComponent </title>
<polygon fill="#80b1d3" stroke="#000000" points="2269.439,-252 2160.561,-252 2160.561,-216 2269.439,-216 2269.439,-252"/>
<text text-anchor="middle" x="2215" y="-229.8" font-family="Times,serif" font-size="14.00" fill="#000000">AppComponent </text>
</g>
<!-- AppModule&#45;&gt;AppComponent  -->
<g id="edge28" class="edge">
<title>AppModule&#45;&gt;AppComponent </title>
<path fill="none" stroke="#000000" stroke-dasharray="1,5" d="M2215,-187.1061C2215,-187.1061 2215,-205.991 2215,-205.991"/>
<polygon fill="#000000" stroke="#000000" points="2211.5001,-205.9909 2215,-215.991 2218.5001,-205.991 2211.5001,-205.9909"/>
</g>
<!-- AdminModule -->
<g id="node21" class="node">
<title>AdminModule</title>
<polygon fill="#8dd3c7" stroke="#000000" points="1231.4386,-122 1228.4386,-126 1207.4386,-126 1204.4386,-122 1132.5614,-122 1132.5614,-86 1231.4386,-86 1231.4386,-122"/>
<text text-anchor="middle" x="1182" y="-99.8" font-family="Times,serif" font-size="14.00" fill="#000000">AdminModule</text>
</g>
<!-- AdminModule&#45;&gt;AppModule -->
<g id="edge20" class="edge">
<title>AdminModule&#45;&gt;AppModule</title>
<path fill="none" stroke="#000000" d="M1182,-122.2667C1182,-140.5552 1182,-166 1182,-166 1182,-166 2163.2258,-166 2163.2258,-166"/>
<polygon fill="#000000" stroke="#000000" points="2163.2258,-169.5001 2173.2258,-166 2163.2257,-162.5001 2163.2258,-169.5001"/>
</g>
<!-- AppRoutingModule -->
<g id="node22" class="node">
<title>AppRoutingModule</title>
<polygon fill="#8dd3c7" stroke="#000000" points="1114.2744,-122 1111.2744,-126 1090.2744,-126 1087.2744,-122 985.7256,-122 985.7256,-86 1114.2744,-86 1114.2744,-122"/>
<text text-anchor="middle" x="1050" y="-99.8" font-family="Times,serif" font-size="14.00" fill="#000000">AppRoutingModule</text>
</g>
<!-- AppRoutingModule&#45;&gt;AppModule -->
<g id="edge21" class="edge">
<title>AppRoutingModule&#45;&gt;AppModule</title>
<path fill="none" stroke="#000000" d="M1050,-122.1686C1050,-141.0898 1050,-168 1050,-168 1050,-168 2163.1935,-168 2163.1935,-168"/>
<polygon fill="#000000" stroke="#000000" points="2163.1936,-171.5001 2173.1935,-168 2163.1935,-164.5001 2163.1936,-171.5001"/>
</g>
<!-- ErrorsModule -->
<g id="node23" class="node">
<title>ErrorsModule</title>
<polygon fill="#8dd3c7" stroke="#000000" points="967.03,-122 964.03,-126 943.03,-126 940.03,-122 872.97,-122 872.97,-86 967.03,-86 967.03,-122"/>
<text text-anchor="middle" x="920" y="-99.8" font-family="Times,serif" font-size="14.00" fill="#000000">ErrorsModule</text>
</g>
<!-- ErrorsModule&#45;&gt;AppModule -->
<g id="edge22" class="edge">
<title>ErrorsModule&#45;&gt;AppModule</title>
<path fill="none" stroke="#000000" d="M920,-122.308C920,-142.1455 920,-171 920,-171 920,-171 2163.0152,-171 2163.0152,-171"/>
<polygon fill="#000000" stroke="#000000" points="2163.0153,-174.5001 2173.0152,-171 2163.0152,-167.5001 2163.0153,-174.5001"/>
</g>
<!-- MaterialModule -->
<g id="node24" class="node">
<title>MaterialModule</title>
<polygon fill="#8dd3c7" stroke="#000000" points="854.4706,-122 851.4706,-126 830.4706,-126 827.4706,-122 747.5294,-122 747.5294,-86 854.4706,-86 854.4706,-122"/>
<text text-anchor="middle" x="801" y="-99.8" font-family="Times,serif" font-size="14.00" fill="#000000">MaterialModule</text>
</g>
<!-- MaterialModule&#45;&gt;AppModule -->
<g id="edge23" class="edge">
<title>MaterialModule&#45;&gt;AppModule</title>
<path fill="none" stroke="#000000" d="M801,-122.1289C801,-142.5724 801,-173 801,-173 801,-173 2163.0654,-173 2163.0654,-173"/>
<polygon fill="#000000" stroke="#000000" points="2163.0655,-176.5001 2173.0654,-173 2163.0654,-169.5001 2163.0655,-176.5001"/>
</g>
<!-- OrganizationMemberModule -->
<g id="node25" class="node">
<title>OrganizationMemberModule</title>
<polygon fill="#8dd3c7" stroke="#000000" points="729.0576,-122 726.0576,-126 705.0576,-126 702.0576,-122 548.9424,-122 548.9424,-86 729.0576,-86 729.0576,-122"/>
<text text-anchor="middle" x="639" y="-99.8" font-family="Times,serif" font-size="14.00" fill="#000000">OrganizationMemberModule</text>
</g>
<!-- OrganizationMemberModule&#45;&gt;AppModule -->
<g id="edge24" class="edge">
<title>OrganizationMemberModule&#45;&gt;AppModule</title>
<path fill="none" stroke="#000000" d="M639,-122.2843C639,-143.3211 639,-175 639,-175 639,-175 2163.2518,-175 2163.2518,-175"/>
<polygon fill="#000000" stroke="#000000" points="2163.2518,-178.5001 2173.2518,-175 2163.2517,-171.5001 2163.2518,-178.5001"/>
</g>
<!-- OrganizationModule -->
<g id="node26" class="node">
<title>OrganizationModule</title>
<polygon fill="#8dd3c7" stroke="#000000" points="531.1331,-122 528.1331,-126 507.1331,-126 504.1331,-122 398.8669,-122 398.8669,-86 531.1331,-86 531.1331,-122"/>
<text text-anchor="middle" x="465" y="-99.8" font-family="Times,serif" font-size="14.00" fill="#000000">OrganizationModule</text>
</g>
<!-- OrganizationModule&#45;&gt;AppModule -->
<g id="edge25" class="edge">
<title>OrganizationModule&#45;&gt;AppModule</title>
<path fill="none" stroke="#000000" d="M465,-122.2921C465,-144.2057 465,-178 465,-178 465,-178 2163.0389,-178 2163.0389,-178"/>
<polygon fill="#000000" stroke="#000000" points="2163.039,-181.5001 2173.0389,-178 2163.0389,-174.5001 2163.039,-181.5001"/>
</g>
<!-- StaffModule -->
<g id="node27" class="node">
<title>StaffModule</title>
<polygon fill="#8dd3c7" stroke="#000000" points="380.2591,-122 377.2591,-126 356.2591,-126 353.2591,-122 293.7409,-122 293.7409,-86 380.2591,-86 380.2591,-122"/>
<text text-anchor="middle" x="337" y="-99.8" font-family="Times,serif" font-size="14.00" fill="#000000">StaffModule</text>
</g>
<!-- StaffModule&#45;&gt;AppModule -->
<g id="edge26" class="edge">
<title>StaffModule&#45;&gt;AppModule</title>
<path fill="none" stroke="#000000" d="M337,-122.0109C337,-144.4852 337,-180 337,-180 337,-180 2163.1422,-180 2163.1422,-180"/>
<polygon fill="#000000" stroke="#000000" points="2163.1422,-183.5001 2173.1422,-180 2163.1422,-176.5001 2163.1422,-183.5001"/>
</g>
<!-- core -->
<g id="node28" class="node">
<title>core</title>
<polygon fill="#8dd3c7" stroke="#000000" points="276,-122 273,-126 252,-126 249,-122 222,-122 222,-86 276,-86 276,-122"/>
<text text-anchor="middle" x="249" y="-99.8" font-family="Times,serif" font-size="14.00" fill="#000000">core</text>
</g>
<!-- core&#45;&gt;AppModule -->
<g id="edge27" class="edge">
<title>core&#45;&gt;AppModule</title>
<path fill="none" stroke="#000000" d="M249,-122.3228C249,-145.6602 249,-183 249,-183 249,-183 2163.0278,-183 2163.0278,-183"/>
<polygon fill="#000000" stroke="#000000" points="2163.0278,-186.5001 2173.0278,-183 2163.0277,-179.5001 2163.0278,-186.5001"/>
</g>
<!-- NotificationService -->
<g id="node30" class="node">
<title>NotificationService</title>
<ellipse fill="#fdb462" stroke="#000000" cx="111" cy="-104" rx="86.8107" ry="18"/>
<text text-anchor="middle" x="111" y="-99.8" font-family="Times,serif" font-size="14.00" fill="#000000">NotificationService</text>
</g>
<!-- NotificationService&#45;&gt;AppModule -->
<g id="edge30" class="edge">
<title>NotificationService&#45;&gt;AppModule</title>
<path fill="none" stroke="#000000" d="M111,-122.3802C111,-146.2785 111,-185 111,-185 111,-185 2162.9718,-185 2162.9718,-185"/>
<polygon fill="#000000" stroke="#000000" points="2162.9718,-188.5001 2172.9718,-185 2162.9718,-181.5001 2162.9718,-188.5001"/>
</g>
</g>
</svg>
