<?xml version="1.0" encoding="UTF-8" standalone="no"?>
<!DOCTYPE svg PUBLIC "-//W3C//DTD SVG 1.1//EN"
 "http://www.w3.org/Graphics/SVG/1.1/DTD/svg11.dtd">
<!-- Generated by graphviz version 2.40.1 (20161225.0304)
 -->
<!-- Title: dependencies Pages: 1 -->
<svg width="504pt" height="211pt"
 viewBox="0.00 0.00 504.00 211.00" xmlns="http://www.w3.org/2000/svg" xmlns:xlink="http://www.w3.org/1999/xlink">
<g id="graph0" class="graph" transform="scale(1 1) rotate(0) translate(4 207)">
<title>dependencies</title>
<polygon fill="#ffffff" stroke="transparent" points="-4,4 -4,-207 500,-207 500,4 -4,4"/>
<text text-anchor="start" x="227.0091" y="-42.4" font-family="sans-serif" font-weight="bold" font-size="14.00" fill="#000000">Legend</text>
<polygon fill="#ffffb3" stroke="transparent" points="14,-10 14,-30 34,-30 34,-10 14,-10"/>
<text text-anchor="start" x="37.629" y="-15.4" font-family="sans-serif" font-size="14.00" fill="#000000"> &#160;Declarations</text>
<polygon fill="#8dd3c7" stroke="transparent" points="127,-10 127,-30 147,-30 147,-10 127,-10"/>
<text text-anchor="start" x="150.7251" y="-15.4" font-family="sans-serif" font-size="14.00" fill="#000000"> &#160;Module</text>
<polygon fill="#80b1d3" stroke="transparent" points="213,-10 213,-30 233,-30 233,-10 213,-10"/>
<text text-anchor="start" x="236.7812" y="-15.4" font-family="sans-serif" font-size="14.00" fill="#000000"> &#160;Bootstrap</text>
<polygon fill="#fdb462" stroke="transparent" points="310,-10 310,-30 330,-30 330,-10 310,-10"/>
<text text-anchor="start" x="333.6732" y="-15.4" font-family="sans-serif" font-size="14.00" fill="#000000"> &#160;Providers</text>
<polygon fill="#fb8072" stroke="transparent" points="406,-10 406,-30 426,-30 426,-10 406,-10"/>
<text text-anchor="start" x="429.7258" y="-15.4" font-family="sans-serif" font-size="14.00" fill="#000000"> &#160;Exports</text>
<g id="clust1" class="cluster">
<title>cluster_ErrorsModule</title>
<polygon fill="none" stroke="#000000" stroke-dasharray="1,5" points="112,-70 112,-195 384,-195 384,-70 112,-70"/>
</g>
<g id="clust2" class="cluster">
<title>cluster_ErrorsModule_declarations</title>
<polygon fill="none" stroke="#000000" points="250,-78 250,-130 376,-130 376,-78 250,-78"/>
</g>
<g id="clust4" class="cluster">
<title>cluster_ErrorsModule_imports</title>
<polygon fill="none" stroke="#000000" points="120,-78 120,-130 242,-130 242,-78 120,-78"/>
</g>
<!-- ErrorComponent -->
<g id="node1" class="node">
<title>ErrorComponent</title>
<polygon fill="#ffffb3" stroke="#000000" points="368.3669,-122 257.6331,-122 257.6331,-86 368.3669,-86 368.3669,-122"/>
<text text-anchor="middle" x="313" y="-99.8" font-family="Times,serif" font-size="14.00" fill="#000000">ErrorComponent</text>
</g>
<!-- ErrorsModule -->
<g id="node2" class="node">
<title>ErrorsModule</title>
<polygon fill="#8dd3c7" stroke="#000000" points="294.03,-187 291.03,-191 270.03,-191 267.03,-187 199.97,-187 199.97,-151 294.03,-151 294.03,-187"/>
<text text-anchor="middle" x="247" y="-164.8" font-family="Times,serif" font-size="14.00" fill="#000000">ErrorsModule</text>
</g>
<!-- ErrorComponent&#45;&gt;ErrorsModule -->
<g id="edge1" class="edge">
<title>ErrorComponent&#45;&gt;ErrorsModule</title>
<path fill="none" stroke="#000000" d="M275.9155,-122.1061C275.9155,-122.1061 275.9155,-140.991 275.9155,-140.991"/>
<polygon fill="#000000" stroke="#000000" points="272.4156,-140.9909 275.9155,-150.991 279.4156,-140.991 272.4156,-140.9909"/>
</g>
<!-- MaterialModule -->
<g id="node3" class="node">
<title>MaterialModule</title>
<polygon fill="#8dd3c7" stroke="#000000" points="234.4706,-122 231.4706,-126 210.4706,-126 207.4706,-122 127.5294,-122 127.5294,-86 234.4706,-86 234.4706,-122"/>
<text text-anchor="middle" x="181" y="-99.8" font-family="Times,serif" font-size="14.00" fill="#000000">MaterialModule</text>
</g>
<!-- MaterialModule&#45;&gt;ErrorsModule -->
<g id="edge2" class="edge">
<title>MaterialModule&#45;&gt;ErrorsModule</title>
<path fill="none" stroke="#000000" d="M217.1105,-122.1061C217.1105,-122.1061 217.1105,-140.991 217.1105,-140.991"/>
<polygon fill="#000000" stroke="#000000" points="213.6105,-140.9909 217.1105,-150.991 220.6105,-140.991 213.6105,-140.9909"/>
</g>
</g>
</svg>
