<?xml version="1.0" encoding="UTF-8" standalone="no"?>
<!DOCTYPE svg PUBLIC "-//W3C//DTD SVG 1.1//EN"
 "http://www.w3.org/Graphics/SVG/1.1/DTD/svg11.dtd">
<!-- Generated by graphviz version 2.40.1 (20161225.0304)
 -->
<!-- Title: dependencies Pages: 1 -->
<svg width="504pt" height="211pt"
 viewBox="0.00 0.00 504.00 211.00" xmlns="http://www.w3.org/2000/svg" xmlns:xlink="http://www.w3.org/1999/xlink">
<g id="graph0" class="graph" transform="scale(1 1) rotate(0) translate(4 207)">
<title>dependencies</title>
<polygon fill="#ffffff" stroke="transparent" points="-4,4 -4,-207 500,-207 500,4 -4,4"/>
<text text-anchor="start" x="227.0091" y="-42.4" font-family="sans-serif" font-weight="bold" font-size="14.00" fill="#000000">Legend</text>
<polygon fill="#ffffb3" stroke="transparent" points="14,-10 14,-30 34,-30 34,-10 14,-10"/>
<text text-anchor="start" x="37.629" y="-15.4" font-family="sans-serif" font-size="14.00" fill="#000000"> &#160;Declarations</text>
<polygon fill="#8dd3c7" stroke="transparent" points="127,-10 127,-30 147,-30 147,-10 127,-10"/>
<text text-anchor="start" x="150.7251" y="-15.4" font-family="sans-serif" font-size="14.00" fill="#000000"> &#160;Module</text>
<polygon fill="#80b1d3" stroke="transparent" points="213,-10 213,-30 233,-30 233,-10 213,-10"/>
<text text-anchor="start" x="236.7812" y="-15.4" font-family="sans-serif" font-size="14.00" fill="#000000"> &#160;Bootstrap</text>
<polygon fill="#fdb462" stroke="transparent" points="310,-10 310,-30 330,-30 330,-10 310,-10"/>
<text text-anchor="start" x="333.6732" y="-15.4" font-family="sans-serif" font-size="14.00" fill="#000000"> &#160;Providers</text>
<polygon fill="#fb8072" stroke="transparent" points="406,-10 406,-30 426,-30 426,-10 406,-10"/>
<text text-anchor="start" x="429.7258" y="-15.4" font-family="sans-serif" font-size="14.00" fill="#000000"> &#160;Exports</text>
<g id="clust1" class="cluster">
<title>cluster_OrganizationMemberModule</title>
<polygon fill="none" stroke="#000000" stroke-dasharray="1,5" points="105.5,-70 105.5,-195 390.5,-195 390.5,-70 105.5,-70"/>
</g>
<g id="clust3" class="cluster">
<title>cluster_OrganizationMemberModule_imports</title>
<polygon fill="none" stroke="#000000" points="113.5,-78 113.5,-130 382.5,-130 382.5,-78 113.5,-78"/>
</g>
<!-- AppRoutingModule -->
<g id="node1" class="node">
<title>AppRoutingModule</title>
<polygon fill="#8dd3c7" stroke="#000000" points="374.7744,-122 371.7744,-126 350.7744,-126 347.7744,-122 246.2256,-122 246.2256,-86 374.7744,-86 374.7744,-122"/>
<text text-anchor="middle" x="310.5" y="-99.8" font-family="Times,serif" font-size="14.00" fill="#000000">AppRoutingModule</text>
</g>
<!-- OrganizationMemberModule -->
<g id="node3" class="node">
<title>OrganizationMemberModule</title>
<polygon fill="#8dd3c7" stroke="#000000" points="337.5576,-187 334.5576,-191 313.5576,-191 310.5576,-187 157.4424,-187 157.4424,-151 337.5576,-151 337.5576,-187"/>
<text text-anchor="middle" x="247.5" y="-164.8" font-family="Times,serif" font-size="14.00" fill="#000000">OrganizationMemberModule</text>
</g>
<!-- AppRoutingModule&#45;&gt;OrganizationMemberModule -->
<g id="edge1" class="edge">
<title>AppRoutingModule&#45;&gt;OrganizationMemberModule</title>
<path fill="none" stroke="#000000" d="M291.8209,-122.1061C291.8209,-122.1061 291.8209,-140.991 291.8209,-140.991"/>
<polygon fill="#000000" stroke="#000000" points="288.3209,-140.9909 291.8209,-150.991 295.3209,-140.991 288.3209,-140.9909"/>
</g>
<!-- MaterialModule -->
<g id="node2" class="node">
<title>MaterialModule</title>
<polygon fill="#8dd3c7" stroke="#000000" points="227.9706,-122 224.9706,-126 203.9706,-126 200.9706,-122 121.0294,-122 121.0294,-86 227.9706,-86 227.9706,-122"/>
<text text-anchor="middle" x="174.5" y="-99.8" font-family="Times,serif" font-size="14.00" fill="#000000">MaterialModule</text>
</g>
<!-- MaterialModule&#45;&gt;OrganizationMemberModule -->
<g id="edge2" class="edge">
<title>MaterialModule&#45;&gt;OrganizationMemberModule</title>
<path fill="none" stroke="#000000" d="M192.7283,-122.1061C192.7283,-122.1061 192.7283,-140.991 192.7283,-140.991"/>
<polygon fill="#000000" stroke="#000000" points="189.2283,-140.9909 192.7283,-150.991 196.2283,-140.991 189.2283,-140.9909"/>
</g>
</g>
</svg>
