<?xml version="1.0" encoding="UTF-8" standalone="no"?>
<!DOCTYPE svg PUBLIC "-//W3C//DTD SVG 1.1//EN"
 "http://www.w3.org/Graphics/SVG/1.1/DTD/svg11.dtd">
<!-- Generated by graphviz version 2.40.1 (20161225.0304)
 -->
<!-- Title: dependencies Pages: 1 -->
<svg width="7942pt" height="428pt"
 viewBox="0.00 0.00 7942.00 428.00" xmlns="http://www.w3.org/2000/svg" xmlns:xlink="http://www.w3.org/1999/xlink">
<g id="graph0" class="graph" transform="scale(1 1) rotate(0) translate(4 424)">
<title>dependencies</title>
<polygon fill="#ffffff" stroke="transparent" points="-4,4 -4,-424 7938,-424 7938,4 -4,4"/>
<text text-anchor="start" x="3946.0091" y="-42.4" font-family="sans-serif" font-weight="bold" font-size="14.00" fill="#000000">Legend</text>
<polygon fill="#ffffb3" stroke="transparent" points="3733,-10 3733,-30 3753,-30 3753,-10 3733,-10"/>
<text text-anchor="start" x="3756.629" y="-15.4" font-family="sans-serif" font-size="14.00" fill="#000000"> &#160;Declarations</text>
<polygon fill="#8dd3c7" stroke="transparent" points="3846,-10 3846,-30 3866,-30 3866,-10 3846,-10"/>
<text text-anchor="start" x="3869.7251" y="-15.4" font-family="sans-serif" font-size="14.00" fill="#000000"> &#160;Module</text>
<polygon fill="#80b1d3" stroke="transparent" points="3932,-10 3932,-30 3952,-30 3952,-10 3932,-10"/>
<text text-anchor="start" x="3955.7812" y="-15.4" font-family="sans-serif" font-size="14.00" fill="#000000"> &#160;Bootstrap</text>
<polygon fill="#fdb462" stroke="transparent" points="4029,-10 4029,-30 4049,-30 4049,-10 4029,-10"/>
<text text-anchor="start" x="4052.6732" y="-15.4" font-family="sans-serif" font-size="14.00" fill="#000000"> &#160;Providers</text>
<polygon fill="#fb8072" stroke="transparent" points="4125,-10 4125,-30 4145,-30 4145,-10 4125,-10"/>
<text text-anchor="start" x="4148.7258" y="-15.4" font-family="sans-serif" font-size="14.00" fill="#000000"> &#160;Exports</text>
<g id="clust1" class="cluster">
<title>cluster_AdminModule</title>
<polygon fill="none" stroke="#000000" stroke-dasharray="1,5" points="8,-146 8,-274 184,-274 184,-146 8,-146"/>
</g>
<g id="clust3" class="cluster">
<title>cluster_AdminModule_imports</title>
<polygon fill="none" stroke="#000000" points="16,-154 16,-206 176,-206 176,-154 16,-154"/>
</g>
<g id="clust13" class="cluster">
<title>cluster_AppModule</title>
<polygon fill="none" stroke="#000000" stroke-dasharray="1,5" points="192,-146 192,-412 7510,-412 7510,-146 192,-146"/>
</g>
<g id="clust14" class="cluster">
<title>cluster_AppModule_declarations</title>
<polygon fill="none" stroke="#000000" points="931,-222 931,-274 7502,-274 7502,-222 931,-222"/>
</g>
<g id="clust50" class="cluster">
<title>cluster_AppModule_imports</title>
<polygon fill="none" stroke="#000000" points="398,-154 398,-274 923,-274 923,-154 398,-154"/>
</g>
<g id="clust52" class="cluster">
<title>cluster_AppModule_bootstrap</title>
<polygon fill="none" stroke="#000000" points="3468,-352 3468,-404 3592,-404 3592,-352 3468,-352"/>
</g>
<g id="clust53" class="cluster">
<title>cluster_AppModule_providers</title>
<polygon fill="none" stroke="#000000" points="200,-222 200,-274 390,-274 390,-222 200,-222"/>
</g>
<g id="clust60" class="cluster">
<title>cluster_ErrorsModule</title>
<polygon fill="none" stroke="#000000" stroke-dasharray="1,5" points="7518,-146 7518,-214 7660,-214 7660,-146 7518,-146"/>
</g>
<g id="clust61" class="cluster">
<title>cluster_ErrorsModule_declarations</title>
<polygon fill="none" stroke="#000000" points="7526,-154 7526,-206 7652,-206 7652,-154 7526,-154"/>
</g>
<g id="clust73" class="cluster">
<title>cluster_OrganizationMemberModule</title>
<polygon fill="none" stroke="#000000" stroke-dasharray="1,5" points="7668,-146 7668,-214 7926,-214 7926,-146 7668,-146"/>
</g>
<g id="clust75" class="cluster">
<title>cluster_OrganizationMemberModule_imports</title>
<polygon fill="none" stroke="#000000" points="7676,-154 7676,-206 7918,-206 7918,-154 7676,-154"/>
</g>
<g id="clust85" class="cluster">
<title>cluster_OrganizationModule</title>
<polygon fill="none" stroke="#000000" stroke-dasharray="1,5" points="333,-70 333,-138 543,-138 543,-70 333,-70"/>
</g>
<g id="clust87" class="cluster">
<title>cluster_OrganizationModule_imports</title>
<polygon fill="none" stroke="#000000" points="341,-78 341,-130 535,-130 535,-78 341,-78"/>
</g>
<g id="clust97" class="cluster">
<title>cluster_StaffModule</title>
<polygon fill="none" stroke="#000000" stroke-dasharray="1,5" points="551,-70 551,-138 715,-138 715,-70 551,-70"/>
</g>
<g id="clust99" class="cluster">
<title>cluster_StaffModule_imports</title>
<polygon fill="none" stroke="#000000" points="559,-78 559,-130 707,-130 707,-78 559,-78"/>
</g>
<!-- AdminRoutingModule -->
<g id="node1" class="node">
<title>AdminRoutingModule</title>
<polygon fill="#8dd3c7" stroke="#000000" points="167.5561,-198 164.5561,-202 143.5561,-202 140.5561,-198 24.4439,-198 24.4439,-162 167.5561,-162 167.5561,-198"/>
<text text-anchor="middle" x="96" y="-175.8" font-family="Times,serif" font-size="14.00" fill="#000000">AdminRoutingModule</text>
</g>
<!-- AdminModule -->
<g id="node2" class="node">
<title>AdminModule</title>
<polygon fill="#8dd3c7" stroke="#000000" points="160.4386,-266 157.4386,-270 136.4386,-270 133.4386,-266 61.5614,-266 61.5614,-230 160.4386,-230 160.4386,-266"/>
<text text-anchor="middle" x="111" y="-243.8" font-family="Times,serif" font-size="14.00" fill="#000000">AdminModule</text>
</g>
<!-- AdminRoutingModule&#45;&gt;AdminModule -->
<g id="edge1" class="edge">
<title>AdminRoutingModule&#45;&gt;AdminModule</title>
<path fill="none" stroke="#000000" d="M111,-198.2228C111,-198.2228 111,-219.7269 111,-219.7269"/>
<polygon fill="#000000" stroke="#000000" points="107.5001,-219.7269 111,-229.7269 114.5001,-219.727 107.5001,-219.7269"/>
</g>
<!-- AppModule -->
<g id="node38" class="node">
<title>AppModule</title>
<polygon fill="#8dd3c7" stroke="#000000" points="3571.6571,-331 3568.6571,-335 3547.6571,-335 3544.6571,-331 3488.3429,-331 3488.3429,-295 3571.6571,-295 3571.6571,-331"/>
<text text-anchor="middle" x="3530" y="-308.8" font-family="Times,serif" font-size="14.00" fill="#000000">AppModule</text>
</g>
<!-- AdminModule&#45;&gt;AppModule -->
<g id="edge37" class="edge">
<title>AdminModule&#45;&gt;AppModule</title>
<path fill="none" stroke="#000000" d="M111,-266.1985C111,-290.3563 111,-330 111,-330 111,-330 3478.3104,-330 3478.3104,-330"/>
<polygon fill="#000000" stroke="#000000" points="3478.3105,-333.5001 3488.3104,-330 3478.3104,-326.5001 3478.3105,-333.5001"/>
</g>
<!-- AdminDashboardComponent -->
<g id="node3" class="node">
<title>AdminDashboardComponent</title>
<polygon fill="#ffffb3" stroke="#000000" points="5892.3613,-266 5711.6387,-266 5711.6387,-230 5892.3613,-230 5892.3613,-266"/>
<text text-anchor="middle" x="5802" y="-243.8" font-family="Times,serif" font-size="14.00" fill="#000000">AdminDashboardComponent</text>
</g>
<!-- AdminDashboardComponent&#45;&gt;AppModule -->
<g id="edge2" class="edge">
<title>AdminDashboardComponent&#45;&gt;AppModule</title>
<path fill="none" stroke="#000000" d="M5802,-266.1289C5802,-286.5724 5802,-317 5802,-317 5802,-317 3581.866,-317 3581.866,-317"/>
<polygon fill="#000000" stroke="#000000" points="3581.866,-313.5001 3571.866,-317 3581.866,-320.5001 3581.866,-313.5001"/>
</g>
<!-- AdminDivComponent -->
<g id="node4" class="node">
<title>AdminDivComponent</title>
<polygon fill="#ffffb3" stroke="#000000" points="5693.7176,-266 5552.2824,-266 5552.2824,-230 5693.7176,-230 5693.7176,-266"/>
<text text-anchor="middle" x="5623" y="-243.8" font-family="Times,serif" font-size="14.00" fill="#000000">AdminDivComponent</text>
</g>
<!-- AdminDivComponent&#45;&gt;AppModule -->
<g id="edge3" class="edge">
<title>AdminDivComponent&#45;&gt;AppModule</title>
<path fill="none" stroke="#000000" d="M5623,-266.308C5623,-286.1455 5623,-315 5623,-315 5623,-315 3581.8085,-315 3581.8085,-315"/>
<polygon fill="#000000" stroke="#000000" points="3581.8085,-311.5001 3571.8085,-315 3581.8084,-318.5001 3581.8085,-311.5001"/>
</g>
<!-- AdminProfileComponent -->
<g id="node5" class="node">
<title>AdminProfileComponent</title>
<polygon fill="#ffffb3" stroke="#000000" points="5534.3201,-266 5375.6799,-266 5375.6799,-230 5534.3201,-230 5534.3201,-266"/>
<text text-anchor="middle" x="5455" y="-243.8" font-family="Times,serif" font-size="14.00" fill="#000000">AdminProfileComponent</text>
</g>
<!-- AdminProfileComponent&#45;&gt;AppModule -->
<g id="edge4" class="edge">
<title>AdminProfileComponent&#45;&gt;AppModule</title>
<path fill="none" stroke="#000000" d="M5455,-266.1061C5455,-285.3391 5455,-313 5455,-313 5455,-313 3581.9966,-313 3581.9966,-313"/>
<polygon fill="#000000" stroke="#000000" points="3581.9966,-309.5001 3571.9966,-313 3581.9966,-316.5001 3581.9966,-309.5001"/>
</g>
<!-- AppComponent -->
<g id="node6" class="node">
<title>AppComponent</title>
<polygon fill="#ffffb3" stroke="#000000" points="5357.9399,-266 5252.0601,-266 5252.0601,-230 5357.9399,-230 5357.9399,-266"/>
<text text-anchor="middle" x="5305" y="-243.8" font-family="Times,serif" font-size="14.00" fill="#000000">AppComponent</text>
</g>
<!-- AppComponent&#45;&gt;AppModule -->
<g id="edge5" class="edge">
<title>AppComponent&#45;&gt;AppModule</title>
<path fill="none" stroke="#000000" d="M5305,-266.1686C5305,-285.0898 5305,-312 5305,-312 5305,-312 3581.6934,-312 3581.6934,-312"/>
<polygon fill="#000000" stroke="#000000" points="3581.6935,-308.5001 3571.6934,-312 3581.6934,-315.5001 3581.6935,-308.5001"/>
</g>
<!-- ClinicHandlerComponent -->
<g id="node7" class="node">
<title>ClinicHandlerComponent</title>
<polygon fill="#ffffb3" stroke="#000000" points="5234.1428,-266 5073.8572,-266 5073.8572,-230 5234.1428,-230 5234.1428,-266"/>
<text text-anchor="middle" x="5154" y="-243.8" font-family="Times,serif" font-size="14.00" fill="#000000">ClinicHandlerComponent</text>
</g>
<!-- ClinicHandlerComponent&#45;&gt;AppModule -->
<g id="edge6" class="edge">
<title>ClinicHandlerComponent&#45;&gt;AppModule</title>
<path fill="none" stroke="#000000" d="M5154,-266.2667C5154,-284.5552 5154,-310 5154,-310 5154,-310 3581.776,-310 3581.776,-310"/>
<polygon fill="#000000" stroke="#000000" points="3581.7761,-306.5001 3571.776,-310 3581.776,-313.5001 3581.7761,-306.5001"/>
</g>
<!-- ConfirmComponent -->
<g id="node8" class="node">
<title>ConfirmComponent</title>
<polygon fill="#ffffb3" stroke="#000000" points="5055.2716,-266 4926.7284,-266 4926.7284,-230 5055.2716,-230 5055.2716,-266"/>
<text text-anchor="middle" x="4991" y="-243.8" font-family="Times,serif" font-size="14.00" fill="#000000">ConfirmComponent</text>
</g>
<!-- ConfirmComponent&#45;&gt;AppModule -->
<g id="edge7" class="edge">
<title>ConfirmComponent&#45;&gt;AppModule</title>
<path fill="none" stroke="#000000" d="M4991,-266.302C4991,-284.2699 4991,-309 4991,-309 4991,-309 3581.7595,-309 3581.7595,-309"/>
<polygon fill="#000000" stroke="#000000" points="3581.7596,-305.5001 3571.7595,-309 3581.7595,-312.5001 3581.7596,-305.5001"/>
</g>
<!-- DatabaseHandlerComponent -->
<g id="node9" class="node">
<title>DatabaseHandlerComponent</title>
<polygon fill="#ffffb3" stroke="#000000" points="4908.7198,-266 4731.2802,-266 4731.2802,-230 4908.7198,-230 4908.7198,-266"/>
<text text-anchor="middle" x="4820" y="-243.8" font-family="Times,serif" font-size="14.00" fill="#000000">DatabaseHandlerComponent</text>
</g>
<!-- DatabaseHandlerComponent&#45;&gt;AppModule -->
<g id="edge8" class="edge">
<title>DatabaseHandlerComponent&#45;&gt;AppModule</title>
<path fill="none" stroke="#000000" d="M4820,-266.0225C4820,-283.3734 4820,-307 4820,-307 4820,-307 3581.8227,-307 3581.8227,-307"/>
<polygon fill="#000000" stroke="#000000" points="3581.8227,-303.5001 3571.8227,-307 3581.8226,-310.5001 3581.8227,-303.5001"/>
</g>
<!-- HomeComponent -->
<g id="node10" class="node">
<title>HomeComponent</title>
<polygon fill="#ffffb3" stroke="#000000" points="4712.5451,-266 4597.4549,-266 4597.4549,-230 4712.5451,-230 4712.5451,-266"/>
<text text-anchor="middle" x="4655" y="-243.8" font-family="Times,serif" font-size="14.00" fill="#000000">HomeComponent</text>
</g>
<!-- HomeComponent&#45;&gt;AppModule -->
<g id="edge9" class="edge">
<title>HomeComponent&#45;&gt;AppModule</title>
<path fill="none" stroke="#000000" d="M4655,-266.0352C4655,-282.7344 4655,-305 4655,-305 4655,-305 3581.7102,-305 3581.7102,-305"/>
<polygon fill="#000000" stroke="#000000" points="3581.7102,-301.5001 3571.7102,-305 3581.7102,-308.5001 3581.7102,-301.5001"/>
</g>
<!-- LoginComponent -->
<g id="node11" class="node">
<title>LoginComponent</title>
<polygon fill="#ffffb3" stroke="#000000" points="4579.2758,-266 4464.7242,-266 4464.7242,-230 4579.2758,-230 4579.2758,-266"/>
<text text-anchor="middle" x="4522" y="-243.8" font-family="Times,serif" font-size="14.00" fill="#000000">LoginComponent</text>
</g>
<!-- LoginComponent&#45;&gt;AppModule -->
<g id="edge10" class="edge">
<title>LoginComponent&#45;&gt;AppModule</title>
<path fill="none" stroke="#000000" d="M4522,-266.027C4522,-282.3976 4522,-304 4522,-304 4522,-304 3581.6762,-304 3581.6762,-304"/>
<polygon fill="#000000" stroke="#000000" points="3581.6762,-300.5001 3571.6762,-304 3581.6761,-307.5001 3581.6762,-300.5001"/>
</g>
<!-- MemberDashboardComponent -->
<g id="node12" class="node">
<title>MemberDashboardComponent</title>
<polygon fill="#ffffb3" stroke="#000000" points="4446.8988,-266 4257.1012,-266 4257.1012,-230 4446.8988,-230 4446.8988,-266"/>
<text text-anchor="middle" x="4352" y="-243.8" font-family="Times,serif" font-size="14.00" fill="#000000">MemberDashboardComponent</text>
</g>
<!-- MemberDashboardComponent&#45;&gt;AppModule -->
<g id="edge11" class="edge">
<title>MemberDashboardComponent&#45;&gt;AppModule</title>
<path fill="none" stroke="#000000" d="M4352,-266.2819C4352,-281.9478 4352,-302 4352,-302 4352,-302 3581.8932,-302 3581.8932,-302"/>
<polygon fill="#000000" stroke="#000000" points="3581.8932,-298.5001 3571.8932,-302 3581.8932,-305.5001 3581.8932,-298.5001"/>
</g>
<!-- MemberHandlerComponent -->
<g id="node13" class="node">
<title>MemberHandlerComponent</title>
<polygon fill="#ffffb3" stroke="#000000" points="4238.8445,-266 4065.1555,-266 4065.1555,-230 4238.8445,-230 4238.8445,-266"/>
<text text-anchor="middle" x="4152" y="-243.8" font-family="Times,serif" font-size="14.00" fill="#000000">MemberHandlerComponent</text>
</g>
<!-- MemberHandlerComponent&#45;&gt;AppModule -->
<g id="edge12" class="edge">
<title>MemberHandlerComponent&#45;&gt;AppModule</title>
<path fill="none" stroke="#000000" d="M4152,-266.1871C4152,-281.1824 4152,-300 4152,-300 4152,-300 3581.777,-300 3581.777,-300"/>
<polygon fill="#000000" stroke="#000000" points="3581.777,-296.5001 3571.777,-300 3581.777,-303.5001 3581.777,-296.5001"/>
</g>
<!-- MemberProfileComponent -->
<g id="node14" class="node">
<title>MemberProfileComponent</title>
<polygon fill="#ffffb3" stroke="#000000" points="4047.3571,-266 3880.6429,-266 3880.6429,-230 4047.3571,-230 4047.3571,-266"/>
<text text-anchor="middle" x="3964" y="-243.8" font-family="Times,serif" font-size="14.00" fill="#000000">MemberProfileComponent</text>
</g>
<!-- MemberProfileComponent&#45;&gt;AppModule -->
<g id="edge13" class="edge">
<title>MemberProfileComponent&#45;&gt;AppModule</title>
<path fill="none" stroke="#000000" d="M3964,-266.1243C3964,-280.7832 3964,-299 3964,-299 3964,-299 3582.0081,-299 3582.0081,-299"/>
<polygon fill="#000000" stroke="#000000" points="3582.0081,-295.5001 3572.0081,-299 3582.0081,-302.5001 3582.0081,-295.5001"/>
</g>
<!-- MemberSubmitSampleComponent -->
<g id="node15" class="node">
<title>MemberSubmitSampleComponent</title>
<polygon fill="#ffffb3" stroke="#000000" points="3862.7049,-266 3651.2951,-266 3651.2951,-230 3862.7049,-230 3862.7049,-266"/>
<text text-anchor="middle" x="3757" y="-243.8" font-family="Times,serif" font-size="14.00" fill="#000000">MemberSubmitSampleComponent</text>
</g>
<!-- MemberSubmitSampleComponent&#45;&gt;AppModule -->
<g id="edge14" class="edge">
<title>MemberSubmitSampleComponent&#45;&gt;AppModule</title>
<path fill="none" stroke="#000000" d="M3757,-266.2458C3757,-280.1772 3757,-297 3757,-297 3757,-297 3581.8998,-297 3581.8998,-297"/>
<polygon fill="#000000" stroke="#000000" points="3581.8999,-293.5001 3571.8998,-297 3581.8998,-300.5001 3581.8999,-293.5001"/>
</g>
<!-- MemberViewSamplesComponent -->
<g id="node16" class="node">
<title>MemberViewSamplesComponent</title>
<polygon fill="#ffffb3" stroke="#000000" points="3633.014,-266 3426.986,-266 3426.986,-230 3633.014,-230 3633.014,-266"/>
<text text-anchor="middle" x="3530" y="-243.8" font-family="Times,serif" font-size="14.00" fill="#000000">MemberViewSamplesComponent</text>
</g>
<!-- MemberViewSamplesComponent&#45;&gt;AppModule -->
<g id="edge15" class="edge">
<title>MemberViewSamplesComponent&#45;&gt;AppModule</title>
<path fill="none" stroke="#000000" d="M3530,-266.1061C3530,-266.1061 3530,-284.991 3530,-284.991"/>
<polygon fill="#000000" stroke="#000000" points="3526.5001,-284.9909 3530,-294.991 3533.5001,-284.991 3526.5001,-284.9909"/>
</g>
<!-- NotificationDivComponent -->
<g id="node17" class="node">
<title>NotificationDivComponent</title>
<polygon fill="#ffffb3" stroke="#000000" points="3408.979,-266 3239.021,-266 3239.021,-230 3408.979,-230 3408.979,-266"/>
<text text-anchor="middle" x="3324" y="-243.8" font-family="Times,serif" font-size="14.00" fill="#000000">NotificationDivComponent</text>
</g>
<!-- NotificationDivComponent&#45;&gt;AppModule -->
<g id="edge16" class="edge">
<title>NotificationDivComponent&#45;&gt;AppModule</title>
<path fill="none" stroke="#000000" d="M3324,-266.2458C3324,-280.1772 3324,-297 3324,-297 3324,-297 3478.3128,-297 3478.3128,-297"/>
<polygon fill="#000000" stroke="#000000" points="3478.3129,-300.5001 3488.3128,-297 3478.3128,-293.5001 3478.3129,-300.5001"/>
</g>
<!-- OrganizationDashboardComponent -->
<g id="node18" class="node">
<title>OrganizationDashboardComponent</title>
<polygon fill="#ffffb3" stroke="#000000" points="3220.5562,-266 3005.4438,-266 3005.4438,-230 3220.5562,-230 3220.5562,-266"/>
<text text-anchor="middle" x="3113" y="-243.8" font-family="Times,serif" font-size="14.00" fill="#000000">OrganizationDashboardComponent</text>
</g>
<!-- OrganizationDashboardComponent&#45;&gt;AppModule -->
<g id="edge17" class="edge">
<title>OrganizationDashboardComponent&#45;&gt;AppModule</title>
<path fill="none" stroke="#000000" d="M3113,-266.1243C3113,-280.7832 3113,-299 3113,-299 3113,-299 3478.1072,-299 3478.1072,-299"/>
<polygon fill="#000000" stroke="#000000" points="3478.1072,-302.5001 3488.1072,-299 3478.1071,-295.5001 3478.1072,-302.5001"/>
</g>
<!-- OrganizationHandlerComponent -->
<g id="node19" class="node">
<title>OrganizationHandlerComponent</title>
<polygon fill="#ffffb3" stroke="#000000" points="2987.5028,-266 2788.4972,-266 2788.4972,-230 2987.5028,-230 2987.5028,-266"/>
<text text-anchor="middle" x="2888" y="-243.8" font-family="Times,serif" font-size="14.00" fill="#000000">OrganizationHandlerComponent</text>
</g>
<!-- OrganizationHandlerComponent&#45;&gt;AppModule -->
<g id="edge18" class="edge">
<title>OrganizationHandlerComponent&#45;&gt;AppModule</title>
<path fill="none" stroke="#000000" d="M2888,-266.1871C2888,-281.1824 2888,-300 2888,-300 2888,-300 3477.8766,-300 3477.8766,-300"/>
<polygon fill="#000000" stroke="#000000" points="3477.8766,-303.5001 3487.8766,-300 3477.8766,-296.5001 3477.8766,-303.5001"/>
</g>
<!-- OrganizationProfileComponent -->
<g id="node20" class="node">
<title>OrganizationProfileComponent</title>
<polygon fill="#ffffb3" stroke="#000000" points="2770.0154,-266 2577.9846,-266 2577.9846,-230 2770.0154,-230 2770.0154,-266"/>
<text text-anchor="middle" x="2674" y="-243.8" font-family="Times,serif" font-size="14.00" fill="#000000">OrganizationProfileComponent</text>
</g>
<!-- OrganizationProfileComponent&#45;&gt;AppModule -->
<g id="edge19" class="edge">
<title>OrganizationProfileComponent&#45;&gt;AppModule</title>
<path fill="none" stroke="#000000" d="M2674,-266.2819C2674,-281.9478 2674,-302 2674,-302 2674,-302 3478.1339,-302 3478.1339,-302"/>
<polygon fill="#000000" stroke="#000000" points="3478.1339,-305.5001 3488.1339,-302 3478.1338,-298.5001 3478.1339,-305.5001"/>
</g>
<!-- OrganizationSubmitSampleComponent -->
<g id="node21" class="node">
<title>OrganizationSubmitSampleComponent</title>
<polygon fill="#ffffb3" stroke="#000000" points="2559.3626,-266 2322.6374,-266 2322.6374,-230 2559.3626,-230 2559.3626,-266"/>
<text text-anchor="middle" x="2441" y="-243.8" font-family="Times,serif" font-size="14.00" fill="#000000">OrganizationSubmitSampleComponent</text>
</g>
<!-- OrganizationSubmitSampleComponent&#45;&gt;AppModule -->
<g id="edge20" class="edge">
<title>OrganizationSubmitSampleComponent&#45;&gt;AppModule</title>
<path fill="none" stroke="#000000" d="M2441,-266.027C2441,-282.3976 2441,-304 2441,-304 2441,-304 3478.309,-304 3478.309,-304"/>
<polygon fill="#000000" stroke="#000000" points="3478.3091,-307.5001 3488.309,-304 3478.309,-300.5001 3478.3091,-307.5001"/>
</g>
<!-- OrganizationViewSamplesComponent -->
<g id="node22" class="node">
<title>OrganizationViewSamplesComponent</title>
<polygon fill="#ffffb3" stroke="#000000" points="2304.1713,-266 2071.8287,-266 2071.8287,-230 2304.1713,-230 2304.1713,-266"/>
<text text-anchor="middle" x="2188" y="-243.8" font-family="Times,serif" font-size="14.00" fill="#000000">OrganizationViewSamplesComponent</text>
</g>
<!-- OrganizationViewSamplesComponent&#45;&gt;AppModule -->
<g id="edge21" class="edge">
<title>OrganizationViewSamplesComponent&#45;&gt;AppModule</title>
<path fill="none" stroke="#000000" d="M2188,-266.0352C2188,-282.7344 2188,-305 2188,-305 2188,-305 3477.9933,-305 3477.9933,-305"/>
<polygon fill="#000000" stroke="#000000" points="3477.9934,-308.5001 3487.9933,-305 3477.9933,-301.5001 3477.9934,-308.5001"/>
</g>
<!-- ReportingComponent -->
<g id="node23" class="node">
<title>ReportingComponent</title>
<polygon fill="#ffffb3" stroke="#000000" points="2053.8258,-266 1916.1742,-266 1916.1742,-230 2053.8258,-230 2053.8258,-266"/>
<text text-anchor="middle" x="1985" y="-243.8" font-family="Times,serif" font-size="14.00" fill="#000000">ReportingComponent</text>
</g>
<!-- ReportingComponent&#45;&gt;AppModule -->
<g id="edge22" class="edge">
<title>ReportingComponent&#45;&gt;AppModule</title>
<path fill="none" stroke="#000000" d="M1985,-266.0225C1985,-283.3734 1985,-307 1985,-307 1985,-307 3478.2752,-307 3478.2752,-307"/>
<polygon fill="#000000" stroke="#000000" points="3478.2753,-310.5001 3488.2752,-307 3478.2752,-303.5001 3478.2753,-310.5001"/>
</g>
<!-- SampleDivComponent -->
<g id="node24" class="node">
<title>SampleDivComponent</title>
<polygon fill="#ffffb3" stroke="#000000" points="1898.323,-266 1753.677,-266 1753.677,-230 1898.323,-230 1898.323,-266"/>
<text text-anchor="middle" x="1826" y="-243.8" font-family="Times,serif" font-size="14.00" fill="#000000">SampleDivComponent</text>
</g>
<!-- SampleDivComponent&#45;&gt;AppModule -->
<g id="edge23" class="edge">
<title>SampleDivComponent&#45;&gt;AppModule</title>
<path fill="none" stroke="#000000" d="M1826,-266.302C1826,-284.2699 1826,-309 1826,-309 1826,-309 3478.3016,-309 3478.3016,-309"/>
<polygon fill="#000000" stroke="#000000" points="3478.3016,-312.5001 3488.3016,-309 3478.3015,-305.5001 3478.3016,-312.5001"/>
</g>
<!-- SampleFormComponent -->
<g id="node25" class="node">
<title>SampleFormComponent</title>
<polygon fill="#ffffb3" stroke="#000000" points="1735.6596,-266 1582.3404,-266 1582.3404,-230 1735.6596,-230 1735.6596,-266"/>
<text text-anchor="middle" x="1659" y="-243.8" font-family="Times,serif" font-size="14.00" fill="#000000">SampleFormComponent</text>
</g>
<!-- SampleFormComponent&#45;&gt;AppModule -->
<g id="edge24" class="edge">
<title>SampleFormComponent&#45;&gt;AppModule</title>
<path fill="none" stroke="#000000" d="M1659,-266.2667C1659,-284.5552 1659,-310 1659,-310 1659,-310 3478.2982,-310 3478.2982,-310"/>
<polygon fill="#000000" stroke="#000000" points="3478.2983,-313.5001 3488.2982,-310 3478.2982,-306.5001 3478.2983,-313.5001"/>
</g>
<!-- SplashComponent -->
<g id="node26" class="node">
<title>SplashComponent</title>
<polygon fill="#ffffb3" stroke="#000000" points="1564.1653,-266 1445.8347,-266 1445.8347,-230 1564.1653,-230 1564.1653,-266"/>
<text text-anchor="middle" x="1505" y="-243.8" font-family="Times,serif" font-size="14.00" fill="#000000">SplashComponent</text>
</g>
<!-- SplashComponent&#45;&gt;AppModule -->
<g id="edge25" class="edge">
<title>SplashComponent&#45;&gt;AppModule</title>
<path fill="none" stroke="#000000" d="M1505,-266.1686C1505,-285.0898 1505,-312 1505,-312 1505,-312 3478.1698,-312 3478.1698,-312"/>
<polygon fill="#000000" stroke="#000000" points="3478.1699,-315.5001 3488.1698,-312 3478.1698,-308.5001 3478.1699,-315.5001"/>
</g>
<!-- StaffDashboardComponent -->
<g id="node27" class="node">
<title>StaffDashboardComponent</title>
<polygon fill="#ffffb3" stroke="#000000" points="1427.6825,-266 1258.3175,-266 1258.3175,-230 1427.6825,-230 1427.6825,-266"/>
<text text-anchor="middle" x="1343" y="-243.8" font-family="Times,serif" font-size="14.00" fill="#000000">StaffDashboardComponent</text>
</g>
<!-- StaffDashboardComponent&#45;&gt;AppModule -->
<g id="edge26" class="edge">
<title>StaffDashboardComponent&#45;&gt;AppModule</title>
<path fill="none" stroke="#000000" d="M1343,-266.1061C1343,-285.3391 1343,-313 1343,-313 1343,-313 3478.2646,-313 3478.2646,-313"/>
<polygon fill="#000000" stroke="#000000" points="3478.2647,-316.5001 3488.2646,-313 3478.2646,-309.5001 3478.2647,-316.5001"/>
</g>
<!-- StaffDivComponent -->
<g id="node28" class="node">
<title>StaffDivComponent</title>
<polygon fill="#ffffb3" stroke="#000000" points="1240.5394,-266 1111.4606,-266 1111.4606,-230 1240.5394,-230 1240.5394,-266"/>
<text text-anchor="middle" x="1176" y="-243.8" font-family="Times,serif" font-size="14.00" fill="#000000">StaffDivComponent</text>
</g>
<!-- StaffDivComponent&#45;&gt;AppModule -->
<g id="edge27" class="edge">
<title>StaffDivComponent&#45;&gt;AppModule</title>
<path fill="none" stroke="#000000" d="M1176,-266.308C1176,-286.1455 1176,-315 1176,-315 1176,-315 3478.1429,-315 3478.1429,-315"/>
<polygon fill="#000000" stroke="#000000" points="3478.1429,-318.5001 3488.1429,-315 3478.1428,-311.5001 3478.1429,-318.5001"/>
</g>
<!-- StaffHandlerComponent -->
<g id="node29" class="node">
<title>StaffHandlerComponent</title>
<polygon fill="#ffffb3" stroke="#000000" points="1092.6288,-266 939.3712,-266 939.3712,-230 1092.6288,-230 1092.6288,-266"/>
<text text-anchor="middle" x="1016" y="-243.8" font-family="Times,serif" font-size="14.00" fill="#000000">StaffHandlerComponent</text>
</g>
<!-- StaffHandlerComponent&#45;&gt;AppModule -->
<g id="edge28" class="edge">
<title>StaffHandlerComponent&#45;&gt;AppModule</title>
<path fill="none" stroke="#000000" d="M1016,-266.1289C1016,-286.5724 1016,-317 1016,-317 1016,-317 3478.2028,-317 3478.2028,-317"/>
<polygon fill="#000000" stroke="#000000" points="3478.2028,-320.5001 3488.2028,-317 3478.2028,-313.5001 3478.2028,-320.5001"/>
</g>
<!-- StaffProfileComponent -->
<g id="node30" class="node">
<title>StaffProfileComponent</title>
<polygon fill="#ffffb3" stroke="#000000" points="7494.1414,-266 7347.8586,-266 7347.8586,-230 7494.1414,-230 7494.1414,-266"/>
<text text-anchor="middle" x="7421" y="-243.8" font-family="Times,serif" font-size="14.00" fill="#000000">StaffProfileComponent</text>
</g>
<!-- StaffProfileComponent&#45;&gt;AppModule -->
<g id="edge29" class="edge">
<title>StaffProfileComponent&#45;&gt;AppModule</title>
<path fill="none" stroke="#000000" d="M7421,-266.1985C7421,-290.3563 7421,-330 7421,-330 7421,-330 3581.7159,-330 3581.7159,-330"/>
<polygon fill="#000000" stroke="#000000" points="3581.7159,-326.5001 3571.7159,-330 3581.7159,-333.5001 3581.7159,-326.5001"/>
</g>
<!-- StaffSubmitSampleComponent -->
<g id="node31" class="node">
<title>StaffSubmitSampleComponent</title>
<polygon fill="#ffffb3" stroke="#000000" points="7329.4888,-266 7138.5112,-266 7138.5112,-230 7329.4888,-230 7329.4888,-266"/>
<text text-anchor="middle" x="7234" y="-243.8" font-family="Times,serif" font-size="14.00" fill="#000000">StaffSubmitSampleComponent</text>
</g>
<!-- StaffSubmitSampleComponent&#45;&gt;AppModule -->
<g id="edge30" class="edge">
<title>StaffSubmitSampleComponent&#45;&gt;AppModule</title>
<path fill="none" stroke="#000000" d="M7234,-266.1532C7234,-289.7566 7234,-328 7234,-328 7234,-328 3581.9162,-328 3581.9162,-328"/>
<polygon fill="#000000" stroke="#000000" points="3581.9162,-324.5001 3571.9162,-328 3581.9161,-331.5001 3581.9162,-324.5001"/>
</g>
<!-- SubmitCbsDepositComponent -->
<g id="node32" class="node">
<title>SubmitCbsDepositComponent</title>
<polygon fill="#ffffb3" stroke="#000000" points="7120.615,-266 6933.385,-266 6933.385,-230 7120.615,-230 7120.615,-266"/>
<text text-anchor="middle" x="7027" y="-243.8" font-family="Times,serif" font-size="14.00" fill="#000000">SubmitCbsDepositComponent</text>
</g>
<!-- SubmitCbsDepositComponent&#45;&gt;AppModule -->
<g id="edge31" class="edge">
<title>SubmitCbsDepositComponent&#45;&gt;AppModule</title>
<path fill="none" stroke="#000000" d="M7027,-266.3228C7027,-289.6602 7027,-327 7027,-327 7027,-327 3581.7091,-327 3581.7091,-327"/>
<polygon fill="#000000" stroke="#000000" points="3581.7091,-323.5001 3571.7091,-327 3581.7091,-330.5001 3581.7091,-323.5001"/>
</g>
<!-- SubmitCbsRequestComponent -->
<g id="node33" class="node">
<title>SubmitCbsRequestComponent</title>
<polygon fill="#ffffb3" stroke="#000000" points="6915.1693,-266 6726.8307,-266 6726.8307,-230 6915.1693,-230 6915.1693,-266"/>
<text text-anchor="middle" x="6821" y="-243.8" font-family="Times,serif" font-size="14.00" fill="#000000">SubmitCbsRequestComponent</text>
</g>
<!-- SubmitCbsRequestComponent&#45;&gt;AppModule -->
<g id="edge32" class="edge">
<title>SubmitCbsRequestComponent&#45;&gt;AppModule</title>
<path fill="none" stroke="#000000" d="M6821,-266.2479C6821,-289.0179 6821,-325 6821,-325 6821,-325 3581.9098,-325 3581.9098,-325"/>
<polygon fill="#000000" stroke="#000000" points="3581.9098,-321.5001 3571.9098,-325 3581.9097,-328.5001 3581.9098,-321.5001"/>
</g>
<!-- SubmitCmwDepositComponent -->
<g id="node34" class="node">
<title>SubmitCmwDepositComponent</title>
<polygon fill="#ffffb3" stroke="#000000" points="6708.6679,-266 6513.3321,-266 6513.3321,-230 6708.6679,-230 6708.6679,-266"/>
<text text-anchor="middle" x="6611" y="-243.8" font-family="Times,serif" font-size="14.00" fill="#000000">SubmitCmwDepositComponent</text>
</g>
<!-- SubmitCmwDepositComponent&#45;&gt;AppModule -->
<g id="edge33" class="edge">
<title>SubmitCmwDepositComponent&#45;&gt;AppModule</title>
<path fill="none" stroke="#000000" d="M6611,-266.1554C6611,-288.3519 6611,-323 6611,-323 6611,-323 3581.8009,-323 3581.8009,-323"/>
<polygon fill="#000000" stroke="#000000" points="3581.801,-319.5001 3571.8009,-323 3581.8009,-326.5001 3581.801,-319.5001"/>
</g>
<!-- SubmitCmwRequestComponent -->
<g id="node35" class="node">
<title>SubmitCmwRequestComponent</title>
<polygon fill="#ffffb3" stroke="#000000" points="6495.7217,-266 6298.2783,-266 6298.2783,-230 6495.7217,-230 6495.7217,-266"/>
<text text-anchor="middle" x="6397" y="-243.8" font-family="Times,serif" font-size="14.00" fill="#000000">SubmitCmwRequestComponent</text>
</g>
<!-- SubmitCmwRequestComponent&#45;&gt;AppModule -->
<g id="edge34" class="edge">
<title>SubmitCmwRequestComponent&#45;&gt;AppModule</title>
<path fill="none" stroke="#000000" d="M6397,-266.2921C6397,-288.2057 6397,-322 6397,-322 6397,-322 3581.9125,-322 3581.9125,-322"/>
<polygon fill="#000000" stroke="#000000" points="3581.9125,-318.5001 3571.9125,-322 3581.9124,-325.5001 3581.9125,-318.5001"/>
</g>
<!-- SubmitCmwRevitalizationComponent -->
<g id="node36" class="node">
<title>SubmitCmwRevitalizationComponent</title>
<polygon fill="#ffffb3" stroke="#000000" points="6280.1595,-266 6049.8405,-266 6049.8405,-230 6280.1595,-230 6280.1595,-266"/>
<text text-anchor="middle" x="6165" y="-243.8" font-family="Times,serif" font-size="14.00" fill="#000000">SubmitCmwRevitalizationComponent</text>
</g>
<!-- SubmitCmwRevitalizationComponent&#45;&gt;AppModule -->
<g id="edge35" class="edge">
<title>SubmitCmwRevitalizationComponent&#45;&gt;AppModule</title>
<path fill="none" stroke="#000000" d="M6165,-266.1686C6165,-287.498 6165,-320 6165,-320 6165,-320 3581.9216,-320 3581.9216,-320"/>
<polygon fill="#000000" stroke="#000000" points="3581.9216,-316.5001 3571.9216,-320 3581.9216,-323.5001 3581.9216,-316.5001"/>
</g>
<!-- UpdateComponent -->
<g id="node37" class="node">
<title>UpdateComponent</title>
<polygon fill="#ffffb3" stroke="#000000" points="6031.759,-266 5910.241,-266 5910.241,-230 6031.759,-230 6031.759,-266"/>
<text text-anchor="middle" x="5971" y="-243.8" font-family="Times,serif" font-size="14.00" fill="#000000">UpdateComponent</text>
</g>
<!-- UpdateComponent&#45;&gt;AppModule -->
<g id="edge36" class="edge">
<title>UpdateComponent&#45;&gt;AppModule</title>
<path fill="none" stroke="#000000" d="M5971,-266.0267C5971,-286.7672 5971,-318 5971,-318 5971,-318 3581.8545,-318 3581.8545,-318"/>
<polygon fill="#000000" stroke="#000000" points="3581.8546,-314.5001 3571.8545,-318 3581.8545,-321.5001 3581.8546,-314.5001"/>
</g>
<!-- AppComponent  -->
<g id="node45" class="node">
<title>AppComponent </title>
<polygon fill="#80b1d3" stroke="#000000" points="3584.439,-396 3475.561,-396 3475.561,-360 3584.439,-360 3584.439,-396"/>
<text text-anchor="middle" x="3530" y="-373.8" font-family="Times,serif" font-size="14.00" fill="#000000">AppComponent </text>
</g>
<!-- AppModule&#45;&gt;AppComponent  -->
<g id="edge44" class="edge">
<title>AppModule&#45;&gt;AppComponent </title>
<path fill="none" stroke="#000000" stroke-dasharray="1,5" d="M3530,-331.1061C3530,-331.1061 3530,-349.991 3530,-349.991"/>
<polygon fill="#000000" stroke="#000000" points="3526.5001,-349.9909 3530,-359.991 3533.5001,-349.991 3526.5001,-349.9909"/>
</g>
<!-- AppRoutingModule -->
<g id="node39" class="node">
<title>AppRoutingModule</title>
<polygon fill="#8dd3c7" stroke="#000000" points="790.2744,-198 787.2744,-202 766.2744,-202 763.2744,-198 661.7256,-198 661.7256,-162 790.2744,-162 790.2744,-198"/>
<text text-anchor="middle" x="726" y="-175.8" font-family="Times,serif" font-size="14.00" fill="#000000">AppRoutingModule</text>
</g>
<!-- AppRoutingModule&#45;&gt;AppModule -->
<g id="edge38" class="edge">
<title>AppRoutingModule&#45;&gt;AppModule</title>
<path fill="none" stroke="#000000" d="M747.4624,-198.1274C747.4624,-208.7109 747.4624,-220 747.4624,-220 747.4624,-220 931.2856,-220 931.2856,-220 931.2856,-220 931.2856,-318 931.2856,-318 931.2856,-318 3478.1278,-318 3478.1278,-318"/>
<polygon fill="#000000" stroke="#000000" points="3478.1279,-321.5001 3488.1278,-318 3478.1278,-314.5001 3478.1279,-321.5001"/>
</g>
<!-- OrganizationMemberModule -->
<g id="node42" class="node">
<title>OrganizationMemberModule</title>
<polygon fill="#8dd3c7" stroke="#000000" points="803.0576,-266 800.0576,-270 779.0576,-270 776.0576,-266 622.9424,-266 622.9424,-230 803.0576,-230 803.0576,-266"/>
<text text-anchor="middle" x="713" y="-243.8" font-family="Times,serif" font-size="14.00" fill="#000000">OrganizationMemberModule</text>
</g>
<!-- AppRoutingModule&#45;&gt;OrganizationMemberModule -->
<g id="edge48" class="edge">
<title>AppRoutingModule&#45;&gt;OrganizationMemberModule</title>
<path fill="none" stroke="#000000" d="M704.5376,-198.2228C704.5376,-198.2228 704.5376,-219.7269 704.5376,-219.7269"/>
<polygon fill="#000000" stroke="#000000" points="701.0377,-219.7269 704.5376,-229.7269 708.0377,-219.727 701.0377,-219.7269"/>
</g>
<!-- ErrorsModule -->
<g id="node40" class="node">
<title>ErrorsModule</title>
<polygon fill="#8dd3c7" stroke="#000000" points="915.03,-266 912.03,-270 891.03,-270 888.03,-266 820.97,-266 820.97,-230 915.03,-230 915.03,-266"/>
<text text-anchor="middle" x="868" y="-243.8" font-family="Times,serif" font-size="14.00" fill="#000000">ErrorsModule</text>
</g>
<!-- ErrorsModule&#45;&gt;AppModule -->
<g id="edge39" class="edge">
<title>ErrorsModule&#45;&gt;AppModule</title>
<path fill="none" stroke="#000000" d="M868,-266.1686C868,-287.498 868,-320 868,-320 868,-320 3478.1863,-320 3478.1863,-320"/>
<polygon fill="#000000" stroke="#000000" points="3478.1864,-323.5001 3488.1863,-320 3478.1863,-316.5001 3478.1864,-323.5001"/>
</g>
<!-- MaterialModule -->
<g id="node41" class="node">
<title>MaterialModule</title>
<polygon fill="#8dd3c7" stroke="#000000" points="915.4706,-198 912.4706,-202 891.4706,-202 888.4706,-198 808.5294,-198 808.5294,-162 915.4706,-162 915.4706,-198"/>
<text text-anchor="middle" x="862" y="-175.8" font-family="Times,serif" font-size="14.00" fill="#000000">MaterialModule</text>
</g>
<!-- MaterialModule&#45;&gt;AppModule -->
<g id="edge40" class="edge">
<title>MaterialModule&#45;&gt;AppModule</title>
<path fill="none" stroke="#000000" d="M816.662,-198.2733C816.662,-236.6253 816.662,-322 816.662,-322 816.662,-322 3478.1955,-322 3478.1955,-322"/>
<polygon fill="#000000" stroke="#000000" points="3478.1955,-325.5001 3488.1955,-322 3478.1955,-318.5001 3478.1955,-325.5001"/>
</g>
<!-- MaterialModule&#45;&gt;ErrorsModule -->
<g id="edge47" class="edge">
<title>MaterialModule&#45;&gt;ErrorsModule</title>
<path fill="none" stroke="#000000" d="M868,-198.2228C868,-198.2228 868,-219.7269 868,-219.7269"/>
<polygon fill="#000000" stroke="#000000" points="864.5001,-219.7269 868,-229.7269 871.5001,-219.727 864.5001,-219.7269"/>
</g>
<!-- MaterialModule&#45;&gt;OrganizationMemberModule -->
<g id="edge49" class="edge">
<title>MaterialModule&#45;&gt;OrganizationMemberModule</title>
<path fill="none" stroke="#000000" d="M812.5883,-198.2228C812.5883,-218.3652 812.5883,-248 812.5883,-248 812.5883,-248 811.6334,-248 811.6334,-248"/>
<polygon fill="#000000" stroke="#000000" points="813.0394,-244.5001 803.0394,-248 813.0393,-251.5001 813.0394,-244.5001"/>
</g>
<!-- OrganizationMemberModule&#45;&gt;AppModule -->
<g id="edge41" class="edge">
<title>OrganizationMemberModule&#45;&gt;AppModule</title>
<path fill="none" stroke="#000000" d="M713,-266.1554C713,-288.3519 713,-323 713,-323 713,-323 3478.2686,-323 3478.2686,-323"/>
<polygon fill="#000000" stroke="#000000" points="3478.2687,-326.5001 3488.2686,-323 3478.2686,-319.5001 3478.2687,-326.5001"/>
</g>
<!-- OrganizationModule -->
<g id="node43" class="node">
<title>OrganizationModule</title>
<polygon fill="#8dd3c7" stroke="#000000" points="538.1331,-198 535.1331,-202 514.1331,-202 511.1331,-198 405.8669,-198 405.8669,-162 538.1331,-162 538.1331,-198"/>
<text text-anchor="middle" x="472" y="-175.8" font-family="Times,serif" font-size="14.00" fill="#000000">OrganizationModule</text>
</g>
<!-- OrganizationModule&#45;&gt;AppModule -->
<g id="edge42" class="edge">
<title>OrganizationModule&#45;&gt;AppModule</title>
<path fill="none" stroke="#000000" d="M472,-198.0251C472,-237.2783 472,-327 472,-327 472,-327 3478.2235,-327 3478.2235,-327"/>
<polygon fill="#000000" stroke="#000000" points="3478.2235,-330.5001 3488.2235,-327 3478.2234,-323.5001 3478.2235,-330.5001"/>
</g>
<!-- StaffModule -->
<g id="node44" class="node">
<title>StaffModule</title>
<polygon fill="#8dd3c7" stroke="#000000" points="643.2591,-198 640.2591,-202 619.2591,-202 616.2591,-198 556.7409,-198 556.7409,-162 643.2591,-162 643.2591,-198"/>
<text text-anchor="middle" x="600" y="-175.8" font-family="Times,serif" font-size="14.00" fill="#000000">StaffModule</text>
</g>
<!-- StaffModule&#45;&gt;AppModule -->
<g id="edge43" class="edge">
<title>StaffModule&#45;&gt;AppModule</title>
<path fill="none" stroke="#000000" d="M589.7959,-198.0712C589.7959,-236.941 589.7959,-325 589.7959,-325 589.7959,-325 3478.1544,-325 3478.1544,-325"/>
<polygon fill="#000000" stroke="#000000" points="3478.1544,-328.5001 3488.1544,-325 3478.1543,-321.5001 3478.1544,-328.5001"/>
</g>
<!-- NotificationService -->
<g id="node46" class="node">
<title>NotificationService</title>
<ellipse fill="#fdb462" stroke="#000000" cx="295" cy="-248" rx="86.8107" ry="18"/>
<text text-anchor="middle" x="295" y="-243.8" font-family="Times,serif" font-size="14.00" fill="#000000">NotificationService</text>
</g>
<!-- NotificationService&#45;&gt;AppModule -->
<g id="edge45" class="edge">
<title>NotificationService&#45;&gt;AppModule</title>
<path fill="none" stroke="#000000" d="M295,-266.1532C295,-289.7566 295,-328 295,-328 295,-328 3478.2118,-328 3478.2118,-328"/>
<polygon fill="#000000" stroke="#000000" points="3478.2118,-331.5001 3488.2118,-328 3478.2117,-324.5001 3478.2118,-331.5001"/>
</g>
<!-- ErrorComponent -->
<g id="node47" class="node">
<title>ErrorComponent</title>
<polygon fill="#ffffb3" stroke="#000000" points="7644.3669,-198 7533.6331,-198 7533.6331,-162 7644.3669,-162 7644.3669,-198"/>
<text text-anchor="middle" x="7589" y="-175.8" font-family="Times,serif" font-size="14.00" fill="#000000">ErrorComponent</text>
</g>
<!-- ErrorComponent&#45;&gt;ErrorsModule -->
<g id="edge46" class="edge">
<title>ErrorComponent&#45;&gt;ErrorsModule</title>
<path fill="none" stroke="#000000" d="M7533.3775,-180C6892.1966,-180 923.3855,-180 923.3855,-180 923.3855,-180 923.3855,-248 923.3855,-248 923.3855,-248 922.5682,-248 922.5682,-248"/>
<polygon fill="#000000" stroke="#000000" points="925.2132,-244.5001 915.2132,-248 925.2131,-251.5001 925.2132,-244.5001"/>
</g>
<!-- OrganizationMemberRoutingModule -->
<g id="node48" class="node">
<title>OrganizationMemberRoutingModule</title>
<polygon fill="#8dd3c7" stroke="#000000" points="7909.6755,-198 7906.6755,-202 7885.6755,-202 7882.6755,-198 7684.3245,-198 7684.3245,-162 7909.6755,-162 7909.6755,-198"/>
<text text-anchor="middle" x="7797" y="-175.8" font-family="Times,serif" font-size="14.00" fill="#000000">OrganizationMemberRoutingModule</text>
</g>
<!-- OrganizationMemberRoutingModule&#45;&gt;OrganizationMemberModule -->
<g id="edge50" class="edge">
<title>OrganizationMemberRoutingModule&#45;&gt;OrganizationMemberModule</title>
<path fill="none" stroke="#000000" d="M7797,-198.2015C7797,-204.028 7797,-209 7797,-209 7797,-209 796.708,-209 796.708,-209 796.708,-209 796.708,-219.8701 796.708,-219.8701"/>
<polygon fill="#000000" stroke="#000000" points="793.208,-219.8701 796.708,-229.8701 800.208,-219.8701 793.208,-219.8701"/>
</g>
<!-- OrganizationRoutingModule -->
<g id="node49" class="node">
<title>OrganizationRoutingModule</title>
<polygon fill="#8dd3c7" stroke="#000000" points="526.7506,-122 523.7506,-126 502.7506,-126 499.7506,-122 349.2494,-122 349.2494,-86 526.7506,-86 526.7506,-122"/>
<text text-anchor="middle" x="438" y="-99.8" font-family="Times,serif" font-size="14.00" fill="#000000">OrganizationRoutingModule</text>
</g>
<!-- OrganizationRoutingModule&#45;&gt;OrganizationModule -->
<g id="edge51" class="edge">
<title>OrganizationRoutingModule&#45;&gt;OrganizationModule</title>
<path fill="none" stroke="#000000" d="M466.2795,-122.0109C466.2795,-122.0109 466.2795,-151.855 466.2795,-151.855"/>
<polygon fill="#000000" stroke="#000000" points="462.7795,-151.8549 466.2795,-161.855 469.7795,-151.855 462.7795,-151.8549"/>
</g>
<!-- StaffRoutingModule -->
<g id="node50" class="node">
<title>StaffRoutingModule</title>
<polygon fill="#8dd3c7" stroke="#000000" points="698.8767,-122 695.8767,-126 674.8767,-126 671.8767,-122 567.1233,-122 567.1233,-86 698.8767,-86 698.8767,-122"/>
<text text-anchor="middle" x="633" y="-99.8" font-family="Times,serif" font-size="14.00" fill="#000000">StaffRoutingModule</text>
</g>
<!-- StaffRoutingModule&#45;&gt;StaffModule -->
<g id="edge52" class="edge">
<title>StaffRoutingModule&#45;&gt;StaffModule</title>
<path fill="none" stroke="#000000" d="M605.2206,-122.0109C605.2206,-122.0109 605.2206,-151.855 605.2206,-151.855"/>
<polygon fill="#000000" stroke="#000000" points="601.7206,-151.8549 605.2206,-161.855 608.7206,-151.855 601.7206,-151.8549"/>
</g>
</g>
</svg>
