<?xml version="1.0" encoding="UTF-8" standalone="no"?>
<!DOCTYPE svg PUBLIC "-//W3C//DTD SVG 1.1//EN"
 "http://www.w3.org/Graphics/SVG/1.1/DTD/svg11.dtd">
<!-- Generated by graphviz version 2.40.1 (20161225.0304)
 -->
<!-- Title: dependencies Pages: 1 -->
<svg width="6136pt" height="360pt"
 viewBox="0.00 0.00 6136.00 360.00" xmlns="http://www.w3.org/2000/svg" xmlns:xlink="http://www.w3.org/1999/xlink">
<g id="graph0" class="graph" transform="scale(1 1) rotate(0) translate(4 356)">
<title>dependencies</title>
<polygon fill="#ffffff" stroke="transparent" points="-4,4 -4,-356 6132,-356 6132,4 -4,4"/>
<text text-anchor="start" x="3043.0091" y="-42.4" font-family="sans-serif" font-weight="bold" font-size="14.00" fill="#000000">Legend</text>
<polygon fill="#ffffb3" stroke="transparent" points="2830,-10 2830,-30 2850,-30 2850,-10 2830,-10"/>
<text text-anchor="start" x="2853.629" y="-15.4" font-family="sans-serif" font-size="14.00" fill="#000000"> &#160;Declarations</text>
<polygon fill="#8dd3c7" stroke="transparent" points="2943,-10 2943,-30 2963,-30 2963,-10 2943,-10"/>
<text text-anchor="start" x="2966.7251" y="-15.4" font-family="sans-serif" font-size="14.00" fill="#000000"> &#160;Module</text>
<polygon fill="#80b1d3" stroke="transparent" points="3029,-10 3029,-30 3049,-30 3049,-10 3029,-10"/>
<text text-anchor="start" x="3052.7812" y="-15.4" font-family="sans-serif" font-size="14.00" fill="#000000"> &#160;Bootstrap</text>
<polygon fill="#fdb462" stroke="transparent" points="3126,-10 3126,-30 3146,-30 3146,-10 3126,-10"/>
<text text-anchor="start" x="3149.6732" y="-15.4" font-family="sans-serif" font-size="14.00" fill="#000000"> &#160;Providers</text>
<polygon fill="#fb8072" stroke="transparent" points="3222,-10 3222,-30 3242,-30 3242,-10 3222,-10"/>
<text text-anchor="start" x="3245.7258" y="-15.4" font-family="sans-serif" font-size="14.00" fill="#000000"> &#160;Exports</text>
<g id="clust1" class="cluster">
<title>cluster_AdminModule</title>
<polygon fill="none" stroke="#000000" stroke-dasharray="1,5" points="8,-70 8,-206 184,-206 184,-70 8,-70"/>
</g>
<g id="clust3" class="cluster">
<title>cluster_AdminModule_imports</title>
<polygon fill="none" stroke="#000000" points="16,-78 16,-130 176,-130 176,-78 16,-78"/>
</g>
<g id="clust13" class="cluster">
<title>cluster_AppModule</title>
<polygon fill="none" stroke="#000000" stroke-dasharray="1,5" points="249,-146 249,-344 6120,-344 6120,-146 249,-146"/>
</g>
<g id="clust14" class="cluster">
<title>cluster_AppModule_declarations</title>
<polygon fill="none" stroke="#000000" points="988,-154 988,-206 6112,-206 6112,-154 988,-154"/>
</g>
<g id="clust41" class="cluster">
<title>cluster_AppModule_imports</title>
<polygon fill="none" stroke="#000000" points="257,-154 257,-206 980,-206 980,-154 257,-154"/>
</g>
<g id="clust43" class="cluster">
<title>cluster_AppModule_bootstrap</title>
<polygon fill="none" stroke="#000000" points="2908,-284 2908,-336 3032,-336 3032,-284 2908,-284"/>
</g>
<g id="clust57" class="cluster">
<title>cluster_OrganizationMemberModule</title>
<polygon fill="none" stroke="#000000" stroke-dasharray="1,5" points="192,-70 192,-138 450,-138 450,-70 192,-70"/>
</g>
<g id="clust59" class="cluster">
<title>cluster_OrganizationMemberModule_imports</title>
<polygon fill="none" stroke="#000000" points="200,-78 200,-130 442,-130 442,-78 200,-78"/>
</g>
<g id="clust69" class="cluster">
<title>cluster_OrganizationModule</title>
<polygon fill="none" stroke="#000000" stroke-dasharray="1,5" points="458,-70 458,-138 668,-138 668,-70 458,-70"/>
</g>
<g id="clust71" class="cluster">
<title>cluster_OrganizationModule_imports</title>
<polygon fill="none" stroke="#000000" points="466,-78 466,-130 660,-130 660,-78 466,-78"/>
</g>
<g id="clust81" class="cluster">
<title>cluster_StaffModule</title>
<polygon fill="none" stroke="#000000" stroke-dasharray="1,5" points="676,-70 676,-138 840,-138 840,-70 676,-70"/>
</g>
<g id="clust83" class="cluster">
<title>cluster_StaffModule_imports</title>
<polygon fill="none" stroke="#000000" points="684,-78 684,-130 832,-130 832,-78 684,-78"/>
</g>
<!-- AdminRoutingModule -->
<g id="node1" class="node">
<title>AdminRoutingModule</title>
<polygon fill="#8dd3c7" stroke="#000000" points="167.5561,-122 164.5561,-126 143.5561,-126 140.5561,-122 24.4439,-122 24.4439,-86 167.5561,-86 167.5561,-122"/>
<text text-anchor="middle" x="96" y="-99.8" font-family="Times,serif" font-size="14.00" fill="#000000">AdminRoutingModule</text>
</g>
<!-- AdminModule -->
<g id="node2" class="node">
<title>AdminModule</title>
<polygon fill="#8dd3c7" stroke="#000000" points="160.4386,-198 157.4386,-202 136.4386,-202 133.4386,-198 61.5614,-198 61.5614,-162 160.4386,-162 160.4386,-198"/>
<text text-anchor="middle" x="111" y="-175.8" font-family="Times,serif" font-size="14.00" fill="#000000">AdminModule</text>
</g>
<!-- AdminRoutingModule&#45;&gt;AdminModule -->
<g id="edge1" class="edge">
<title>AdminRoutingModule&#45;&gt;AdminModule</title>
<path fill="none" stroke="#000000" d="M111,-122.0109C111,-122.0109 111,-151.855 111,-151.855"/>
<polygon fill="#000000" stroke="#000000" points="107.5001,-151.8549 111,-161.855 114.5001,-151.855 107.5001,-151.8549"/>
</g>
<!-- AppModule -->
<g id="node29" class="node">
<title>AppModule</title>
<polygon fill="#8dd3c7" stroke="#000000" points="3011.6571,-263 3008.6571,-267 2987.6571,-267 2984.6571,-263 2928.3429,-263 2928.3429,-227 3011.6571,-227 3011.6571,-263"/>
<text text-anchor="middle" x="2970" y="-240.8" font-family="Times,serif" font-size="14.00" fill="#000000">AppModule</text>
</g>
<!-- AdminModule&#45;&gt;AppModule -->
<g id="edge28" class="edge">
<title>AdminModule&#45;&gt;AppModule</title>
<path fill="none" stroke="#000000" d="M111,-198.3802C111,-222.2785 111,-261 111,-261 111,-261 2918.2045,-261 2918.2045,-261"/>
<polygon fill="#000000" stroke="#000000" points="2918.2045,-264.5001 2928.2045,-261 2918.2045,-257.5001 2918.2045,-264.5001"/>
</g>
<!-- AdminDashboardComponent -->
<g id="node3" class="node">
<title>AdminDashboardComponent</title>
<polygon fill="#ffffb3" stroke="#000000" points="6104.3613,-198 5923.6387,-198 5923.6387,-162 6104.3613,-162 6104.3613,-198"/>
<text text-anchor="middle" x="6014" y="-175.8" font-family="Times,serif" font-size="14.00" fill="#000000">AdminDashboardComponent</text>
</g>
<!-- AdminDashboardComponent&#45;&gt;AppModule -->
<g id="edge2" class="edge">
<title>AdminDashboardComponent&#45;&gt;AppModule</title>
<path fill="none" stroke="#000000" d="M6014,-198.3802C6014,-222.2785 6014,-261 6014,-261 6014,-261 3021.8725,-261 3021.8725,-261"/>
<polygon fill="#000000" stroke="#000000" points="3021.8726,-257.5001 3011.8725,-261 3021.8725,-264.5001 3021.8726,-257.5001"/>
</g>
<!-- AppComponent -->
<g id="node4" class="node">
<title>AppComponent</title>
<polygon fill="#ffffb3" stroke="#000000" points="5905.9399,-198 5800.0601,-198 5800.0601,-162 5905.9399,-162 5905.9399,-198"/>
<text text-anchor="middle" x="5853" y="-175.8" font-family="Times,serif" font-size="14.00" fill="#000000">AppComponent</text>
</g>
<!-- AppComponent&#45;&gt;AppModule -->
<g id="edge3" class="edge">
<title>AppComponent&#45;&gt;AppModule</title>
<path fill="none" stroke="#000000" d="M5853,-198.3228C5853,-221.6602 5853,-259 5853,-259 5853,-259 3021.8663,-259 3021.8663,-259"/>
<polygon fill="#000000" stroke="#000000" points="3021.8664,-255.5001 3011.8663,-259 3021.8663,-262.5001 3021.8664,-255.5001"/>
</g>
<!-- ClinicHandlerComponent -->
<g id="node5" class="node">
<title>ClinicHandlerComponent</title>
<polygon fill="#ffffb3" stroke="#000000" points="5782.1428,-198 5621.8572,-198 5621.8572,-162 5782.1428,-162 5782.1428,-198"/>
<text text-anchor="middle" x="5702" y="-175.8" font-family="Times,serif" font-size="14.00" fill="#000000">ClinicHandlerComponent</text>
</g>
<!-- ClinicHandlerComponent&#45;&gt;AppModule -->
<g id="edge4" class="edge">
<title>ClinicHandlerComponent&#45;&gt;AppModule</title>
<path fill="none" stroke="#000000" d="M5702,-198.2479C5702,-221.0179 5702,-257 5702,-257 5702,-257 3021.82,-257 3021.82,-257"/>
<polygon fill="#000000" stroke="#000000" points="3021.82,-253.5001 3011.82,-257 3021.8199,-260.5001 3021.82,-253.5001"/>
</g>
<!-- DatabaseHandlerComponent -->
<g id="node6" class="node">
<title>DatabaseHandlerComponent</title>
<polygon fill="#ffffb3" stroke="#000000" points="5603.7198,-198 5426.2802,-198 5426.2802,-162 5603.7198,-162 5603.7198,-198"/>
<text text-anchor="middle" x="5515" y="-175.8" font-family="Times,serif" font-size="14.00" fill="#000000">DatabaseHandlerComponent</text>
</g>
<!-- DatabaseHandlerComponent&#45;&gt;AppModule -->
<g id="edge5" class="edge">
<title>DatabaseHandlerComponent&#45;&gt;AppModule</title>
<path fill="none" stroke="#000000" d="M5515,-198.2921C5515,-220.2057 5515,-254 5515,-254 5515,-254 3021.7879,-254 3021.7879,-254"/>
<polygon fill="#000000" stroke="#000000" points="3021.7879,-250.5001 3011.7879,-254 3021.7879,-257.5001 3021.7879,-250.5001"/>
</g>
<!-- ErrorComponent -->
<g id="node7" class="node">
<title>ErrorComponent</title>
<polygon fill="#ffffb3" stroke="#000000" points="5408.3669,-198 5297.6331,-198 5297.6331,-162 5408.3669,-162 5408.3669,-198"/>
<text text-anchor="middle" x="5353" y="-175.8" font-family="Times,serif" font-size="14.00" fill="#000000">ErrorComponent</text>
</g>
<!-- ErrorComponent&#45;&gt;AppModule -->
<g id="edge6" class="edge">
<title>ErrorComponent&#45;&gt;AppModule</title>
<path fill="none" stroke="#000000" d="M5353,-198.1686C5353,-219.498 5353,-252 5353,-252 5353,-252 3021.8657,-252 3021.8657,-252"/>
<polygon fill="#000000" stroke="#000000" points="3021.8657,-248.5001 3011.8657,-252 3021.8656,-255.5001 3021.8657,-248.5001"/>
</g>
<!-- LoginComponent -->
<g id="node8" class="node">
<title>LoginComponent</title>
<polygon fill="#ffffb3" stroke="#000000" points="5279.2758,-198 5164.7242,-198 5164.7242,-162 5279.2758,-162 5279.2758,-198"/>
<text text-anchor="middle" x="5222" y="-175.8" font-family="Times,serif" font-size="14.00" fill="#000000">LoginComponent</text>
</g>
<!-- LoginComponent&#45;&gt;AppModule -->
<g id="edge7" class="edge">
<title>LoginComponent&#45;&gt;AppModule</title>
<path fill="none" stroke="#000000" d="M5222,-198.0267C5222,-218.7672 5222,-250 5222,-250 5222,-250 3021.9875,-250 3021.9875,-250"/>
<polygon fill="#000000" stroke="#000000" points="3021.9876,-246.5001 3011.9875,-250 3021.9875,-253.5001 3021.9876,-246.5001"/>
</g>
<!-- MemberDashboardComponent -->
<g id="node9" class="node">
<title>MemberDashboardComponent</title>
<polygon fill="#ffffb3" stroke="#000000" points="5146.8988,-198 4957.1012,-198 4957.1012,-162 5146.8988,-162 5146.8988,-198"/>
<text text-anchor="middle" x="5052" y="-175.8" font-family="Times,serif" font-size="14.00" fill="#000000">MemberDashboardComponent</text>
</g>
<!-- MemberDashboardComponent&#45;&gt;AppModule -->
<g id="edge8" class="edge">
<title>MemberDashboardComponent&#45;&gt;AppModule</title>
<path fill="none" stroke="#000000" d="M5052,-198.2228C5052,-218.3652 5052,-248 5052,-248 5052,-248 3022.0592,-248 3022.0592,-248"/>
<polygon fill="#000000" stroke="#000000" points="3022.0593,-244.5001 3012.0592,-248 3022.0592,-251.5001 3022.0593,-244.5001"/>
</g>
<!-- MemberHandlerComponent -->
<g id="node10" class="node">
<title>MemberHandlerComponent</title>
<polygon fill="#ffffb3" stroke="#000000" points="4938.8445,-198 4765.1555,-198 4765.1555,-162 4938.8445,-162 4938.8445,-198"/>
<text text-anchor="middle" x="4852" y="-175.8" font-family="Times,serif" font-size="14.00" fill="#000000">MemberHandlerComponent</text>
</g>
<!-- MemberHandlerComponent&#45;&gt;AppModule -->
<g id="edge9" class="edge">
<title>MemberHandlerComponent&#45;&gt;AppModule</title>
<path fill="none" stroke="#000000" d="M4852,-198.1061C4852,-217.3391 4852,-245 4852,-245 4852,-245 3021.9469,-245 3021.9469,-245"/>
<polygon fill="#000000" stroke="#000000" points="3021.947,-241.5001 3011.9469,-245 3021.9469,-248.5001 3021.947,-241.5001"/>
</g>
<!-- MemberProfileComponent -->
<g id="node11" class="node">
<title>MemberProfileComponent</title>
<polygon fill="#ffffb3" stroke="#000000" points="4747.3571,-198 4580.6429,-198 4580.6429,-162 4747.3571,-162 4747.3571,-198"/>
<text text-anchor="middle" x="4664" y="-175.8" font-family="Times,serif" font-size="14.00" fill="#000000">MemberProfileComponent</text>
</g>
<!-- MemberProfileComponent&#45;&gt;AppModule -->
<g id="edge10" class="edge">
<title>MemberProfileComponent&#45;&gt;AppModule</title>
<path fill="none" stroke="#000000" d="M4664,-198.2222C4664,-216.8285 4664,-243 4664,-243 4664,-243 3021.8744,-243 3021.8744,-243"/>
<polygon fill="#000000" stroke="#000000" points="3021.8744,-239.5001 3011.8744,-243 3021.8744,-246.5001 3021.8744,-239.5001"/>
</g>
<!-- MemberSubmitSampleComponent -->
<g id="node12" class="node">
<title>MemberSubmitSampleComponent</title>
<polygon fill="#ffffb3" stroke="#000000" points="4562.7049,-198 4351.2951,-198 4351.2951,-162 4562.7049,-162 4562.7049,-198"/>
<text text-anchor="middle" x="4457" y="-175.8" font-family="Times,serif" font-size="14.00" fill="#000000">MemberSubmitSampleComponent</text>
</g>
<!-- MemberSubmitSampleComponent&#45;&gt;AppModule -->
<g id="edge11" class="edge">
<title>MemberSubmitSampleComponent&#45;&gt;AppModule</title>
<path fill="none" stroke="#000000" d="M4457,-198.302C4457,-216.2699 4457,-241 4457,-241 4457,-241 3021.7145,-241 3021.7145,-241"/>
<polygon fill="#000000" stroke="#000000" points="3021.7145,-237.5001 3011.7145,-241 3021.7144,-244.5001 3021.7145,-237.5001"/>
</g>
<!-- MemberViewSamplesComponent -->
<g id="node13" class="node">
<title>MemberViewSamplesComponent</title>
<polygon fill="#ffffb3" stroke="#000000" points="4333.014,-198 4126.986,-198 4126.986,-162 4333.014,-162 4333.014,-198"/>
<text text-anchor="middle" x="4230" y="-175.8" font-family="Times,serif" font-size="14.00" fill="#000000">MemberViewSamplesComponent</text>
</g>
<!-- MemberViewSamplesComponent&#45;&gt;AppModule -->
<g id="edge12" class="edge">
<title>MemberViewSamplesComponent&#45;&gt;AppModule</title>
<path fill="none" stroke="#000000" d="M4230,-198.0225C4230,-215.3734 4230,-239 4230,-239 4230,-239 3021.9225,-239 3021.9225,-239"/>
<polygon fill="#000000" stroke="#000000" points="3021.9225,-235.5001 3011.9225,-239 3021.9224,-242.5001 3021.9225,-235.5001"/>
</g>
<!-- OrganizationDashboardComponent -->
<g id="node14" class="node">
<title>OrganizationDashboardComponent</title>
<polygon fill="#ffffb3" stroke="#000000" points="4108.5562,-198 3893.4438,-198 3893.4438,-162 4108.5562,-162 4108.5562,-198"/>
<text text-anchor="middle" x="4001" y="-175.8" font-family="Times,serif" font-size="14.00" fill="#000000">OrganizationDashboardComponent</text>
</g>
<!-- OrganizationDashboardComponent&#45;&gt;AppModule -->
<g id="edge13" class="edge">
<title>OrganizationDashboardComponent&#45;&gt;AppModule</title>
<path fill="none" stroke="#000000" d="M4001,-198.027C4001,-214.3976 4001,-236 4001,-236 4001,-236 3021.6934,-236 3021.6934,-236"/>
<polygon fill="#000000" stroke="#000000" points="3021.6934,-232.5001 3011.6934,-236 3021.6933,-239.5001 3021.6934,-232.5001"/>
</g>
<!-- OrganizationHandlerComponent -->
<g id="node15" class="node">
<title>OrganizationHandlerComponent</title>
<polygon fill="#ffffb3" stroke="#000000" points="3875.5028,-198 3676.4972,-198 3676.4972,-162 3875.5028,-162 3875.5028,-198"/>
<text text-anchor="middle" x="3776" y="-175.8" font-family="Times,serif" font-size="14.00" fill="#000000">OrganizationHandlerComponent</text>
</g>
<!-- OrganizationHandlerComponent&#45;&gt;AppModule -->
<g id="edge14" class="edge">
<title>OrganizationHandlerComponent&#45;&gt;AppModule</title>
<path fill="none" stroke="#000000" d="M3776,-198.2819C3776,-213.9478 3776,-234 3776,-234 3776,-234 3021.9176,-234 3021.9176,-234"/>
<polygon fill="#000000" stroke="#000000" points="3021.9177,-230.5001 3011.9176,-234 3021.9176,-237.5001 3021.9177,-230.5001"/>
</g>
<!-- OrganizationProfileComponent -->
<g id="node16" class="node">
<title>OrganizationProfileComponent</title>
<polygon fill="#ffffb3" stroke="#000000" points="3658.0154,-198 3465.9846,-198 3465.9846,-162 3658.0154,-162 3658.0154,-198"/>
<text text-anchor="middle" x="3562" y="-175.8" font-family="Times,serif" font-size="14.00" fill="#000000">OrganizationProfileComponent</text>
</g>
<!-- OrganizationProfileComponent&#45;&gt;AppModule -->
<g id="edge15" class="edge">
<title>OrganizationProfileComponent&#45;&gt;AppModule</title>
<path fill="none" stroke="#000000" d="M3562,-198.1871C3562,-213.1824 3562,-232 3562,-232 3562,-232 3022.1006,-232 3022.1006,-232"/>
<polygon fill="#000000" stroke="#000000" points="3022.1006,-228.5001 3012.1006,-232 3022.1006,-235.5001 3022.1006,-228.5001"/>
</g>
<!-- OrganizationSubmitSampleComponent -->
<g id="node17" class="node">
<title>OrganizationSubmitSampleComponent</title>
<polygon fill="#ffffb3" stroke="#000000" points="3447.3626,-198 3210.6374,-198 3210.6374,-162 3447.3626,-162 3447.3626,-198"/>
<text text-anchor="middle" x="3329" y="-175.8" font-family="Times,serif" font-size="14.00" fill="#000000">OrganizationSubmitSampleComponent</text>
</g>
<!-- OrganizationSubmitSampleComponent&#45;&gt;AppModule -->
<g id="edge16" class="edge">
<title>OrganizationSubmitSampleComponent&#45;&gt;AppModule</title>
<path fill="none" stroke="#000000" d="M3329,-198.0511C3329,-212.373 3329,-230 3329,-230 3329,-230 3021.8845,-230 3021.8845,-230"/>
<polygon fill="#000000" stroke="#000000" points="3021.8845,-226.5001 3011.8845,-230 3021.8844,-233.5001 3021.8845,-226.5001"/>
</g>
<!-- OrganizationViewSamplesComponent -->
<g id="node18" class="node">
<title>OrganizationViewSamplesComponent</title>
<polygon fill="#ffffb3" stroke="#000000" points="3192.1713,-198 2959.8287,-198 2959.8287,-162 3192.1713,-162 3192.1713,-198"/>
<text text-anchor="middle" x="3076" y="-175.8" font-family="Times,serif" font-size="14.00" fill="#000000">OrganizationViewSamplesComponent</text>
</g>
<!-- OrganizationViewSamplesComponent&#45;&gt;AppModule -->
<g id="edge17" class="edge">
<title>OrganizationViewSamplesComponent&#45;&gt;AppModule</title>
<path fill="none" stroke="#000000" d="M2985.8713,-198.1061C2985.8713,-198.1061 2985.8713,-216.991 2985.8713,-216.991"/>
<polygon fill="#000000" stroke="#000000" points="2982.3714,-216.9909 2985.8713,-226.991 2989.3714,-216.991 2982.3714,-216.9909"/>
</g>
<!-- SampleFormComponent -->
<g id="node19" class="node">
<title>SampleFormComponent</title>
<polygon fill="#ffffb3" stroke="#000000" points="2941.6596,-198 2788.3404,-198 2788.3404,-162 2941.6596,-162 2941.6596,-198"/>
<text text-anchor="middle" x="2865" y="-175.8" font-family="Times,serif" font-size="14.00" fill="#000000">SampleFormComponent</text>
</g>
<!-- SampleFormComponent&#45;&gt;AppModule -->
<g id="edge18" class="edge">
<title>SampleFormComponent&#45;&gt;AppModule</title>
<path fill="none" stroke="#000000" d="M2935.0007,-198.1061C2935.0007,-198.1061 2935.0007,-216.991 2935.0007,-216.991"/>
<polygon fill="#000000" stroke="#000000" points="2931.5008,-216.9909 2935.0007,-226.991 2938.5008,-216.991 2931.5008,-216.9909"/>
</g>
<!-- SplashComponent -->
<g id="node20" class="node">
<title>SplashComponent</title>
<polygon fill="#ffffb3" stroke="#000000" points="2770.1653,-198 2651.8347,-198 2651.8347,-162 2770.1653,-162 2770.1653,-198"/>
<text text-anchor="middle" x="2711" y="-175.8" font-family="Times,serif" font-size="14.00" fill="#000000">SplashComponent</text>
</g>
<!-- SplashComponent&#45;&gt;AppModule -->
<g id="edge19" class="edge">
<title>SplashComponent&#45;&gt;AppModule</title>
<path fill="none" stroke="#000000" d="M2711,-198.0511C2711,-212.373 2711,-230 2711,-230 2711,-230 2918.0993,-230 2918.0993,-230"/>
<polygon fill="#000000" stroke="#000000" points="2918.0994,-233.5001 2928.0993,-230 2918.0993,-226.5001 2918.0994,-233.5001"/>
</g>
<!-- StaffDashboardComponent -->
<g id="node21" class="node">
<title>StaffDashboardComponent</title>
<polygon fill="#ffffb3" stroke="#000000" points="2633.6825,-198 2464.3175,-198 2464.3175,-162 2633.6825,-162 2633.6825,-198"/>
<text text-anchor="middle" x="2549" y="-175.8" font-family="Times,serif" font-size="14.00" fill="#000000">StaffDashboardComponent</text>
</g>
<!-- StaffDashboardComponent&#45;&gt;AppModule -->
<g id="edge20" class="edge">
<title>StaffDashboardComponent&#45;&gt;AppModule</title>
<path fill="none" stroke="#000000" d="M2549,-198.1871C2549,-213.1824 2549,-232 2549,-232 2549,-232 2918.0938,-232 2918.0938,-232"/>
<polygon fill="#000000" stroke="#000000" points="2918.0938,-235.5001 2928.0938,-232 2918.0937,-228.5001 2918.0938,-235.5001"/>
</g>
<!-- StaffHandlerComponent -->
<g id="node22" class="node">
<title>StaffHandlerComponent</title>
<polygon fill="#ffffb3" stroke="#000000" points="2446.6288,-198 2293.3712,-198 2293.3712,-162 2446.6288,-162 2446.6288,-198"/>
<text text-anchor="middle" x="2370" y="-175.8" font-family="Times,serif" font-size="14.00" fill="#000000">StaffHandlerComponent</text>
</g>
<!-- StaffHandlerComponent&#45;&gt;AppModule -->
<g id="edge21" class="edge">
<title>StaffHandlerComponent&#45;&gt;AppModule</title>
<path fill="none" stroke="#000000" d="M2370,-198.2819C2370,-213.9478 2370,-234 2370,-234 2370,-234 2918.2855,-234 2918.2855,-234"/>
<polygon fill="#000000" stroke="#000000" points="2918.2856,-237.5001 2928.2855,-234 2918.2855,-230.5001 2918.2856,-237.5001"/>
</g>
<!-- StaffSubmitSampleComponent -->
<g id="node23" class="node">
<title>StaffSubmitSampleComponent</title>
<polygon fill="#ffffb3" stroke="#000000" points="2275.4888,-198 2084.5112,-198 2084.5112,-162 2275.4888,-162 2275.4888,-198"/>
<text text-anchor="middle" x="2180" y="-175.8" font-family="Times,serif" font-size="14.00" fill="#000000">StaffSubmitSampleComponent</text>
</g>
<!-- StaffSubmitSampleComponent&#45;&gt;AppModule -->
<g id="edge22" class="edge">
<title>StaffSubmitSampleComponent&#45;&gt;AppModule</title>
<path fill="none" stroke="#000000" d="M2180,-198.027C2180,-214.3976 2180,-236 2180,-236 2180,-236 2918.0839,-236 2918.0839,-236"/>
<polygon fill="#000000" stroke="#000000" points="2918.084,-239.5001 2928.0839,-236 2918.0839,-232.5001 2918.084,-239.5001"/>
</g>
<!-- SubmitCbsDepositComponent -->
<g id="node24" class="node">
<title>SubmitCbsDepositComponent</title>
<polygon fill="#ffffb3" stroke="#000000" points="2066.615,-198 1879.385,-198 1879.385,-162 2066.615,-162 2066.615,-198"/>
<text text-anchor="middle" x="1973" y="-175.8" font-family="Times,serif" font-size="14.00" fill="#000000">SubmitCbsDepositComponent</text>
</g>
<!-- SubmitCbsDepositComponent&#45;&gt;AppModule -->
<g id="edge23" class="edge">
<title>SubmitCbsDepositComponent&#45;&gt;AppModule</title>
<path fill="none" stroke="#000000" d="M1973,-198.0225C1973,-215.3734 1973,-239 1973,-239 1973,-239 2918.1138,-239 2918.1138,-239"/>
<polygon fill="#000000" stroke="#000000" points="2918.1138,-242.5001 2928.1138,-239 2918.1137,-235.5001 2918.1138,-242.5001"/>
</g>
<!-- SubmitCbsRequestComponent -->
<g id="node25" class="node">
<title>SubmitCbsRequestComponent</title>
<polygon fill="#ffffb3" stroke="#000000" points="1861.1693,-198 1672.8307,-198 1672.8307,-162 1861.1693,-162 1861.1693,-198"/>
<text text-anchor="middle" x="1767" y="-175.8" font-family="Times,serif" font-size="14.00" fill="#000000">SubmitCbsRequestComponent</text>
</g>
<!-- SubmitCbsRequestComponent&#45;&gt;AppModule -->
<g id="edge24" class="edge">
<title>SubmitCbsRequestComponent&#45;&gt;AppModule</title>
<path fill="none" stroke="#000000" d="M1767,-198.302C1767,-216.2699 1767,-241 1767,-241 1767,-241 2918.2407,-241 2918.2407,-241"/>
<polygon fill="#000000" stroke="#000000" points="2918.2407,-244.5001 2928.2407,-241 2918.2406,-237.5001 2918.2407,-244.5001"/>
</g>
<!-- SubmitCmwDepositComponent -->
<g id="node26" class="node">
<title>SubmitCmwDepositComponent</title>
<polygon fill="#ffffb3" stroke="#000000" points="1654.6679,-198 1459.3321,-198 1459.3321,-162 1654.6679,-162 1654.6679,-198"/>
<text text-anchor="middle" x="1557" y="-175.8" font-family="Times,serif" font-size="14.00" fill="#000000">SubmitCmwDepositComponent</text>
</g>
<!-- SubmitCmwDepositComponent&#45;&gt;AppModule -->
<g id="edge25" class="edge">
<title>SubmitCmwDepositComponent&#45;&gt;AppModule</title>
<path fill="none" stroke="#000000" d="M1557,-198.2222C1557,-216.8285 1557,-243 1557,-243 1557,-243 2918.0951,-243 2918.0951,-243"/>
<polygon fill="#000000" stroke="#000000" points="2918.0951,-246.5001 2928.0951,-243 2918.095,-239.5001 2918.0951,-246.5001"/>
</g>
<!-- SubmitCmwRequestComponent -->
<g id="node27" class="node">
<title>SubmitCmwRequestComponent</title>
<polygon fill="#ffffb3" stroke="#000000" points="1441.7217,-198 1244.2783,-198 1244.2783,-162 1441.7217,-162 1441.7217,-198"/>
<text text-anchor="middle" x="1343" y="-175.8" font-family="Times,serif" font-size="14.00" fill="#000000">SubmitCmwRequestComponent</text>
</g>
<!-- SubmitCmwRequestComponent&#45;&gt;AppModule -->
<g id="edge26" class="edge">
<title>SubmitCmwRequestComponent&#45;&gt;AppModule</title>
<path fill="none" stroke="#000000" d="M1343,-198.1061C1343,-217.3391 1343,-245 1343,-245 1343,-245 2918.1468,-245 2918.1468,-245"/>
<polygon fill="#000000" stroke="#000000" points="2918.1468,-248.5001 2928.1468,-245 2918.1468,-241.5001 2918.1468,-248.5001"/>
</g>
<!-- SubmitCmwRevitalizationComponent -->
<g id="node28" class="node">
<title>SubmitCmwRevitalizationComponent</title>
<polygon fill="#ffffb3" stroke="#000000" points="1226.1595,-198 995.8405,-198 995.8405,-162 1226.1595,-162 1226.1595,-198"/>
<text text-anchor="middle" x="1111" y="-175.8" font-family="Times,serif" font-size="14.00" fill="#000000">SubmitCmwRevitalizationComponent</text>
</g>
<!-- SubmitCmwRevitalizationComponent&#45;&gt;AppModule -->
<g id="edge27" class="edge">
<title>SubmitCmwRevitalizationComponent&#45;&gt;AppModule</title>
<path fill="none" stroke="#000000" d="M1111,-198.2228C1111,-218.3652 1111,-248 1111,-248 1111,-248 2918.1236,-248 2918.1236,-248"/>
<polygon fill="#000000" stroke="#000000" points="2918.1236,-251.5001 2928.1236,-248 2918.1236,-244.5001 2918.1236,-251.5001"/>
</g>
<!-- AppComponent  -->
<g id="node35" class="node">
<title>AppComponent </title>
<polygon fill="#80b1d3" stroke="#000000" points="3024.439,-328 2915.561,-328 2915.561,-292 3024.439,-292 3024.439,-328"/>
<text text-anchor="middle" x="2970" y="-305.8" font-family="Times,serif" font-size="14.00" fill="#000000">AppComponent </text>
</g>
<!-- AppModule&#45;&gt;AppComponent  -->
<g id="edge34" class="edge">
<title>AppModule&#45;&gt;AppComponent </title>
<path fill="none" stroke="#000000" stroke-dasharray="1,5" d="M2970,-263.1061C2970,-263.1061 2970,-281.991 2970,-281.991"/>
<polygon fill="#000000" stroke="#000000" points="2966.5001,-281.9909 2970,-291.991 2973.5001,-281.991 2966.5001,-281.9909"/>
</g>
<!-- AppRoutingModule -->
<g id="node30" class="node">
<title>AppRoutingModule</title>
<polygon fill="#8dd3c7" stroke="#000000" points="972.2744,-198 969.2744,-202 948.2744,-202 945.2744,-198 843.7256,-198 843.7256,-162 972.2744,-162 972.2744,-198"/>
<text text-anchor="middle" x="908" y="-175.8" font-family="Times,serif" font-size="14.00" fill="#000000">AppRoutingModule</text>
</g>
<!-- AppRoutingModule&#45;&gt;AppModule -->
<g id="edge29" class="edge">
<title>AppRoutingModule&#45;&gt;AppModule</title>
<path fill="none" stroke="#000000" d="M908,-198.0267C908,-218.7672 908,-250 908,-250 908,-250 2917.8764,-250 2917.8764,-250"/>
<polygon fill="#000000" stroke="#000000" points="2917.8764,-253.5001 2927.8764,-250 2917.8763,-246.5001 2917.8764,-253.5001"/>
</g>
<!-- MaterialModule -->
<g id="node31" class="node">
<title>MaterialModule</title>
<polygon fill="#8dd3c7" stroke="#000000" points="825.4706,-198 822.4706,-202 801.4706,-202 798.4706,-198 718.5294,-198 718.5294,-162 825.4706,-162 825.4706,-198"/>
<text text-anchor="middle" x="772" y="-175.8" font-family="Times,serif" font-size="14.00" fill="#000000">MaterialModule</text>
</g>
<!-- MaterialModule&#45;&gt;AppModule -->
<g id="edge30" class="edge">
<title>MaterialModule&#45;&gt;AppModule</title>
<path fill="none" stroke="#000000" d="M772,-198.1686C772,-219.498 772,-252 772,-252 772,-252 2918.0547,-252 2918.0547,-252"/>
<polygon fill="#000000" stroke="#000000" points="2918.0548,-255.5001 2928.0547,-252 2918.0547,-248.5001 2918.0548,-255.5001"/>
</g>
<!-- OrganizationMemberModule -->
<g id="node32" class="node">
<title>OrganizationMemberModule</title>
<polygon fill="#8dd3c7" stroke="#000000" points="445.0576,-198 442.0576,-202 421.0576,-202 418.0576,-198 264.9424,-198 264.9424,-162 445.0576,-162 445.0576,-198"/>
<text text-anchor="middle" x="355" y="-175.8" font-family="Times,serif" font-size="14.00" fill="#000000">OrganizationMemberModule</text>
</g>
<!-- OrganizationMemberModule&#45;&gt;AppModule -->
<g id="edge31" class="edge">
<title>OrganizationMemberModule&#45;&gt;AppModule</title>
<path fill="none" stroke="#000000" d="M355,-198.3228C355,-221.6602 355,-259 355,-259 355,-259 2918.1314,-259 2918.1314,-259"/>
<polygon fill="#000000" stroke="#000000" points="2918.1314,-262.5001 2928.1314,-259 2918.1314,-255.5001 2918.1314,-262.5001"/>
</g>
<!-- OrganizationModule -->
<g id="node33" class="node">
<title>OrganizationModule</title>
<polygon fill="#8dd3c7" stroke="#000000" points="595.1331,-198 592.1331,-202 571.1331,-202 568.1331,-198 462.8669,-198 462.8669,-162 595.1331,-162 595.1331,-198"/>
<text text-anchor="middle" x="529" y="-175.8" font-family="Times,serif" font-size="14.00" fill="#000000">OrganizationModule</text>
</g>
<!-- OrganizationModule&#45;&gt;AppModule -->
<g id="edge32" class="edge">
<title>OrganizationModule&#45;&gt;AppModule</title>
<path fill="none" stroke="#000000" d="M529,-198.2479C529,-221.0179 529,-257 529,-257 529,-257 2918.1455,-257 2918.1455,-257"/>
<polygon fill="#000000" stroke="#000000" points="2918.1455,-260.5001 2928.1455,-257 2918.1454,-253.5001 2918.1455,-260.5001"/>
</g>
<!-- StaffModule -->
<g id="node34" class="node">
<title>StaffModule</title>
<polygon fill="#8dd3c7" stroke="#000000" points="700.2591,-198 697.2591,-202 676.2591,-202 673.2591,-198 613.7409,-198 613.7409,-162 700.2591,-162 700.2591,-198"/>
<text text-anchor="middle" x="657" y="-175.8" font-family="Times,serif" font-size="14.00" fill="#000000">StaffModule</text>
</g>
<!-- StaffModule&#45;&gt;AppModule -->
<g id="edge33" class="edge">
<title>StaffModule&#45;&gt;AppModule</title>
<path fill="none" stroke="#000000" d="M657,-198.2921C657,-220.2057 657,-254 657,-254 657,-254 2917.8791,-254 2917.8791,-254"/>
<polygon fill="#000000" stroke="#000000" points="2917.8791,-257.5001 2927.8791,-254 2917.879,-250.5001 2917.8791,-257.5001"/>
</g>
<!-- OrganizationMemberRoutingModule -->
<g id="node36" class="node">
<title>OrganizationMemberRoutingModule</title>
<polygon fill="#8dd3c7" stroke="#000000" points="433.6755,-122 430.6755,-126 409.6755,-126 406.6755,-122 208.3245,-122 208.3245,-86 433.6755,-86 433.6755,-122"/>
<text text-anchor="middle" x="321" y="-99.8" font-family="Times,serif" font-size="14.00" fill="#000000">OrganizationMemberRoutingModule</text>
</g>
<!-- OrganizationMemberRoutingModule&#45;&gt;OrganizationMemberModule -->
<g id="edge35" class="edge">
<title>OrganizationMemberRoutingModule&#45;&gt;OrganizationMemberModule</title>
<path fill="none" stroke="#000000" d="M349.2795,-122.0109C349.2795,-122.0109 349.2795,-151.855 349.2795,-151.855"/>
<polygon fill="#000000" stroke="#000000" points="345.7795,-151.8549 349.2795,-161.855 352.7795,-151.855 345.7795,-151.8549"/>
</g>
<!-- OrganizationRoutingModule -->
<g id="node37" class="node">
<title>OrganizationRoutingModule</title>
<polygon fill="#8dd3c7" stroke="#000000" points="651.7506,-122 648.7506,-126 627.7506,-126 624.7506,-122 474.2494,-122 474.2494,-86 651.7506,-86 651.7506,-122"/>
<text text-anchor="middle" x="563" y="-99.8" font-family="Times,serif" font-size="14.00" fill="#000000">OrganizationRoutingModule</text>
</g>
<!-- OrganizationRoutingModule&#45;&gt;OrganizationModule -->
<g id="edge36" class="edge">
<title>OrganizationRoutingModule&#45;&gt;OrganizationModule</title>
<path fill="none" stroke="#000000" d="M534.7206,-122.0109C534.7206,-122.0109 534.7206,-151.855 534.7206,-151.855"/>
<polygon fill="#000000" stroke="#000000" points="531.2206,-151.8549 534.7206,-161.855 538.2206,-151.855 531.2206,-151.8549"/>
</g>
<!-- StaffRoutingModule -->
<g id="node38" class="node">
<title>StaffRoutingModule</title>
<polygon fill="#8dd3c7" stroke="#000000" points="823.8767,-122 820.8767,-126 799.8767,-126 796.8767,-122 692.1233,-122 692.1233,-86 823.8767,-86 823.8767,-122"/>
<text text-anchor="middle" x="758" y="-99.8" font-family="Times,serif" font-size="14.00" fill="#000000">StaffRoutingModule</text>
</g>
<!-- StaffRoutingModule&#45;&gt;StaffModule -->
<g id="edge37" class="edge">
<title>StaffRoutingModule&#45;&gt;StaffModule</title>
<path fill="none" stroke="#000000" d="M696.2206,-122.0109C696.2206,-122.0109 696.2206,-151.855 696.2206,-151.855"/>
<polygon fill="#000000" stroke="#000000" points="692.7206,-151.8549 696.2206,-161.855 699.7206,-151.855 692.7206,-151.8549"/>
</g>
</g>
</svg>
