<?xml version="1.0" encoding="UTF-8" standalone="no"?>
<!DOCTYPE svg PUBLIC "-//W3C//DTD SVG 1.1//EN"
 "http://www.w3.org/Graphics/SVG/1.1/DTD/svg11.dtd">
<!-- Generated by graphviz version 2.40.1 (20161225.0304)
 -->
<!-- Title: dependencies Pages: 1 -->
<svg width="4519pt" height="352pt"
 viewBox="0.00 0.00 4519.00 352.00" xmlns="http://www.w3.org/2000/svg" xmlns:xlink="http://www.w3.org/1999/xlink">
<g id="graph0" class="graph" transform="scale(1 1) rotate(0) translate(4 348)">
<title>dependencies</title>
<polygon fill="#ffffff" stroke="transparent" points="-4,4 -4,-348 4515,-348 4515,4 -4,4"/>
<text text-anchor="start" x="2234.5091" y="-42.4" font-family="sans-serif" font-weight="bold" font-size="14.00" fill="#000000">Legend</text>
<polygon fill="#ffffb3" stroke="transparent" points="2021.5,-10 2021.5,-30 2041.5,-30 2041.5,-10 2021.5,-10"/>
<text text-anchor="start" x="2045.129" y="-15.4" font-family="sans-serif" font-size="14.00" fill="#000000"> &#160;Declarations</text>
<polygon fill="#8dd3c7" stroke="transparent" points="2134.5,-10 2134.5,-30 2154.5,-30 2154.5,-10 2134.5,-10"/>
<text text-anchor="start" x="2158.2251" y="-15.4" font-family="sans-serif" font-size="14.00" fill="#000000"> &#160;Module</text>
<polygon fill="#80b1d3" stroke="transparent" points="2220.5,-10 2220.5,-30 2240.5,-30 2240.5,-10 2220.5,-10"/>
<text text-anchor="start" x="2244.2812" y="-15.4" font-family="sans-serif" font-size="14.00" fill="#000000"> &#160;Bootstrap</text>
<polygon fill="#fdb462" stroke="transparent" points="2317.5,-10 2317.5,-30 2337.5,-30 2337.5,-10 2317.5,-10"/>
<text text-anchor="start" x="2341.1732" y="-15.4" font-family="sans-serif" font-size="14.00" fill="#000000"> &#160;Providers</text>
<polygon fill="#fb8072" stroke="transparent" points="2413.5,-10 2413.5,-30 2433.5,-30 2433.5,-10 2413.5,-10"/>
<text text-anchor="start" x="2437.2258" y="-15.4" font-family="sans-serif" font-size="14.00" fill="#000000"> &#160;Exports</text>
<g id="clust7" class="cluster">
<title>cluster_AppModule</title>
<polygon fill="none" stroke="#000000" stroke-dasharray="1,5" points="8,-70 8,-336 4353,-336 4353,-70 8,-70"/>
</g>
<g id="clust8" class="cluster">
<title>cluster_AppModule_declarations</title>
<polygon fill="none" stroke="#000000" points="935,-146 935,-198 4345,-198 4345,-146 935,-146"/>
</g>
<g id="clust28" class="cluster">
<title>cluster_AppModule_imports</title>
<polygon fill="none" stroke="#000000" points="214,-78 214,-198 927,-198 927,-78 214,-78"/>
</g>
<g id="clust30" class="cluster">
<title>cluster_AppModule_bootstrap</title>
<polygon fill="none" stroke="#000000" points="1840,-276 1840,-328 1964,-328 1964,-276 1840,-276"/>
</g>
<g id="clust31" class="cluster">
<title>cluster_AppModule_providers</title>
<polygon fill="none" stroke="#000000" points="16,-146 16,-198 206,-198 206,-146 16,-146"/>
</g>
<g id="clust38" class="cluster">
<title>cluster_ErrorsModule</title>
<polygon fill="none" stroke="#000000" stroke-dasharray="1,5" points="4361,-70 4361,-138 4503,-138 4503,-70 4361,-70"/>
</g>
<g id="clust39" class="cluster">
<title>cluster_ErrorsModule_declarations</title>
<polygon fill="none" stroke="#000000" points="4369,-78 4369,-130 4495,-130 4495,-78 4369,-78"/>
</g>
<!-- AdminDivComponent -->
<g id="node1" class="node">
<title>AdminDivComponent</title>
<polygon fill="#ffffb3" stroke="#000000" points="1084.7176,-190 943.2824,-190 943.2824,-154 1084.7176,-154 1084.7176,-190"/>
<text text-anchor="middle" x="1014" y="-167.8" font-family="Times,serif" font-size="14.00" fill="#000000">AdminDivComponent</text>
</g>
<!-- AppModule -->
<g id="node20" class="node">
<title>AppModule</title>
<polygon fill="#8dd3c7" stroke="#000000" points="1943.6571,-255 1940.6571,-259 1919.6571,-259 1916.6571,-255 1860.3429,-255 1860.3429,-219 1943.6571,-219 1943.6571,-255"/>
<text text-anchor="middle" x="1902" y="-232.8" font-family="Times,serif" font-size="14.00" fill="#000000">AppModule</text>
</g>
<!-- AdminDivComponent&#45;&gt;AppModule -->
<g id="edge1" class="edge">
<title>AdminDivComponent&#45;&gt;AppModule</title>
<path fill="none" stroke="#000000" d="M1014,-190.0225C1014,-207.3734 1014,-231 1014,-231 1014,-231 1850.0646,-231 1850.0646,-231"/>
<polygon fill="#000000" stroke="#000000" points="1850.0646,-234.5001 1860.0646,-231 1850.0646,-227.5001 1850.0646,-234.5001"/>
</g>
<!-- AdminHelpComponent -->
<g id="node2" class="node">
<title>AdminHelpComponent</title>
<polygon fill="#ffffb3" stroke="#000000" points="4336.9326,-190 4189.0674,-190 4189.0674,-154 4336.9326,-154 4336.9326,-190"/>
<text text-anchor="middle" x="4263" y="-167.8" font-family="Times,serif" font-size="14.00" fill="#000000">AdminHelpComponent</text>
</g>
<!-- AdminHelpComponent&#45;&gt;AppModule -->
<g id="edge2" class="edge">
<title>AdminHelpComponent&#45;&gt;AppModule</title>
<path fill="none" stroke="#000000" d="M4263,-190.3802C4263,-214.2785 4263,-253 4263,-253 4263,-253 1953.73,-253 1953.73,-253"/>
<polygon fill="#000000" stroke="#000000" points="1953.7301,-249.5001 1943.73,-253 1953.73,-256.5001 1953.7301,-249.5001"/>
</g>
<!-- AppComponent -->
<g id="node3" class="node">
<title>AppComponent</title>
<polygon fill="#ffffb3" stroke="#000000" points="4171.9399,-190 4066.0601,-190 4066.0601,-154 4171.9399,-154 4171.9399,-190"/>
<text text-anchor="middle" x="4119" y="-167.8" font-family="Times,serif" font-size="14.00" fill="#000000">AppComponent</text>
</g>
<!-- AppComponent&#45;&gt;AppModule -->
<g id="edge3" class="edge">
<title>AppComponent&#45;&gt;AppModule</title>
<path fill="none" stroke="#000000" d="M4119,-190.3228C4119,-213.6602 4119,-251 4119,-251 4119,-251 1953.8201,-251 1953.8201,-251"/>
<polygon fill="#000000" stroke="#000000" points="1953.8201,-247.5001 1943.8201,-251 1953.82,-254.5001 1953.8201,-247.5001"/>
</g>
<!-- DatabaseHandlerComponent -->
<g id="node4" class="node">
<title>DatabaseHandlerComponent</title>
<polygon fill="#ffffb3" stroke="#000000" points="4047.7198,-190 3870.2802,-190 3870.2802,-154 4047.7198,-154 4047.7198,-190"/>
<text text-anchor="middle" x="3959" y="-167.8" font-family="Times,serif" font-size="14.00" fill="#000000">DatabaseHandlerComponent</text>
</g>
<!-- DatabaseHandlerComponent&#45;&gt;AppModule -->
<g id="edge4" class="edge">
<title>DatabaseHandlerComponent&#45;&gt;AppModule</title>
<path fill="none" stroke="#000000" d="M3959,-190.0109C3959,-212.4852 3959,-248 3959,-248 3959,-248 1954.0215,-248 1954.0215,-248"/>
<polygon fill="#000000" stroke="#000000" points="1954.0215,-244.5001 1944.0215,-248 1954.0214,-251.5001 1954.0215,-244.5001"/>
</g>
<!-- FilterPipe -->
<g id="node5" class="node">
<title>FilterPipe</title>
<ellipse fill="#ffffb3" stroke="#000000" cx="3803" cy="-172" rx="49.2492" ry="18"/>
<text text-anchor="middle" x="3803" y="-167.8" font-family="Times,serif" font-size="14.00" fill="#000000">FilterPipe</text>
</g>
<!-- FilterPipe&#45;&gt;AppModule -->
<g id="edge5" class="edge">
<title>FilterPipe&#45;&gt;AppModule</title>
<path fill="none" stroke="#000000" d="M3819.3748,-189.1631C3819.3748,-211.0234 3819.3748,-246 3819.3748,-246 3819.3748,-246 1953.8302,-246 1953.8302,-246"/>
<polygon fill="#000000" stroke="#000000" points="1953.8303,-242.5001 1943.8302,-246 1953.8302,-249.5001 1953.8303,-242.5001"/>
</g>
<!-- FilterPipe&#45;&gt;AppModule -->
<g id="edge29" class="edge">
<title>FilterPipe&#45;&gt;AppModule</title>
<path fill="none" stroke="#000000" d="M3786.6252,-189.1871C3786.6252,-210.1998 3786.6252,-243 3786.6252,-243 3786.6252,-243 1954.0055,-243 1954.0055,-243"/>
<polygon fill="#000000" stroke="#000000" points="1954.0055,-239.5001 1944.0055,-243 1954.0054,-246.5001 1954.0055,-239.5001"/>
</g>
<!-- MemberHelpComponent -->
<g id="node6" class="node">
<title>MemberHelpComponent</title>
<polygon fill="#ffffb3" stroke="#000000" points="3735.9692,-190 3580.0308,-190 3580.0308,-154 3735.9692,-154 3735.9692,-190"/>
<text text-anchor="middle" x="3658" y="-167.8" font-family="Times,serif" font-size="14.00" fill="#000000">MemberHelpComponent</text>
</g>
<!-- MemberHelpComponent&#45;&gt;AppModule -->
<g id="edge6" class="edge">
<title>MemberHelpComponent&#45;&gt;AppModule</title>
<path fill="none" stroke="#000000" d="M3658,-190.1289C3658,-210.5724 3658,-241 3658,-241 3658,-241 1953.675,-241 1953.675,-241"/>
<polygon fill="#000000" stroke="#000000" points="1953.675,-237.5001 1943.675,-241 1953.675,-244.5001 1953.675,-237.5001"/>
</g>
<!-- MemberSubmitSampleComponent -->
<g id="node7" class="node">
<title>MemberSubmitSampleComponent</title>
<polygon fill="#ffffb3" stroke="#000000" points="3561.7049,-190 3350.2951,-190 3350.2951,-154 3561.7049,-154 3561.7049,-190"/>
<text text-anchor="middle" x="3456" y="-167.8" font-family="Times,serif" font-size="14.00" fill="#000000">MemberSubmitSampleComponent</text>
</g>
<!-- MemberSubmitSampleComponent&#45;&gt;AppModule -->
<g id="edge7" class="edge">
<title>MemberSubmitSampleComponent&#45;&gt;AppModule</title>
<path fill="none" stroke="#000000" d="M3456,-190.308C3456,-210.1455 3456,-239 3456,-239 3456,-239 1953.9678,-239 1953.9678,-239"/>
<polygon fill="#000000" stroke="#000000" points="1953.9679,-235.5001 1943.9678,-239 1953.9678,-242.5001 1953.9679,-235.5001"/>
</g>
<!-- NotificationDivComponent -->
<g id="node8" class="node">
<title>NotificationDivComponent</title>
<polygon fill="#ffffb3" stroke="#000000" points="3331.979,-190 3162.021,-190 3162.021,-154 3331.979,-154 3331.979,-190"/>
<text text-anchor="middle" x="3247" y="-167.8" font-family="Times,serif" font-size="14.00" fill="#000000">NotificationDivComponent</text>
</g>
<!-- NotificationDivComponent&#45;&gt;AppModule -->
<g id="edge8" class="edge">
<title>NotificationDivComponent&#45;&gt;AppModule</title>
<path fill="none" stroke="#000000" d="M3247,-190.1686C3247,-209.0898 3247,-236 3247,-236 3247,-236 1953.7281,-236 1953.7281,-236"/>
<polygon fill="#000000" stroke="#000000" points="1953.7281,-232.5001 1943.7281,-236 1953.728,-239.5001 1953.7281,-232.5001"/>
</g>
<!-- OrganizationHelpComponent -->
<g id="node9" class="node">
<title>OrganizationHelpComponent</title>
<polygon fill="#ffffb3" stroke="#000000" points="3143.6274,-190 2962.3726,-190 2962.3726,-154 3143.6274,-154 3143.6274,-190"/>
<text text-anchor="middle" x="3053" y="-167.8" font-family="Times,serif" font-size="14.00" fill="#000000">OrganizationHelpComponent</text>
</g>
<!-- OrganizationHelpComponent&#45;&gt;AppModule -->
<g id="edge9" class="edge">
<title>OrganizationHelpComponent&#45;&gt;AppModule</title>
<path fill="none" stroke="#000000" d="M3053,-190.2667C3053,-208.5552 3053,-234 3053,-234 3053,-234 1953.9866,-234 1953.9866,-234"/>
<polygon fill="#000000" stroke="#000000" points="1953.9866,-230.5001 1943.9866,-234 1953.9865,-237.5001 1953.9866,-230.5001"/>
</g>
<!-- OrganizationMenuComponent -->
<g id="node10" class="node">
<title>OrganizationMenuComponent</title>
<polygon fill="#ffffb3" stroke="#000000" points="2944.5744,-190 2757.4256,-190 2757.4256,-154 2944.5744,-154 2944.5744,-190"/>
<text text-anchor="middle" x="2851" y="-167.8" font-family="Times,serif" font-size="14.00" fill="#000000">OrganizationMenuComponent</text>
</g>
<!-- OrganizationMenuComponent&#45;&gt;AppModule -->
<g id="edge10" class="edge">
<title>OrganizationMenuComponent&#45;&gt;AppModule</title>
<path fill="none" stroke="#000000" d="M2851,-190.0225C2851,-207.3734 2851,-231 2851,-231 2851,-231 1953.6942,-231 1953.6942,-231"/>
<polygon fill="#000000" stroke="#000000" points="1953.6942,-227.5001 1943.6942,-231 1953.6942,-234.5001 1953.6942,-227.5001"/>
</g>
<!-- OrganizationSubmitSampleComponent -->
<g id="node11" class="node">
<title>OrganizationSubmitSampleComponent</title>
<polygon fill="#ffffb3" stroke="#000000" points="2739.3626,-190 2502.6374,-190 2502.6374,-154 2739.3626,-154 2739.3626,-190"/>
<text text-anchor="middle" x="2621" y="-167.8" font-family="Times,serif" font-size="14.00" fill="#000000">OrganizationSubmitSampleComponent</text>
</g>
<!-- OrganizationSubmitSampleComponent&#45;&gt;AppModule -->
<g id="edge11" class="edge">
<title>OrganizationSubmitSampleComponent&#45;&gt;AppModule</title>
<path fill="none" stroke="#000000" d="M2621,-190.0352C2621,-206.7344 2621,-229 2621,-229 2621,-229 1953.7643,-229 1953.7643,-229"/>
<polygon fill="#000000" stroke="#000000" points="1953.7643,-225.5001 1943.7643,-229 1953.7642,-232.5001 1953.7643,-225.5001"/>
</g>
<!-- PageNotFoundComponent -->
<g id="node12" class="node">
<title>PageNotFoundComponent</title>
<polygon fill="#ffffb3" stroke="#000000" points="2484.8243,-190 2319.1757,-190 2319.1757,-154 2484.8243,-154 2484.8243,-190"/>
<text text-anchor="middle" x="2402" y="-167.8" font-family="Times,serif" font-size="14.00" fill="#000000">PageNotFoundComponent</text>
</g>
<!-- PageNotFoundComponent&#45;&gt;AppModule -->
<g id="edge12" class="edge">
<title>PageNotFoundComponent&#45;&gt;AppModule</title>
<path fill="none" stroke="#000000" d="M2402,-190.0091C2402,-206.0494 2402,-227 2402,-227 2402,-227 1953.7697,-227 1953.7697,-227"/>
<polygon fill="#000000" stroke="#000000" points="1953.7698,-223.5001 1943.7697,-227 1953.7697,-230.5001 1953.7698,-223.5001"/>
</g>
<!-- SampleDivComponent -->
<g id="node13" class="node">
<title>SampleDivComponent</title>
<polygon fill="#ffffb3" stroke="#000000" points="2301.323,-190 2156.677,-190 2156.677,-154 2301.323,-154 2301.323,-190"/>
<text text-anchor="middle" x="2229" y="-167.8" font-family="Times,serif" font-size="14.00" fill="#000000">SampleDivComponent</text>
</g>
<!-- SampleDivComponent&#45;&gt;AppModule -->
<g id="edge13" class="edge">
<title>SampleDivComponent&#45;&gt;AppModule</title>
<path fill="none" stroke="#000000" d="M2229,-190.1871C2229,-205.1824 2229,-224 2229,-224 2229,-224 1953.7469,-224 1953.7469,-224"/>
<polygon fill="#000000" stroke="#000000" points="1953.747,-220.5001 1943.7469,-224 1953.7469,-227.5001 1953.747,-220.5001"/>
</g>
<!-- SampleFormComponent -->
<g id="node14" class="node">
<title>SampleFormComponent</title>
<polygon fill="#ffffb3" stroke="#000000" points="2138.6596,-190 1985.3404,-190 1985.3404,-154 2138.6596,-154 2138.6596,-190"/>
<text text-anchor="middle" x="2062" y="-167.8" font-family="Times,serif" font-size="14.00" fill="#000000">SampleFormComponent</text>
</g>
<!-- SampleFormComponent&#45;&gt;AppModule -->
<g id="edge14" class="edge">
<title>SampleFormComponent&#45;&gt;AppModule</title>
<path fill="none" stroke="#000000" d="M2062,-190.0511C2062,-204.373 2062,-222 2062,-222 2062,-222 1954.0381,-222 1954.0381,-222"/>
<polygon fill="#000000" stroke="#000000" points="1954.0382,-218.5001 1944.0381,-222 1954.0381,-225.5001 1954.0382,-218.5001"/>
</g>
<!-- StaffDivComponent -->
<g id="node15" class="node">
<title>StaffDivComponent</title>
<polygon fill="#ffffb3" stroke="#000000" points="1966.5394,-190 1837.4606,-190 1837.4606,-154 1966.5394,-154 1966.5394,-190"/>
<text text-anchor="middle" x="1902" y="-167.8" font-family="Times,serif" font-size="14.00" fill="#000000">StaffDivComponent</text>
</g>
<!-- StaffDivComponent&#45;&gt;AppModule -->
<g id="edge15" class="edge">
<title>StaffDivComponent&#45;&gt;AppModule</title>
<path fill="none" stroke="#000000" d="M1902,-190.1061C1902,-190.1061 1902,-208.991 1902,-208.991"/>
<polygon fill="#000000" stroke="#000000" points="1898.5001,-208.9909 1902,-218.991 1905.5001,-208.991 1898.5001,-208.9909"/>
</g>
<!-- StaffHelpComponent -->
<g id="node16" class="node">
<title>StaffHelpComponent</title>
<polygon fill="#ffffb3" stroke="#000000" points="1818.7534,-190 1683.2466,-190 1683.2466,-154 1818.7534,-154 1818.7534,-190"/>
<text text-anchor="middle" x="1751" y="-167.8" font-family="Times,serif" font-size="14.00" fill="#000000">StaffHelpComponent</text>
</g>
<!-- StaffHelpComponent&#45;&gt;AppModule -->
<g id="edge16" class="edge">
<title>StaffHelpComponent&#45;&gt;AppModule</title>
<path fill="none" stroke="#000000" d="M1751,-190.0511C1751,-204.373 1751,-222 1751,-222 1751,-222 1850.3389,-222 1850.3389,-222"/>
<polygon fill="#000000" stroke="#000000" points="1850.3389,-225.5001 1860.3389,-222 1850.3388,-218.5001 1850.3389,-225.5001"/>
</g>
<!-- StaffMenuComponent -->
<g id="node17" class="node">
<title>StaffMenuComponent</title>
<polygon fill="#ffffb3" stroke="#000000" points="1665.7007,-190 1524.2993,-190 1524.2993,-154 1665.7007,-154 1665.7007,-190"/>
<text text-anchor="middle" x="1595" y="-167.8" font-family="Times,serif" font-size="14.00" fill="#000000">StaffMenuComponent</text>
</g>
<!-- StaffMenuComponent&#45;&gt;AppModule -->
<g id="edge17" class="edge">
<title>StaffMenuComponent&#45;&gt;AppModule</title>
<path fill="none" stroke="#000000" d="M1595,-190.1871C1595,-205.1824 1595,-224 1595,-224 1595,-224 1850.2771,-224 1850.2771,-224"/>
<polygon fill="#000000" stroke="#000000" points="1850.2771,-227.5001 1860.2771,-224 1850.2771,-220.5001 1850.2771,-227.5001"/>
</g>
<!-- StaffSubmitSampleComponent -->
<g id="node18" class="node">
<title>StaffSubmitSampleComponent</title>
<polygon fill="#ffffb3" stroke="#000000" points="1506.4888,-190 1315.5112,-190 1315.5112,-154 1506.4888,-154 1506.4888,-190"/>
<text text-anchor="middle" x="1411" y="-167.8" font-family="Times,serif" font-size="14.00" fill="#000000">StaffSubmitSampleComponent</text>
</g>
<!-- StaffSubmitSampleComponent&#45;&gt;AppModule -->
<g id="edge18" class="edge">
<title>StaffSubmitSampleComponent&#45;&gt;AppModule</title>
<path fill="none" stroke="#000000" d="M1411,-190.0091C1411,-206.0494 1411,-227 1411,-227 1411,-227 1850.1376,-227 1850.1376,-227"/>
<polygon fill="#000000" stroke="#000000" points="1850.1377,-230.5001 1860.1376,-227 1850.1376,-223.5001 1850.1377,-230.5001"/>
</g>
<!-- StaffViewDatabasesComponent -->
<g id="node19" class="node">
<title>StaffViewDatabasesComponent</title>
<polygon fill="#ffffb3" stroke="#000000" points="1297.605,-190 1102.395,-190 1102.395,-154 1297.605,-154 1297.605,-190"/>
<text text-anchor="middle" x="1200" y="-167.8" font-family="Times,serif" font-size="14.00" fill="#000000">StaffViewDatabasesComponent</text>
</g>
<!-- StaffViewDatabasesComponent&#45;&gt;AppModule -->
<g id="edge19" class="edge">
<title>StaffViewDatabasesComponent&#45;&gt;AppModule</title>
<path fill="none" stroke="#000000" d="M1200,-190.0352C1200,-206.7344 1200,-229 1200,-229 1200,-229 1850.189,-229 1850.189,-229"/>
<polygon fill="#000000" stroke="#000000" points="1850.189,-232.5001 1860.189,-229 1850.189,-225.5001 1850.189,-232.5001"/>
</g>
<!-- AppComponent  -->
<g id="node29" class="node">
<title>AppComponent </title>
<polygon fill="#80b1d3" stroke="#000000" points="1956.439,-320 1847.561,-320 1847.561,-284 1956.439,-284 1956.439,-320"/>
<text text-anchor="middle" x="1902" y="-297.8" font-family="Times,serif" font-size="14.00" fill="#000000">AppComponent </text>
</g>
<!-- AppModule&#45;&gt;AppComponent  -->
<g id="edge28" class="edge">
<title>AppModule&#45;&gt;AppComponent </title>
<path fill="none" stroke="#000000" stroke-dasharray="1,5" d="M1902,-255.1061C1902,-255.1061 1902,-273.991 1902,-273.991"/>
<polygon fill="#000000" stroke="#000000" points="1898.5001,-273.9909 1902,-283.991 1905.5001,-273.991 1898.5001,-273.9909"/>
</g>
<!-- AdminModule -->
<g id="node21" class="node">
<title>AdminModule</title>
<polygon fill="#8dd3c7" stroke="#000000" points="647.4386,-122 644.4386,-126 623.4386,-126 620.4386,-122 548.5614,-122 548.5614,-86 647.4386,-86 647.4386,-122"/>
<text text-anchor="middle" x="598" y="-99.8" font-family="Times,serif" font-size="14.00" fill="#000000">AdminModule</text>
</g>
<!-- AdminModule&#45;&gt;AppModule -->
<g id="edge20" class="edge">
<title>AdminModule&#45;&gt;AppModule</title>
<path fill="none" stroke="#000000" d="M587.8762,-122.1718C587.8762,-159.8494 587.8762,-243 587.8762,-243 587.8762,-243 1850.1335,-243 1850.1335,-243"/>
<polygon fill="#000000" stroke="#000000" points="1850.1336,-246.5001 1860.1335,-243 1850.1335,-239.5001 1850.1336,-246.5001"/>
</g>
<!-- AppRoutingModule -->
<g id="node22" class="node">
<title>AppRoutingModule</title>
<polygon fill="#8dd3c7" stroke="#000000" points="794.2744,-122 791.2744,-126 770.2744,-126 767.2744,-122 665.7256,-122 665.7256,-86 794.2744,-86 794.2744,-122"/>
<text text-anchor="middle" x="730" y="-99.8" font-family="Times,serif" font-size="14.00" fill="#000000">AppRoutingModule</text>
</g>
<!-- AppRoutingModule&#45;&gt;AppModule -->
<g id="edge21" class="edge">
<title>AppRoutingModule&#45;&gt;AppModule</title>
<path fill="none" stroke="#000000" d="M751.4624,-122.1944C751.4624,-130.2782 751.4624,-138 751.4624,-138 751.4624,-138 935.4226,-138 935.4226,-138 935.4226,-138 935.4226,-234 935.4226,-234 935.4226,-234 1850.1571,-234 1850.1571,-234"/>
<polygon fill="#000000" stroke="#000000" points="1850.1572,-237.5001 1860.1571,-234 1850.1571,-230.5001 1850.1572,-237.5001"/>
</g>
<!-- OrganizationMemberModule -->
<g id="node25" class="node">
<title>OrganizationMemberModule</title>
<polygon fill="#8dd3c7" stroke="#000000" points="807.0576,-190 804.0576,-194 783.0576,-194 780.0576,-190 626.9424,-190 626.9424,-154 807.0576,-154 807.0576,-190"/>
<text text-anchor="middle" x="717" y="-167.8" font-family="Times,serif" font-size="14.00" fill="#000000">OrganizationMemberModule</text>
</g>
<!-- AppRoutingModule&#45;&gt;OrganizationMemberModule -->
<g id="edge33" class="edge">
<title>AppRoutingModule&#45;&gt;OrganizationMemberModule</title>
<path fill="none" stroke="#000000" d="M708.5376,-122.2228C708.5376,-122.2228 708.5376,-143.7269 708.5376,-143.7269"/>
<polygon fill="#000000" stroke="#000000" points="705.0377,-143.7269 708.5376,-153.7269 712.0377,-143.727 705.0377,-143.7269"/>
</g>
<!-- ErrorsModule -->
<g id="node23" class="node">
<title>ErrorsModule</title>
<polygon fill="#8dd3c7" stroke="#000000" points="919.03,-190 916.03,-194 895.03,-194 892.03,-190 824.97,-190 824.97,-154 919.03,-154 919.03,-190"/>
<text text-anchor="middle" x="872" y="-167.8" font-family="Times,serif" font-size="14.00" fill="#000000">ErrorsModule</text>
</g>
<!-- ErrorsModule&#45;&gt;AppModule -->
<g id="edge22" class="edge">
<title>ErrorsModule&#45;&gt;AppModule</title>
<path fill="none" stroke="#000000" d="M872,-190.1686C872,-209.0898 872,-236 872,-236 872,-236 1850.0254,-236 1850.0254,-236"/>
<polygon fill="#000000" stroke="#000000" points="1850.0254,-239.5001 1860.0254,-236 1850.0253,-232.5001 1850.0254,-239.5001"/>
</g>
<!-- MaterialModule -->
<g id="node24" class="node">
<title>MaterialModule</title>
<polygon fill="#8dd3c7" stroke="#000000" points="919.4706,-122 916.4706,-126 895.4706,-126 892.4706,-122 812.5294,-122 812.5294,-86 919.4706,-86 919.4706,-122"/>
<text text-anchor="middle" x="866" y="-99.8" font-family="Times,serif" font-size="14.00" fill="#000000">MaterialModule</text>
</g>
<!-- MaterialModule&#45;&gt;AppModule -->
<g id="edge23" class="edge">
<title>MaterialModule&#45;&gt;AppModule</title>
<path fill="none" stroke="#000000" d="M820.662,-122.2067C820.662,-159.0559 820.662,-239 820.662,-239 820.662,-239 1850.2728,-239 1850.2728,-239"/>
<polygon fill="#000000" stroke="#000000" points="1850.2729,-242.5001 1860.2728,-239 1850.2728,-235.5001 1850.2729,-242.5001"/>
</g>
<!-- MaterialModule&#45;&gt;ErrorsModule -->
<g id="edge32" class="edge">
<title>MaterialModule&#45;&gt;ErrorsModule</title>
<path fill="none" stroke="#000000" d="M872,-122.2228C872,-122.2228 872,-143.7269 872,-143.7269"/>
<polygon fill="#000000" stroke="#000000" points="868.5001,-143.7269 872,-153.7269 875.5001,-143.727 868.5001,-143.7269"/>
</g>
<!-- MaterialModule&#45;&gt;OrganizationMemberModule -->
<g id="edge34" class="edge">
<title>MaterialModule&#45;&gt;OrganizationMemberModule</title>
<path fill="none" stroke="#000000" d="M816.5883,-122.2228C816.5883,-142.3652 816.5883,-172 816.5883,-172 816.5883,-172 815.6334,-172 815.6334,-172"/>
<polygon fill="#000000" stroke="#000000" points="817.0394,-168.5001 807.0394,-172 817.0393,-175.5001 817.0394,-168.5001"/>
</g>
<!-- OrganizationMemberModule&#45;&gt;AppModule -->
<g id="edge24" class="edge">
<title>OrganizationMemberModule&#45;&gt;AppModule</title>
<path fill="none" stroke="#000000" d="M717,-190.1289C717,-210.5724 717,-241 717,-241 717,-241 1850.1733,-241 1850.1733,-241"/>
<polygon fill="#000000" stroke="#000000" points="1850.1733,-244.5001 1860.1733,-241 1850.1733,-237.5001 1850.1733,-244.5001"/>
</g>
<!-- OrganizationModule -->
<g id="node26" class="node">
<title>OrganizationModule</title>
<polygon fill="#8dd3c7" stroke="#000000" points="354.1331,-122 351.1331,-126 330.1331,-126 327.1331,-122 221.8669,-122 221.8669,-86 354.1331,-86 354.1331,-122"/>
<text text-anchor="middle" x="288" y="-99.8" font-family="Times,serif" font-size="14.00" fill="#000000">OrganizationModule</text>
</g>
<!-- OrganizationModule&#45;&gt;AppModule -->
<g id="edge25" class="edge">
<title>OrganizationModule&#45;&gt;AppModule</title>
<path fill="none" stroke="#000000" d="M288,-122.0251C288,-161.2783 288,-251 288,-251 288,-251 1850.0711,-251 1850.0711,-251"/>
<polygon fill="#000000" stroke="#000000" points="1850.0711,-254.5001 1860.0711,-251 1850.071,-247.5001 1850.0711,-254.5001"/>
</g>
<!-- StaffModule -->
<g id="node27" class="node">
<title>StaffModule</title>
<polygon fill="#8dd3c7" stroke="#000000" points="459.2591,-122 456.2591,-126 435.2591,-126 432.2591,-122 372.7409,-122 372.7409,-86 459.2591,-86 459.2591,-122"/>
<text text-anchor="middle" x="416" y="-99.8" font-family="Times,serif" font-size="14.00" fill="#000000">StaffModule</text>
</g>
<!-- StaffModule&#45;&gt;AppModule -->
<g id="edge26" class="edge">
<title>StaffModule&#45;&gt;AppModule</title>
<path fill="none" stroke="#000000" d="M416,-122.2377C416,-160.9861 416,-248 416,-248 416,-248 1850.3136,-248 1850.3136,-248"/>
<polygon fill="#000000" stroke="#000000" points="1850.3136,-251.5001 1860.3136,-248 1850.3136,-244.5001 1850.3136,-251.5001"/>
</g>
<!-- core -->
<g id="node28" class="node">
<title>core</title>
<polygon fill="#8dd3c7" stroke="#000000" points="531,-122 528,-126 507,-126 504,-122 477,-122 477,-86 531,-86 531,-122"/>
<text text-anchor="middle" x="504" y="-99.8" font-family="Times,serif" font-size="14.00" fill="#000000">core</text>
</g>
<!-- core&#45;&gt;AppModule -->
<g id="edge27" class="edge">
<title>core&#45;&gt;AppModule</title>
<path fill="none" stroke="#000000" d="M504,-122.2733C504,-160.6253 504,-246 504,-246 504,-246 1850.1606,-246 1850.1606,-246"/>
<polygon fill="#000000" stroke="#000000" points="1850.1607,-249.5001 1860.1606,-246 1850.1606,-242.5001 1850.1607,-249.5001"/>
</g>
<!-- NotificationService -->
<g id="node30" class="node">
<title>NotificationService</title>
<ellipse fill="#fdb462" stroke="#000000" cx="111" cy="-172" rx="86.8107" ry="18"/>
<text text-anchor="middle" x="111" y="-167.8" font-family="Times,serif" font-size="14.00" fill="#000000">NotificationService</text>
</g>
<!-- NotificationService&#45;&gt;AppModule -->
<g id="edge30" class="edge">
<title>NotificationService&#45;&gt;AppModule</title>
<path fill="none" stroke="#000000" d="M111,-190.3802C111,-214.2785 111,-253 111,-253 111,-253 1849.9308,-253 1849.9308,-253"/>
<polygon fill="#000000" stroke="#000000" points="1849.9308,-256.5001 1859.9308,-253 1849.9307,-249.5001 1849.9308,-256.5001"/>
</g>
<!-- ErrorComponent -->
<g id="node31" class="node">
<title>ErrorComponent</title>
<polygon fill="#ffffb3" stroke="#000000" points="4487.3669,-122 4376.6331,-122 4376.6331,-86 4487.3669,-86 4487.3669,-122"/>
<text text-anchor="middle" x="4432" y="-99.8" font-family="Times,serif" font-size="14.00" fill="#000000">ErrorComponent</text>
</g>
<!-- ErrorComponent&#45;&gt;ErrorsModule -->
<g id="edge31" class="edge">
<title>ErrorComponent&#45;&gt;ErrorsModule</title>
<path fill="none" stroke="#000000" d="M4376.5987,-104C3929.5145,-104 927.454,-104 927.454,-104 927.454,-104 927.454,-172 927.454,-172 927.454,-172 926.6357,-172 926.6357,-172"/>
<polygon fill="#000000" stroke="#000000" points="929.2716,-168.5001 919.2715,-172 929.2715,-175.5001 929.2716,-168.5001"/>
</g>
</g>
</svg>
